<?xml version="1.0" encoding="utf-8"?>
<!-- Generator: Adobe Illustrator 24.0.0, SVG Export Plug-In . SVG Version: 6.00 Build 0)  -->
<svg version="1.1" id="Capa_1" xmlns="http://www.w3.org/2000/svg" xmlns:xlink="http://www.w3.org/1999/xlink" x="0px" y="0px"
	 viewBox="0 0 28 36" style="enable-background:new 0 0 28 36;" xml:space="preserve">
<style type="text/css">
	.st0{fill:#53201C;}
	.st1{display:none;fill:#110042;}
	.st2{fill:#E0444E;}
</style>
<path class="st0" d="M15.4,35.1l3.1,0.4c0.3,0,0-0.2,1,0l0.2-0.1c0.5,0.1,1.1,0,2.6-0.3L22,35l0.5-0.2c-0.1-0.6,0.8-0.7,1-2
	c-0.9-8.4,0.8-19.4-2.2-28c-0.1-0.1,0.1,0-0.7-0.7c0-0.4-0.9-0.8-0.9-0.9c-1.6-1.2-3.5-2.5-7-2.8C11.6,1.2,9,0,6.6,1.3
	C6.5,1.7,5.5,1.7,4.6,3.1c-0.2,0.1-0.5,0.5-1,2c0.4,8.5-0.5,17.3,1.4,26.6v0.4c1,2.1,4.3,3.4,8,2.7l0.5,0.1
	C13.8,34.9,13.6,34.7,15.4,35.1z"/>
<path class="st2" d="M10,12.8l0.1-0.3c0,0,0,0,0-0.1l0,0c0,0,0-0.1,0-0.2l0,0l0-0.1c-0.1,0-0.1-0.1-0.2-0.1
	c-0.8-0.1-1.8-0.5-2.7-0.4c0,0,0,0-0.1,0c0,0-0.1,0.1-0.1,0.1c-0.2,0.1-0.3,0.3-0.4,0.6c0,0.1-0.1,0.3-0.1,0.6c0,0,0,0.1,0.1,0.2
	c0,0,0,0.1,0.2,0.1c0.8,0.2,1.6,0.4,2.5,0.5l0,0c0.2-0.1,0.4-0.3,0.4-0.7l0,0C10,12.9,10,12.9,10,12.8z"/>
<path class="st2" d="M19.1,24.1l0.1-0.3c0,0,0,0,0-0.1l0,0c0,0,0-0.1,0-0.2l0,0l0-0.1c-0.1,0-0.1-0.1-0.2-0.1
	c-0.8-0.1-1.8-0.5-2.7-0.4c0,0,0,0-0.1,0c0,0-0.1,0.1-0.1,0.1c-0.2,0.1-0.3,0.3-0.4,0.6c0,0.1-0.1,0.3-0.1,0.6c0,0,0,0.1,0.1,0.2
	c0,0,0,0.1,0.2,0.1c0.8,0.2,1.6,0.4,2.5,0.5l0,0c0.2-0.1,0.4-0.3,0.4-0.7l0,0C19,24.3,19,24.3,19.1,24.1z"/>
<path class="st2" d="M12.9,14.8l-0.1-0.3c0,0,0,0,0-0.1l0,0c0,0,0-0.1-0.1-0.2l0,0l0,0c-0.1,0-0.1,0-0.2,0c-0.7,0.4-1.7,0.7-2.4,1.3
	c0,0,0,0,0,0.1c0,0,0,0.1,0,0.1c0,0.2-0.1,0.4,0,0.7c0.1,0.1,0.1,0.4,0.3,0.5c0,0,0.1,0.1,0.2,0.1c0,0,0.1,0,0.2,0
	c0.7-0.4,1.6-0.6,2.3-1.2l0,0c0.1-0.2,0.1-0.5-0.1-0.8l0,0C12.9,15,12.9,15,12.9,14.8z"/>
<path class="st2" d="M21,19.5l-0.1-0.3c0,0,0,0,0-0.1l0,0c0,0,0-0.1-0.1-0.2l0,0l0,0c-0.1,0-0.1,0-0.2,0c-0.7,0.4-1.7,0.7-2.4,1.3
	c0,0,0,0,0,0.1c0,0,0,0.1,0,0.1c0,0.2-0.1,0.4,0,0.7c0.1,0.1,0.1,0.4,0.3,0.5c0,0,0.1,0.1,0.2,0.1c0,0,0.1,0,0.2,0
	c0.7-0.4,1.6-0.6,2.3-1.2l0,0c0.1-0.2,0.1-0.5-0.1-0.8l0,0C21,19.6,21,19.6,21,19.5z"/>
<path class="st2" d="M19.8,28.4l-0.1-0.3c0,0,0,0,0-0.1l0,0c0,0,0-0.1-0.1-0.2l0,0l0,0c-0.1,0-0.1,0-0.2,0c-0.7,0.4-1.7,0.7-2.4,1.3
	c0,0,0,0,0,0.1c0,0,0,0.1,0,0.1c0,0.2-0.1,0.4,0,0.7c0.1,0.1,0.1,0.4,0.3,0.5c0,0,0.1,0.1,0.2,0.1c0,0,0.1,0,0.2,0
	c0.7-0.4,1.6-0.6,2.3-1.2l0,0c0.1-0.2,0.1-0.5-0.1-0.8l0,0C19.8,28.5,19.8,28.5,19.8,28.4z"/>
<path class="st2" d="M13.9,6.9l-0.3-0.1c0,0,0,0-0.1,0l0,0c0,0-0.1,0-0.2,0l0,0l-0.1,0c0,0.1-0.1,0-0.2,0.2
	c-0.2,0.8-0.6,1.8-0.6,2.7c0,0,0,0,0,0.1c0,0,0.1,0.1,0.1,0.1c0.1,0.2,0.3,0.3,0.6,0.5c0.1,0,0.3,0.2,0.6,0.1c0,0,0.1,0,0.2-0.1
	c0,0,0.1,0,0.2-0.2c0.2-0.8,0.6-1.6,0.7-2.5l0,0c0-0.2-0.3-0.4-0.7-0.5l0,0C14,6.9,14,7,13.9,6.9z"/>
<path class="st2" d="M15.4,5l-0.2,0.2c0,0,0,0-0.1,0.1l0,0c0,0-0.1,0.1-0.1,0.2l0,0l0,0.1c0.1,0,0,0.1,0.1,0.2
	c0.7,0.3,1.6,1,2.4,1.2c0,0,0,0,0.1,0c0,0,0.1,0,0.1,0c0.2-0.1,0.4-0.2,0.6-0.4c0-0.1,0.2-0.3,0.2-0.6c0,0,0-0.1,0-0.3
	c0,0,0-0.1-0.1-0.2c-0.7-0.4-1.4-0.9-2.3-1.2l0,0c-0.2,0-0.5,0.2-0.6,0.5l0,0C15.5,4.9,15.6,4.9,15.4,5z"/>
<path class="st2" d="M15.2,14.2l0.3,0.2c0,0,0,0,0.1,0l0,0c0,0,0.1,0,0.2,0.1l0,0l0.1,0c0-0.1,0.1,0,0.2-0.1
	c0.2-0.8,0.8-1.7,0.9-2.6c0,0,0,0,0-0.1c0,0,0-0.1,0-0.1c-0.1-0.2-0.2-0.4-0.5-0.5c-0.1,0-0.3-0.2-0.6-0.2c0,0-0.1,0-0.3,0.1
	c0,0-0.1,0-0.2,0.1c-0.3,0.8-0.7,1.5-0.9,2.4l0,0c0,0.2,0.3,0.5,0.6,0.6l0,0C15,14.1,15,14.1,15.2,14.2z"/>
<path class="st2" d="M8,31.9L8.2,32c0,0,0,0,0.1,0l0,0c0,0,0.1,0,0.2,0.1l0,0l0.1,0c0-0.1,0.1,0,0.2-0.1c0.2-0.8,0.8-1.7,0.9-2.6
	c0,0,0,0,0-0.1c0,0,0-0.1,0-0.1c-0.1-0.2-0.2-0.4-0.5-0.5c-0.1,0-0.3-0.2-0.6-0.2c0,0-0.1,0-0.3,0.1c0,0-0.1,0-0.2,0.1
	c-0.3,0.8-0.7,1.5-0.9,2.4l0,0c0,0.2,0.3,0.5,0.6,0.6l0,0C7.8,31.8,7.8,31.8,8,31.9z"/>
<path class="st2" d="M18.3,16.8l0.3,0.2c0,0,0,0,0.1,0l0,0c0,0,0.1,0,0.2,0.1l0,0l0.1,0c0-0.1,0.1,0,0.2-0.1
	c0.2-0.8,0.8-1.7,0.9-2.6c0,0,0,0,0-0.1c0,0,0-0.1,0-0.1c-0.1-0.2-0.2-0.4-0.5-0.5c-0.1,0-0.3-0.2-0.6-0.2c0,0-0.1,0-0.3,0.1
	c0,0-0.1,0-0.2,0.1c-0.3,0.8-0.7,1.5-0.9,2.4l0,0c0,0.2,0.3,0.5,0.6,0.6l0,0C18.2,16.7,18.2,16.7,18.3,16.8z"/>
<path class="st2" d="M8,20l0.3,0.2c0,0,0,0,0.1,0l0,0c0,0,0.1,0,0.2,0.1l0,0l0.1,0c0-0.1,0.1,0,0.2-0.1c0.2-0.8,0.8-1.7,0.9-2.6
	c0,0,0,0,0-0.1c0,0,0-0.1,0-0.1c-0.1-0.2-0.2-0.4-0.5-0.5c-0.1,0-0.3-0.2-0.6-0.2c0,0-0.1,0-0.3,0.1c0,0-0.1,0-0.2,0.1
	c-0.3,0.8-0.7,1.5-0.9,2.4l0,0c0,0.2,0.3,0.5,0.6,0.6l0,0C7.8,19.9,7.8,19.9,8,20z"/>
<path class="st2" d="M11,28.3l0.3,0.2c0,0,0,0,0.1,0l0,0c0,0,0.1,0,0.2,0.1l0,0l0.1,0c0-0.1,0.1,0,0.2-0.1c0.2-0.8,0.8-1.7,0.9-2.6
	c0,0,0,0,0-0.1c0,0,0-0.1,0-0.1c-0.1-0.2-0.2-0.4-0.5-0.5c-0.1,0-0.3-0.2-0.6-0.2c0,0-0.1,0-0.3,0.1c0,0-0.1,0-0.2,0.1
	c-0.3,0.8-0.7,1.5-0.9,2.4l0,0c0,0.2,0.3,0.5,0.6,0.6l0,0C10.9,28.2,10.9,28.1,11,28.3z"/>
<path class="st2" d="M7.5,5.5L7.2,5.7c0,0,0,0-0.1,0.1l0,0c0,0-0.1,0.1-0.2,0.2l0,0l0,0C7,6,7,6.1,7,6.2c0.6,0.5,1.2,1.5,2,1.9
	c0,0,0,0,0.1,0c0,0,0.1,0,0.1,0c0.2,0,0.4,0,0.7-0.2c0-0.1,0.3-0.2,0.4-0.5c0,0,0.1-0.1,0-0.3c0,0,0-0.1-0.1-0.2
	C9.7,6.3,9.2,5.6,8.5,5.1l0,0C8.2,5,7.9,5.1,7.7,5.4l0,0C7.6,5.4,7.6,5.4,7.5,5.5z"/>
<path class="st2" d="M13.6,16.9l-0.2,0.2c0,0,0,0-0.1,0.1l0,0c0,0-0.1,0.1-0.2,0.2l0,0l0,0c0,0,0,0.1,0.1,0.2c0.6,0.5,1.2,1.5,2,1.9
	c0,0,0,0,0.1,0c0,0,0.1,0,0.1,0c0.2,0,0.4,0,0.7-0.2c0-0.1,0.3-0.2,0.4-0.5c0,0,0.1-0.1,0-0.3c0,0,0-0.1-0.1-0.2
	c-0.6-0.6-1.1-1.3-1.8-1.8l0,0c-0.2-0.1-0.5,0-0.8,0.3l0,0C13.7,16.9,13.8,16.9,13.6,16.9z"/>
<path class="st2" d="M11.9,30l-0.2,0.2c0,0,0,0-0.1,0.1l0,0c0,0-0.1,0.1-0.2,0.2l0,0l0,0c0,0,0,0.1,0.1,0.2c0.6,0.5,1.2,1.5,2,1.9
	c0,0,0,0,0.1,0c0,0,0.1,0,0.1,0c0.2,0,0.4,0,0.7-0.2c0-0.1,0.3-0.2,0.4-0.5c0,0,0.1-0.1,0-0.3c0,0,0-0.1-0.1-0.2
	c-0.6-0.6-1.1-1.3-1.8-1.8l0,0c-0.2-0.1-0.5,0-0.8,0.3l0,0C12.1,29.9,12.1,29.9,11.9,30z"/>
<path class="st2" d="M6,23.4l-0.2,0.2c0,0,0,0-0.1,0.1l0,0c0,0-0.1,0.1-0.2,0.2l0,0l0,0c0,0,0,0.1,0.1,0.2c0.6,0.5,1.2,1.5,2,1.9
	c0,0,0,0,0.1,0c0,0,0.1,0,0.1,0c0.2,0,0.4,0,0.7-0.2c0-0.1,0.3-0.2,0.4-0.5c0,0,0.1-0.1,0-0.3c0,0,0-0.1-0.1-0.2
	c-0.6-0.6-1.1-1.3-1.8-1.8l0,0c-0.2-0.1-0.5,0-0.8,0.3l0,0C6.1,23.3,6.1,23.3,6,23.4z"/>
<path class="st2" d="M10.7,21.4l-0.2,0.2c0,0,0,0-0.1,0.1l0,0c0,0-0.1,0.1-0.2,0.2l0,0l0,0c0,0,0,0.1,0.1,0.2c0.6,0.5,1.2,1.5,2,1.9
	c0,0,0,0,0.1,0c0,0,0.1,0,0.1,0c0.2,0,0.4,0,0.7-0.2c0-0.1,0.3-0.2,0.4-0.5c0,0,0.1-0.1,0-0.3c0,0,0-0.1-0.1-0.2
	c-0.6-0.6-1.1-1.3-1.8-1.8l0,0c-0.2-0.1-0.5,0-0.8,0.3l0,0C10.8,21.3,10.8,21.3,10.7,21.4z"/>
</svg>
