<svg id="Capa_1" data-name="Capa 1" xmlns="http://www.w3.org/2000/svg" viewBox="0 0 666.03 103.89"><defs><style>.cls-1{fill:#eb7477;}</style></defs><title>logo</title><path class="cls-1" d="M595.84,117.05c-3.16,5-7,9.4-12.39,11.89-3.75,1.73-7.59,3.5-12.06,2.19s-7-4.28-7.09-8.77c0-1.45.11-2.92.06-4.37a7.71,7.71,0,0,1,.73-3.78c-1.18-.59-1.51.25-1.79.69-3,4.72-7.62,7.13-12.77,8.57a3.93,3.93,0,0,0-2.92,2.33c-2.42,5.32-7,7.75-12.42,8.51-10,1.39-16.67-2.08-18.85-13a14.33,14.33,0,0,0-1.1-2.54c-4.13,4.41-7.75,8.79-13.06,11.32a18.73,18.73,0,0,1-10.48,1.53c-2.88-.32-5.63-3.82-6.34-7.77a18.32,18.32,0,0,1-.17-2c-1.64,0-2,1.28-2.79,2.14-3.67,4.05-7.2,8.22-12.85,9.76-7.61,2.07-12-2.9-12.51-9.17-.09-1.31,0-2.64,0-3.85-1.43-.54-1.54.58-2,1.08-5.61,6.27-11.88,11.48-20.5,13-9.86,1.79-17.66-3.23-18-14.16-.34-10.12,2.91-18.59,9.47-26.19,5.19-6,11.09-10.09,19.33-9.9,4.43.1,7.16,2.34,8.25,6.85,1,4.34-.95,10.12-4.09,11.7a5.56,5.56,0,0,1-4,.17c-1.59-.43-2.67-1.32-1.08-3.07a13.19,13.19,0,0,0,3.43-8.08c.18-2.28-.37-3.48-2.94-3.58a7.39,7.39,0,0,0-5.28,1.75C431,98,425.19,107.37,424.76,119.24c-.33,8.92,5.15,12.85,13.7,10,9.38-3.07,15.72-9.74,20.33-18.2,2.53-4.64,6-8.65,9.28-12.68,3.85-4.75,8.18-9.22,14-11.92a25.93,25.93,0,0,1,12.65-2.58c6.27.37,10.25,5.1,9.49,11.28-.41,3.43-3.23,3.42-5.61,4.06-1-2,.33-3.79,0-5.62-.92-5.34-5.47-7.42-10.65-5.07-4.64,2.11-8.05,5.65-11,9.56a56.05,56.05,0,0,0-10.14,20.59,26.44,26.44,0,0,0-.4,5c-.1,1.71,0,3.59,1.72,4.43s3.51.11,5.09-.82c4.66-2.78,8.17-6.8,11.48-11a117.64,117.64,0,0,0,10-13.72c1.53-2.61,3.37-2,5.39-.87,2.2,1.17,1.7,2.93.87,4.59-1.74,3.49-3.75,6.86-5.4,10.4-1.06,2.28-2,4.66-.81,7.34,1.32,2.89,2.86,3.63,5.81,2.39,6.29-2.65,10.52-7.57,14.19-13,1.83-2.73,3.29-5.41,7-6.44s5.35-4.9,7.77-7.61c1.9-2.12,3.05-4.89,4.72-7.24,2.28-3.22,2.51-7,3-10.66.26-2,1.7-2.89,2.87-3.89,1.58-1.34,4.26-.09,3.81,1.74-2.16,8.69,2.11,16.18,4.25,24a42.68,42.68,0,0,1,1.8,15.2c-.25,2.68.61,2.83,2.77,1.81,5-2.32,7.57-6.89,11.06-10.73,5.68-6.26,6.65-14.95,12.07-21.21,1.81-2.09,3.5-4,6.6-3.87,2.85.14,3.86,1.36,2.94,4.07-1.41,4.17-4,7.7-6.19,11.47-2.9,5-5.47,10.2-6.62,16a14.48,14.48,0,0,0,.5,7.6c1.07,3.16,6.33,3.56,10.34,1.43,6.26-3.33,9-9.48,13-14.75,2.68-3.55,5.09-7.28,7.77-10.82,2.45-3.22,5.65-4.16,9.91-3.17a53,53,0,0,0-7.2,14.55,25.81,25.81,0,0,0-1.56,10.52c.41,4.49,3.18,6.12,7.15,4.11,4.18-2.1,7.11-5.63,10.26-8.92-7.92-8.64-9.71-20-3.83-29.37,2-3.22,7.42-5.33,11.52-4.46,3.95.84,6.26,3,6.53,6.58.33,4.36.26,8.76-1.48,12.88-1.47,3.49-2.78,7.06-5,10.22-.57.84-1.73,2-1.12,2.89.72,1.1,2.33,1.35,3.64,1.28,4.93-.28,8.72-2.72,12.18-6.16a17.38,17.38,0,0,0,5.42-13c0-3.39,4.35-5.73,7.69-4.77,1.83.53,2.38,1.88,2.28,3.63-.19,3.48-1.26,6.78-2,10.15-.16.68-1.06,1.32-.07,2.33,3.5-3.81,6.19-8.34,10.12-11.73,4.13-3.57,8.34-6.86,14.38-6.56,5.56.28,8.89,3.54,9.33,9.22s-1.08,10.59-3.38,15.5a15,15,0,0,0-1.48,7.13c.15,4.16,3,5.82,6.59,3.72a25.4,25.4,0,0,0,8.47-8.74c1.8-2.8,3.53-5.66,5.25-8.51.42-.7.81-1.53,1.73-1.13s1.05,1.3.56,2.27c-3.45,6.91-7,13.67-13.78,18.13a14.84,14.84,0,0,1-11.27,2c-4.35-.78-7-5.56-5.87-10s2.39-8.74,3.51-13.13c.69-2.73.56-5.75-1.63-7.44-2.38-1.84-5.56-1.51-8.24,0-6,3.31-9.91,8.63-13.63,14.1-3.12,4.62-6.19,9.29-9,14.09-1.81,3.06-4.1,2-6.34,1.21-2.43-.84-2.25-2.55-1.28-4.59,1.13-2.38,2-4.91,2.93-7.36.27-.65.55-1.41,0-1.87s-1.14.29-1.67.62c-4.88,3.08-9.89,5.76-15.9,3.42-1.49-.58-2.06.34-2.78,1.14-2.91,3.25-5.82,6.55-9.61,8.76-3.62,2.12-7.27,4.29-11.9,2.62a9.94,9.94,0,0,1-6.92-9.42c0-1.66,0-3.31,0-5ZM537.59,93c-3.84,5.69-7.14,10.88-11.44,15.31-.81.83-.25,1.67.23,2.44A22.72,22.72,0,0,0,538,120.5c2.44.91,3.29.59,3.48-2.25C542,109.79,539.58,101.84,537.59,93Zm83.89,7.12a23.7,23.7,0,0,0,2.91,10.73c.39.69,1.05,2.4,2.08.77,4.19-6.59,7.69-13.51,6.23-21.68-.65-3.66-3.71-4.56-6.51-2.1C622.68,90.91,621.54,95.05,621.48,100.09Zm-88.61,29.63c2.5-.25,5.14-1.13,6.67-4.07.7-1.33.42-2.1-1-2.46-5.35-1.3-9.31-4.65-12.81-8.67-1.61-1.86-2.61-1.19-3.33.74C520.14,121.36,526,129.84,532.87,129.72Z" transform="translate(-44.36 -35.53)"/><path class="cls-1" d="M253.44,118.36a47.82,47.82,0,0,1-14.59,13.49A24.52,24.52,0,0,1,223.36,135c-5.88-.68-10.36-5.84-10.84-12.15-.17-2.23,0-4.49,0-7.42-2.8,2.11-3.8,4.88-5.57,7-3.22,3.82-6.63,7.25-11.58,8.78-8.58,2.64-14.94-2.4-14.68-11.7.05-1.62.61-3.28-.34-4.93-1.64.71-2.09,2.34-2.93,3.56-3.95,5.75-8.84,10.28-15.43,12.83a18.09,18.09,0,0,1-8.63.67c-2.87-.31-5.14-3.34-5.5-7.11-.15-1.53-.15-3.07-.24-5-2.37,1.64-3.3,3.93-4.77,5.74-2.54,3.11-5.46,5.75-9.49,6.5-6.43,1.21-10.65-4.75-11.28-11.58a27.11,27.11,0,0,1,1.49-10.8c1.95-6.12,3.41-12.46,7.29-17.8,1.58-2.17,5.6-2.08,7.06.15.75,1.15-.18,1.93-.61,2.74a66.76,66.76,0,0,0-6.74,18.12c-.68,3.54-1,7.11.2,10.59s3,4.11,6.13,2.3c4.83-2.83,7.39-7.66,10-12.21a178,178,0,0,0,8.76-17.26c1.48-3.27,3.49-2.76,6-1.85,2.93,1.09,2.36,3.11,1.4,5.2a118.76,118.76,0,0,0-6.67,17.1,22.37,22.37,0,0,0-.78,6.63c.08,4.25,2.55,5.8,6.47,4,6.95-3.11,11.27-8.88,15.79-14.76,6.25-8.13,7.66-18.06,11.49-27.06,6.84-16,14.47-31.62,25.2-45.48,1.57-2,3.3-4.75,6.39-4.14s3.32,4,3.94,6.44c1.07,4.29-.29,8.42-1.61,12.45a124.78,124.78,0,0,1-23.54,41.74,65.9,65.9,0,0,1-7.5,7.63c-2.67,2.32-2.07,6-2.59,9.12a22.78,22.78,0,0,0,.47,10.33c1.17,3.82,3.83,5.16,7.39,3.39,5.87-2.9,9.24-8.13,12.47-13.51,4.88-8.15,8.87-16.94,16.29-23.3a20.6,20.6,0,0,1,16.66-5.21c5.56.75,8.44,8.38,5.69,14.4-1.25,2.74-3,4.65-6.38,4.37a2.93,2.93,0,0,1-2.42-1.5c-.68-1.07.31-1.66.9-2.23,2.33-2.23,2.69-5.27,3.25-8.16.34-1.82-.87-2.82-2.75-3a7.24,7.24,0,0,0-5.65,1.65c-8.66,7.69-14.46,17.07-15,28.87-.42,8.92,5,12.91,13.62,10.25,9.78-3,16.2-9.88,20.74-18.89,5.51-10.93,11.75-21.32,23.48-26.89A19.88,19.88,0,0,1,289.47,82c4.92.59,7.1,5,5.5,11-2.05,7.58-7.62,12.17-14,15.91a36.94,36.94,0,0,1-15,5.35,2.84,2.84,0,0,0-2.88,2.71c-.57,7.52,2.7,14.26,12.32,12.63,8-1.35,14-6.51,19.21-12.36,2.21-2.46,3.83-5.43,5.75-8.15.53-.76.89-2.09,2.23-1.23,1.15.73.21,1.6-.13,2.29-6,12.21-15.2,21-28.69,23.4-8.32,1.47-15.33-.27-18.49-9.63C254.64,122.11,255.47,120,253.44,118.36Zm-59.65-20c5.34-5.07,9.33-11.17,13.1-17.41,5.74-9.51,11.16-19.2,13.82-30.13.34-1.38,1.12-3.3-.29-4S218,47.87,217.22,49c-6.43,8.43-11.33,17.76-15.65,27.39-3.15,7-6.47,14-8.2,21.63-.38.24-.64.72-.29,1S193.57,98.56,193.79,98.32Zm70.44,13.39a53.52,53.52,0,0,0,15.2-8c3.43-2.54,6.6-5.39,8.58-9.28,1.29-2.56,2.67-5.79.54-7.83-2.29-2.19-5.35-.18-7.62,1.39C272.67,93.67,267.92,101.86,264.23,111.71Z" transform="translate(-44.36 -35.53)"/><path class="cls-1" d="M119.68,71.75c-.7,17.16-6.22,30.66-15.7,42.63a68.91,68.91,0,0,1-24.5,19.77c-9,4.28-18.43,6.3-28.41,4.35a12.36,12.36,0,0,1-4.43-2.2c-2.26-1.52-2.61-3.68-2-6q5.18-21,11.67-41.6c3.42-10.92,6.86-21.82,11.08-32.47a33.15,33.15,0,0,1,4.72-7.56,5,5,0,0,1,4.47-1.82C79.4,47,80.07,48,79,50.63a583.43,583.43,0,0,0-25.27,79.44c-1.23,5.1-.65,6,4.76,5.7,8.93-.51,16.66-4.12,23.61-9.59,13.06-10.27,21.11-23.88,25.45-39.62,2.53-9.18,3.52-18.63,1-28.19-3.87-14.94-16-20.45-29.68-18.65a29.37,29.37,0,0,0-15.21,6.2C57,51.39,53.64,58.36,55,67.08c.35,2.25-.73,1.93-1.94,1.86-4.48-.28-7.08-5.76-5.36-10.8C50.43,50,56.33,45,63.71,41.32a49.7,49.7,0,0,1,33-4.69c13.48,2.72,19.54,12.17,21.92,23.91C119.53,64.83,120,69.16,119.68,71.75Z" transform="translate(-44.36 -35.53)"/><path class="cls-1" d="M399.25,37c-10.34.84-17.84,6.63-24.24,14-14,16-22.58,34.41-23.95,55.85A40.74,40.74,0,0,0,353,122.38c3.44,10.28,11.4,14.37,21.7,11,7.87-2.58,13.34-8.28,17.65-15a99.75,99.75,0,0,0,16.15-62,22.14,22.14,0,0,0-1.65-7.18c-1.64-3.87-4-4.5-7.28-1.71s-5.17,6.18-7.12,9.73a59.12,59.12,0,0,0-5.64,13.64c-.57,2.19-1.62,2.29-3.36,1.37-2.87-1.51-4.52-4.31-3.49-7.6a34.5,34.5,0,0,1,20.13-22.17c4.12-1.76,7.53.13,9.9,4.07a29.51,29.51,0,0,1,3.77,13.76c1,16.75-1.31,33-9.11,48.07-5.93,11.5-14.14,21-25.76,26.9-9.27,4.7-19.08,6.45-28.33-.25-6.68-4.84-9.72-12-10.59-20-2.38-21.87,5-40.7,18.13-57.82,6.12-8,13.14-14.64,22.3-18.89C386.48,35.47,392.81,35.52,399.25,37Z" transform="translate(-44.36 -35.53)"/><path class="cls-1" d="M581.69,66c.47-1.9.73-4,2-5.76,1.92-2.69,4.37-2,6.4-.4s2.53.83,3-1.06c1.35-5.36,5.74-8.23,9.55-11.56a1.51,1.51,0,0,1,2.35.4c.79,1.36-.78,1.47-1.36,1.63-5.45,1.49-7.39,6.08-9.5,10.53-.54,1.15-.19,1.67,1.23,2,5.76,1.24,6.52,3.43,3.39,8.36a21.45,21.45,0,0,1-4.27,4.68,5.39,5.39,0,0,1-6.7.71C583.9,73.46,582.45,70.11,581.69,66Z" transform="translate(-44.36 -35.53)"/><path class="cls-1" d="M643.71,54.93a2.79,2.79,0,0,1,3.18,1.76c.64,1.36-.07,2.27-1,3.21-4.22,4.13-8.66,8-12.26,12.78-1.25,1.66-2,.64-2.4-.72a6.1,6.1,0,0,1,.5-4.87c2.24-4,4.73-7.84,8.36-10.86A5.06,5.06,0,0,1,643.71,54.93Z" transform="translate(-44.36 -35.53)"/></svg>