<svg width="41" height="42" viewBox="0 0 41 42" fill="none" xmlns="http://www.w3.org/2000/svg">
<path fill-rule="evenodd" clip-rule="evenodd" d="M21.7867 0.0254566L22.2716 0.127296V0.178216C22.2006 0.226638 22.0847 0.244362 21.9998 0.257337C21.9508 0.264828 21.9122 0.270736 21.8986 0.280055L22.0851 0.356435L22.3835 0.356435L22.7565 0.432812C22.8124 0.432812 22.9616 0.471002 23.1108 0.509192C23.26 0.547382 23.4092 0.585572 23.4652 0.585572C23.5025 0.611031 23.5025 0.611031 23.5398 0.611031L23.5771 0.636491C24.0993 0.71287 24.5469 0.865627 24.9199 1.04385L25.2929 1.14568C25.3638 1.19411 25.4797 1.2323 25.5646 1.26025C25.6136 1.27639 25.6522 1.28912 25.6659 1.29844L25.7778 1.37482C25.8897 1.40028 26.2627 1.50212 26.2627 1.62942L26.7476 1.90947C26.7476 1.93493 26.8595 2.06223 26.9714 2.08769L27.046 2.13861C27.062 2.14952 27.078 2.17446 27.0939 2.1994C27.1153 2.23266 27.1366 2.26591 27.1579 2.26591L27.6055 2.67327L27.8293 2.97878C27.9577 3.06647 27.9687 3.12584 27.9812 3.19346C27.9976 3.28292 28.0168 3.38682 28.3142 3.58981L28.3888 3.64073C28.4261 3.66619 28.4261 3.66619 28.4261 3.69165H28.4634C28.5007 3.69165 28.538 3.74257 28.538 3.81895L28.6126 3.92079C28.6345 3.93577 28.6629 3.99919 28.6997 4.08128C28.7879 4.27828 28.9242 4.58274 29.1348 4.58274H29.284C29.3959 4.58274 29.4332 4.6082 29.4332 4.65912L29.4705 4.76096C29.4854 4.79151 29.5003 4.83836 29.5152 4.8852C29.5376 4.95547 29.56 5.02574 29.5824 5.04102C29.5824 5.25141 29.6617 5.41367 29.7432 5.58045C29.8294 5.75676 29.9181 5.93811 29.9181 6.1867L29.9554 6.23762C30.03 6.28854 30.2165 7.12871 30.2165 7.25601V7.35785C30.2165 7.37058 30.2258 7.38967 30.2351 7.40877C30.2445 7.42786 30.2538 7.44696 30.2538 7.45969V7.58699L30.3657 7.66336C30.3657 7.7652 30.3657 8.07072 30.5149 8.17256V8.32532L30.5895 8.4017C30.6588 8.48055 30.6852 8.56916 30.7307 8.722C30.7586 8.81592 30.7938 8.93407 30.8506 9.08911L30.8879 9.24187C30.8879 9.34957 30.9288 9.44798 30.9611 9.52585C30.9823 9.57683 30.9998 9.619 30.9998 9.64922L30.9625 9.70014C30.9625 9.7256 30.9625 9.75106 30.9252 9.77652L30.9998 9.80198V10.4385C30.9998 10.4767 30.9718 10.6358 30.9438 10.7949C30.9159 10.954 30.8879 11.1132 30.8879 11.1513V11.4059C30.8879 11.4187 30.8786 11.4505 30.8692 11.4823C30.8599 11.5141 30.8506 11.546 30.8506 11.5587V12.1697C30.8506 12.1825 30.8226 12.2461 30.7946 12.3098C30.7667 12.3734 30.7387 12.4371 30.7387 12.4498V12.5812L36.0875 12.9305C36.0711 13.182 36.7993 13.4822 37.1185 13.503L37.5276 13.7824C37.634 13.7893 38.2394 14.3341 38.223 14.5856L38.6157 15.1165C38.7939 15.487 38.9667 15.5739 39.1052 15.6436C39.2592 15.7211 39.371 15.7773 39.4011 16.1782L39.8509 17.4707L39.8509 17.4707C39.9408 17.7292 39.9408 17.7292 40.0472 17.7361L40.4642 19.5316L40.6112 20.5517L40.4141 23.5702C40.3895 23.9475 40.3506 24.1344 40.3116 24.3214C40.2727 24.5083 40.2338 24.6952 40.2092 25.0725C40.1435 26.0787 40.217 26.5887 40.4133 26.8541L39.9135 29.6002C39.9053 29.726 39.8398 29.9112 39.7743 30.0964C39.7088 30.2816 39.6432 30.4667 39.635 30.5925L38.5868 33.5554C38.5551 34.0418 38.0167 34.81 37.5393 35.4911C37.276 35.8667 37.0313 36.2158 36.9003 36.4767L36.5483 36.9589C36.5129 36.9566 36.4328 37.0917 36.3261 37.2719C36.1126 37.6322 35.7924 38.1726 35.5087 38.1541L35.1567 38.6363C35.0339 38.8809 34.8047 39.1186 34.6983 39.1116L33.9044 39.8176C33.5524 40.2999 33.2168 40.5306 33.004 40.5167L31.359 41.1671C31.32 41.1646 31.2855 41.0946 31.2417 41.0059C31.1659 40.8523 31.0622 40.6425 30.8599 40.6293L29.1578 40.5181C28.877 40.4998 28.6463 40.6255 28.4285 40.7442C28.2337 40.8504 28.0492 40.951 27.8483 40.9378L26.3589 40.8406C26.1993 40.8302 25.9109 40.7482 25.6224 40.6662C25.334 40.5842 25.0455 40.5022 24.8859 40.4918L23.7157 40.4154C23.6625 40.4119 23.3393 40.4539 23.016 40.496C22.6927 40.538 22.3695 40.5801 22.3163 40.5766L14.9757 40.0972C14.9226 40.0938 14.5195 40.1306 14.1165 40.1674C13.7134 40.2043 13.3104 40.2411 13.2572 40.2376L12.938 40.2168C12.7784 40.2064 12.4552 40.2484 12.1319 40.2905C11.8087 40.3325 11.4854 40.3745 11.3258 40.3641L11.1131 40.3502C10.9107 40.337 10.488 40.4109 10.1785 40.4651C9.99986 40.4963 9.85895 40.521 9.82001 40.5184L8.95251 40.7144C8.75017 40.7012 8.32744 40.7751 8.01798 40.8292C7.83932 40.8605 7.69841 40.8851 7.65947 40.8826L3.19132 40.5908C3.08493 40.5838 3.08493 40.5838 2.99497 40.3253L2.56943 40.2976C2.20951 40.2741 1.99687 39.9061 1.77713 39.5259C1.54222 39.1194 1.29919 38.6989 0.859454 38.6702L0.695962 37.9017L0.573151 38.1463L0.401832 35.8616L0.418258 35.61L0.344727 35.1L0.500389 34.3523L0.410431 34.0938L0.566093 33.3461C0.582519 33.0946 0.598945 32.8431 0.508987 32.5846L1.23019 28.0846L1.50867 27.0923L1.69718 25.8416C1.71361 25.59 1.73004 25.3385 1.62365 25.3316L1.77931 24.5839C1.68935 24.3254 1.68935 24.3254 1.70578 24.0739L1.77148 23.0677L1.69795 22.5576C1.70617 22.4319 1.74919 22.1821 1.81372 21.8074C1.87825 21.4327 1.9643 20.933 2.05856 20.3077L2.46844 17.3031L3.22173 15.584C3.22962 15.4632 3.23372 15.4004 3.24945 15.3407C3.26648 15.276 3.29713 15.215 3.36096 15.0878L4.17136 14.1303C4.75614 13.0981 5.03481 13.1566 5.2454 13.2009C5.38271 13.2297 5.49108 13.2525 5.63649 12.9629L6.06203 12.9907C6.39761 12.76 7.3715 12.571 7.47788 12.5779L8.34538 12.3819C8.4935 12.3916 8.62578 12.2914 8.76756 12.1841C8.93128 12.0601 9.10765 11.9265 9.3357 11.9414L10.0902 11.9907C10.0911 11.9867 10.0921 11.9828 10.0931 11.9788C10.1024 11.9406 10.1117 11.9024 10.1117 11.8897L10.1863 11.7369V11.2786C10.1863 11.1412 10.2132 11.0862 10.2346 11.0422C10.249 11.0128 10.2609 10.9884 10.2609 10.9477C10.2609 10.9349 10.2423 10.8713 10.2236 10.8076C10.205 10.744 10.1863 10.6803 10.1863 10.6676L10.2609 10.4385C10.2609 10.4003 10.2702 10.3303 10.2796 10.2603C10.2889 10.1902 10.2982 10.1202 10.2982 10.082V9.52192C10.2982 9.50919 10.2889 9.44554 10.2796 9.38189C10.2702 9.31825 10.2609 9.2546 10.2609 9.24187V9.01273C10.2609 8.88543 10.2609 8.80905 10.2982 8.78359L10.3355 8.73267C10.3728 8.70722 10.3728 8.70721 10.3728 8.68175L10.4101 7.94342C10.4474 7.91796 10.4474 7.91796 10.4474 7.8925V7.12871C10.4847 7.10325 10.4847 7.10325 10.4847 7.07779L10.4474 6.4413C10.4474 6.39288 10.4174 6.23189 10.3955 6.11405C10.3828 6.04601 10.3728 5.99235 10.3728 5.98303V5.75389C10.3728 5.62757 10.4302 5.50125 10.4738 5.40529C10.5005 5.34654 10.522 5.29916 10.522 5.27016L10.6339 5.21924V4.9901L10.9696 4.55728L10.9323 4.50636C10.9323 4.49658 10.9323 4.49055 10.9344 4.4854C10.9378 4.47714 10.9466 4.47112 10.9696 4.45545L11.0815 4.37907C11.0815 4.30269 11.2307 4.14993 11.268 4.12447L11.3053 4.04809C11.3283 4.03242 11.3371 4.02639 11.3405 4.01813C11.3426 4.01298 11.3426 4.00696 11.3426 3.99717L11.4172 3.94625C11.4545 3.92079 11.4545 3.92079 11.4545 3.89533V3.86987C11.4545 3.84441 11.4545 3.84441 11.4918 3.81895L11.5664 3.76803C11.6037 3.74257 11.6037 3.74257 11.6037 3.71711L11.641 3.69165C11.7902 3.58982 11.9021 3.48798 11.9394 3.38614L12.2005 3.23338C12.2378 3.157 12.4616 3.00424 12.4989 2.97878L12.8719 2.72419C12.9092 2.72419 13.1703 2.59689 13.1703 2.57143L13.9536 2.03677V1.93494L14.1774 1.75672C14.2147 1.75672 14.2147 1.75672 14.252 1.78218H14.4758L14.8488 1.52758L14.5877 1.4512V1.40028H14.8115C14.8115 1.37482 14.8115 1.37482 14.7742 1.34936L15.0353 1.22206C15.0726 1.22206 15.2218 1.17115 15.2218 1.14569C15.3337 1.14569 15.371 1.14569 15.371 1.12023L15.5948 0.942008C15.7067 0.865629 15.9678 0.763789 16.3781 0.68741L16.7511 0.611032C16.9003 0.611032 17.4971 0.534653 17.7582 0.356435L17.9074 0.356435C17.9074 0.254597 18.9518 0.101836 19.101 0.101836L19.2502 0.101836C19.2639 0.101836 19.3375 0.088193 19.4309 0.0708937C19.5925 0.0409305 19.8134 0 19.8843 0H21.3018H21.3019C21.6002 0 21.7494 0 21.7867 0.0254566ZM16.3035 12.3905C16.7252 12.4004 17.1789 12.3752 17.6215 12.3506C18.1281 12.3224 18.6201 12.2951 19.0331 12.322L20.948 12.4471L23.9082 12.4073C23.911 12.3849 23.9128 12.3646 23.9128 12.3479V12.2461C23.9128 12.2079 23.9221 12.0424 23.9314 11.8769C23.9407 11.7115 23.9501 11.546 23.9501 11.5078V10.8713C23.9501 10.7852 23.9414 10.6812 23.9324 10.5737C23.9227 10.4589 23.9128 10.34 23.9128 10.2348L23.9128 9.87836C23.9128 9.66318 23.8687 9.35782 23.8483 9.21634C23.8422 9.17368 23.8382 9.14592 23.8382 9.14003L23.7636 8.68175C23.7636 8.65629 23.7636 8.63083 23.7263 8.60537V8.529C23.7263 8.4017 23.689 8.17256 23.6517 8.1471L23.5771 8.07072V7.73974L23.5025 7.66336C23.5025 7.43855 23.3789 7.2584 23.2408 7.05717C23.0661 6.80265 22.8684 6.51441 22.8684 6.0594L22.7938 5.95757C22.7819 5.93322 22.7472 5.89853 22.7056 5.85679C22.6165 5.76758 22.4954 5.64617 22.4954 5.52475L22.4581 5.42291C22.4581 5.35926 22.4114 5.31471 22.3648 5.27015C22.3182 5.2256 22.2716 5.18105 22.2716 5.1174L22.197 5.04102C22.189 5.0356 22.1676 5.01982 22.1384 4.99832C22.0303 4.91877 21.816 4.76096 21.7867 4.76096L21.6748 4.71004C21.4052 4.71004 21.2805 4.64412 21.195 4.59888C21.1503 4.57526 21.1163 4.55728 21.078 4.55728L20.4065 4.53182C20.2014 4.53182 20.0149 4.57638 19.8284 4.62093C19.6419 4.66549 19.4554 4.71004 19.2502 4.71004L18.728 4.88826H18.6161L17.7955 5.37199C17.736 5.52106 17.4545 5.72785 17.2042 5.9117C16.9843 6.07325 16.7884 6.2171 16.7884 6.28854V6.33946C16.7884 6.36492 16.7884 6.36492 16.7511 6.39038L16.6765 6.4413C16.6765 6.45403 16.6486 6.51768 16.6206 6.58133C16.5926 6.64498 16.5646 6.70863 16.5646 6.72136L16.49 6.84866C16.49 6.86139 16.4714 6.88048 16.4527 6.89957C16.4341 6.91867 16.4154 6.93776 16.4154 6.95049L16.3781 7.20509C16.3781 7.21782 16.3688 7.26874 16.3595 7.31966C16.3502 7.37058 16.3408 7.4215 16.3408 7.43423L16.3035 7.81612L16.2289 7.86704C16.2662 7.8925 16.3035 7.94342 16.3035 7.96888V8.19802C16.3035 8.22348 16.2662 8.2744 16.2289 8.29986L16.1916 9.471C16.1916 9.48373 16.201 9.54738 16.2103 9.61103C16.2196 9.67468 16.2289 9.73833 16.2289 9.75106V10.133C16.2289 10.2191 16.2464 10.6918 16.2644 11.1803C16.2836 11.7025 16.3035 12.2427 16.3035 12.3479V12.3905ZM18.244 1.21778C18.3448 1.20001 18.4525 1.18103 18.5042 1.14569L18.8026 1.06931C18.8399 1.04385 18.8772 1.01839 18.8772 0.992926V0.916548L18.6534 0.916548L18.728 0.942008C18.728 0.967468 18.6907 0.992926 18.6534 0.992926H18.6161C18.5788 0.992926 18.1685 1.01839 18.0566 1.04385L17.9074 1.06931C17.808 1.06931 17.6422 1.10325 17.5317 1.12588C17.4764 1.1372 17.435 1.14569 17.4225 1.14569L17.3479 1.1966C17.3343 1.1966 17.3056 1.20343 17.2693 1.21208C17.2064 1.22706 17.1205 1.24752 17.0495 1.24752H16.9749C16.9376 1.24752 16.9003 1.24752 16.9003 1.27298L16.6765 1.29844C16.6392 1.3239 16.4154 1.40028 16.3781 1.40028L16.3035 1.47666L16.5646 1.4512V1.52758L16.5273 1.50212L16.3408 1.65488C16.3035 1.68034 16.3035 1.68034 16.3035 1.7058L16.3781 1.73126C16.3968 1.73126 16.4248 1.72489 16.4527 1.71853C16.4807 1.71216 16.5087 1.7058 16.5273 1.7058H16.6019C16.6392 1.68034 16.7138 1.65488 16.7511 1.65488L16.8257 1.5785C16.863 1.55304 16.9376 1.52758 17.1241 1.50212H17.1614L17.1241 1.52758C17.0868 1.52758 17.0495 1.55304 16.9749 1.60396L16.9003 1.65488C16.8484 1.69033 16.7322 1.72029 16.6076 1.75241C16.4638 1.78949 16.3089 1.82944 16.2289 1.88402L16.1916 1.93494H16.3408C16.4403 1.93494 16.5066 1.9123 16.5508 1.89722C16.5729 1.88967 16.5895 1.88402 16.6019 1.88402L16.9749 1.80764L16.8257 1.75672C16.8257 1.68034 16.9003 1.65488 17.0868 1.65488C17.1241 1.65488 17.1614 1.68034 17.1987 1.7058C17.1987 1.65488 17.236 1.62942 17.2733 1.62942V1.5785L17.7955 1.4512C17.8076 1.44296 17.8471 1.43205 17.8961 1.41847C17.9987 1.3901 18.1433 1.35009 18.1685 1.29844H18.0193C18.0193 1.2574 18.127 1.23842 18.244 1.21778ZM15.371 1.29844V1.37482L15.5575 1.3239C15.5948 1.29844 15.6321 1.29844 15.6694 1.29844L16.3035 1.09477C16.3035 1.08204 16.3315 1.06294 16.3595 1.04385C16.3875 1.02475 16.4154 1.00566 16.4154 0.992926H16.1916C16.1357 0.992926 16.0145 1.03112 15.8932 1.06931C15.772 1.1075 15.6508 1.14569 15.5948 1.14569L15.5575 1.19661H15.4456L15.4083 1.24752C15.4083 1.27298 15.4083 1.27298 15.371 1.29844ZM20.118 3.48881C20.3255 3.45566 20.4931 3.42887 20.5557 3.38614H19.9589C19.9403 3.38614 19.8843 3.37977 19.8284 3.37341C19.7724 3.36704 19.7165 3.36068 19.6978 3.36068L19.5113 3.43706L19.6232 3.46252C19.6096 3.46252 19.5859 3.46934 19.556 3.47799C19.504 3.49297 19.4331 3.51344 19.3621 3.51344V3.61527C19.2502 3.61527 19.2129 3.64073 19.2129 3.69165L19.3248 3.64073L19.3621 3.61527C19.3994 3.58981 19.3994 3.58981 19.4367 3.58981H19.5859C19.7667 3.54495 19.9547 3.51491 20.118 3.48881ZM21.5256 0.254595L21.7867 0.254595L21.7121 0.178216H21.6748C21.6375 0.178216 21.6375 0.178216 21.6002 0.15276L21.6002 0.152756L21.451 0.127296C21.4137 0.101836 21.3764 0.101836 21.3018 0.101836L20.9661 0.101836C20.8915 0.101836 20.8542 0.101837 20.8542 0.127296L20.8169 0.178216C20.8169 0.203676 20.9661 0.254596 21.0034 0.254596L21.1526 0.178216L21.4137 0.178216L21.5256 0.254595ZM13.9909 3.00424L14.1028 3.0297C14.1774 2.97878 14.2147 2.95332 14.252 2.95332L14.3266 2.9024H14.5131L14.5877 2.82602C14.625 2.80057 14.625 2.7751 14.625 2.74964V2.67327H14.5131L13.9909 3.00424ZM13.3195 3.48798C13.2822 3.51344 13.2822 3.5389 13.2822 3.58981L13.3568 3.5389C13.3941 3.51344 13.3941 3.51344 13.3941 3.48798L13.5433 3.36068C13.6552 3.36068 13.7298 3.33522 13.7298 3.2843L13.9163 3.13154C13.9536 3.10608 13.9536 3.10608 13.9536 3.08062H13.9163C13.879 3.08062 13.6552 3.20792 13.5433 3.2843L13.3195 3.48798ZM16.6019 1.98585C16.6392 1.98585 16.6392 1.98585 16.6765 2.01131L16.5646 2.08769L16.7511 2.06223C16.8221 2.01381 16.968 1.98586 17.0748 1.96539C17.1364 1.95357 17.1851 1.94425 17.1987 1.93494H16.5646L16.6019 1.98585ZM13.9163 3.58981H14.1401L14.1774 3.51344C14.2147 3.48798 14.2147 3.48798 14.2147 3.46252V3.4116C14.0282 3.4116 13.9536 3.46252 13.9163 3.58981ZM13.6179 3.86987L13.3568 4.07355L13.4314 4.02263C13.4687 3.99717 13.4687 3.99717 13.506 3.99717L13.6552 3.97171L13.8044 3.79349L13.6552 3.81895C13.6552 3.84441 13.6552 3.84441 13.6179 3.86987ZM14.3266 3.69165C14.3266 3.66619 14.3266 3.66619 14.3639 3.64073H14.3266C14.2147 3.64073 14.1401 3.6662 14.1401 3.74257V3.76803L14.3266 3.74257V3.69165ZM18.5042 3.10608H18.5788L18.8399 3.0297C18.8772 3.00424 18.9145 3.00424 18.9891 3.00424L19.0637 2.95332L18.9145 2.97878C18.8436 3.02721 18.7127 3.05516 18.6169 3.07563C18.5615 3.08744 18.5179 3.09676 18.5042 3.10608ZM19.474 2.78783C19.5207 2.78147 19.5673 2.7751 19.5859 2.7751L19.6605 2.72418L19.6232 2.69872C19.6062 2.69872 19.597 2.69872 19.5884 2.70114C19.5782 2.70402 19.5689 2.71034 19.5486 2.72418L19.3621 2.80056C19.3808 2.80056 19.4274 2.7942 19.474 2.78783ZM13.3941 4.37907H13.4687L13.3195 4.32815L13.1703 4.53182L13.3195 4.40453C13.3568 4.37907 13.3568 4.37907 13.3941 4.37907ZM12.76 5.09194H12.7973C12.8719 5.01556 12.9092 4.96464 12.9092 4.93918V4.88826L12.76 5.09194ZM22.7938 0.178216L22.9057 0.254595H22.7565L22.7192 0.229136L22.7938 0.178216ZM19.9216 3.18246H20.0335L19.9589 3.13154L19.847 3.157C19.847 3.18246 19.847 3.18246 19.8097 3.20792H19.847C19.8843 3.18246 19.8843 3.18246 19.9216 3.18246ZM16.1916 2.08769V2.11315L16.3408 2.03677V2.01131C16.2289 2.01131 16.1916 2.03677 16.1916 2.08769ZM19.8843 0.229136L20.0335 0.229136L19.9589 0.178216H19.847L19.8843 0.229136ZM14.5131 3.86987C14.4758 3.86987 14.4385 3.86987 14.4012 3.89533C14.4385 3.89533 14.4758 3.89533 14.5131 3.92079C14.5301 3.92079 14.5394 3.92079 14.548 3.91838C14.5582 3.91549 14.5674 3.90918 14.5877 3.89533C14.5877 3.86987 14.5504 3.86987 14.5131 3.86987H14.5131H14.5131ZM14.9607 3.08062L15.0353 3.10608L15.1099 3.08062C15.1099 3.05516 15.0726 3.05516 15.0353 3.05516C14.998 3.05516 14.9607 3.05516 14.9607 3.08062ZM13.9909 3.84441L14.1774 3.84441L13.9909 3.79349V3.84441ZM18.3923 3.157L18.4296 3.20792L18.5042 3.157V3.13154L18.3923 3.157ZM13.506 4.09901L13.5433 4.14993L13.6179 4.09901V4.07355L13.506 4.09901ZM14.5877 1.5785L14.4012 1.65488L14.4758 1.5785H14.5877ZM14.625 2.59689C14.625 2.62235 14.6623 2.64781 14.6996 2.64781V2.57143C14.6623 2.57143 14.6623 2.57143 14.625 2.59689ZM14.625 3.81895C14.625 3.84441 14.6623 3.86987 14.6996 3.86987V3.79349C14.6623 3.79349 14.6623 3.79349 14.625 3.81895ZM13.0584 4.22631C13.0584 4.25177 13.0957 4.27723 13.133 4.27723V4.20085C13.116 4.20085 13.1068 4.20085 13.0982 4.20326C13.088 4.20614 13.0787 4.21246 13.0584 4.22631ZM14.3639 3.2843H14.5131L14.4012 3.23338L14.3639 3.2843ZM14.4012 3.48798H14.4758L14.5131 3.38614L14.4012 3.48798ZM13.5806 4.4809C13.5433 4.4809 13.5433 4.50636 13.5433 4.53182H13.6552L13.5806 4.4809ZM13.879 3.94625V4.02263H13.9536L13.9163 3.97171L13.879 3.94625ZM18.5042 2.59689V2.67327L18.5788 2.62235L18.5042 2.59689ZM13.0211 4.68458L12.9465 4.76096L13.0584 4.71004L13.0211 4.68458ZM15.1099 2.97878H14.9607L15.0726 3.00424L15.1099 2.97878ZM17.4225 1.24752L17.1614 1.29844L17.236 1.27298L17.4225 1.24752ZM19.7351 3.43706L19.8097 3.4116L19.847 3.43706H19.7351ZM15.8932 1.62942C15.8932 1.60396 15.8932 1.5785 15.9305 1.5785L15.8932 1.62942ZM12.9465 4.40453C12.9838 4.37907 12.9838 4.37907 13.0211 4.37907L12.9465 4.40453Z" fill="#110042"/>
</svg>
