<svg width="28" height="36" fill="none" xmlns="http://www.w3.org/2000/svg"><path d="M16.373 35.816l4.271.184c.237-.046.475-.046.712-.046l.712.046.237-.046.712.046.474-.046h.238l2.135-.138-.237-.046.712-.092c0-.367 1.424-.46 1.424-.78v-.184c.237-.046.237-.046.237-.092v-1.93c0-.046-.237-.414-.237-.551l-.238-.368c0-.046-.237-.413-.237-.551v-.092c0-.138-.237-.552-.237-.69v-.137c0-.046-.237-.69-.237-.735v-3.17c0-.047-.238-.552-.238-.598v-.505c0-.138.238-.506.238-.644v-.643c0-.184-.475-.322-.475-.551v-.735c0-.138.475-.184.475-.23l-.712-.69c0-.091-.238-.229-.712-.367l-.712-.322c0-.045-.237-.137-.475-.183l-.474-.138c0-.184-1.187-.368-1.187-.414l-.474-.137c-.712-.138-2.136-.644-2.848-.644l-2.847-.367c-.237 0-.712-.092-.95-.092L12.814 19c-.237.092-.711.138-1.66.138-.712 0-.712-.046-1.424-.046H6.88l-.949.092-1.66.23c0 .045 0 .045-.238.091l-1.187.23c-.711.046-.237.184-.949.368l-.474.183c-.238 0-.712.276-.712.322l-.237.184c0 .138-.238.46-.475.46v3.675c0 .413.237 1.057.237 1.47l.238 1.379v.827c0 .367.237.873.237 1.286v2.895c0 .184.474.276.474.413l.238.368c0 .046.237.46.474.597v.184c.712.138-.474.23 1.187.597l.949.322c.237.046.237.046.474.046l1.661.276 2.848.091c1.186.046 1.898.092 2.136.092l.474-.046h.95c.237 0 .237 0 .474-.046l.712.046c0-.046.237-.046.474-.046l1.187.046.949.092z" fill="#110042"/><path fill-rule="evenodd" clip-rule="evenodd" d="M19.564 3.278v.024l-.073-.049h.194v.025c.033 0 .057-.009.073-.025h-.073c-.016-.016-.024-.048-.024-.097l-.17-.024-.024.097-.22-.267-.096-.049-.098-.146a2.903 2.903 0 01-.218-.17c-.081-.097-.122-.154-.122-.17l-.17-.097a.586.586 0 01-.194-.073 3.026 3.026 0 00-.17-.097v-.073a.264.264 0 00.097.048c.049 0 .081.009.097.025l.024-.049a.426.426 0 01-.121-.048.562.562 0 01-.122-.073l-.024-.025c-.016 0-.024-.024-.024-.073a.165.165 0 01-.122-.048l-.121-.122a.4.4 0 01-.122-.024.187.187 0 00-.072-.024l-.025-.024c-.032 0-.113-.025-.243-.073a6.11 6.11 0 00-.218-.122l-.316-.17a.334.334 0 00-.17-.073c-.065-.016-.106-.032-.122-.048l-.097-.025c-.065 0-.106-.008-.122-.024l-.097-.049c-.032 0-.089-.008-.17-.024a1.212 1.212 0 00-.146-.024h-.048c-.13 0-.227-.008-.292-.025a.896.896 0 01-.219-.17c-.34 0-.583-.016-.729-.048a4.67 4.67 0 01-.34-.097A2.522 2.522 0 0014 .58c-.13-.032-.364-.048-.704-.048h-.098c-.502 0-.874.016-1.117.048a2.196 2.196 0 00-.535.122.788.788 0 00-.219.121c-.032.033-.097.049-.194.049a2.61 2.61 0 00-.729.389c-.194.162-.373.243-.535.243l-.048.048c-.016.016-.033.025-.049.025l-.364.243c-.097 0-.219.056-.365.17-.13.113-.227.202-.291.267L7.463 3.545a3.332 3.332 0 01-.243.364c-.114.162-.21.284-.292.365l-.097.146c-.016.016-.024.032-.024.048l-.049.049c-.162.162-.283.34-.364.534-.065.195-.13.292-.195.292l-.121.219c0 .032-.025.048-.073.048a13.058 13.058 0 01-.316.705l-.17.267c0 .016-.016.04-.049.073a.186.186 0 00-.024.073l-.049.097a.943.943 0 00-.048.122.264.264 0 01-.049.097v.024c-.016.016-.024.033-.024.049l-.049.146c0 .016-.024.08-.073.194a1.608 1.608 0 01-.072.219l-.025.17c0 .016-.008.032-.024.048l-.097.243c0 .033-.016.138-.049.316-.032.162-.048.26-.048.292l-.025.073c-.016.016-.032.065-.048.146v.267a.27.27 0 01.024.121c0 .098-.008.21-.024.34v.414c0 .178.008.348.024.51.016.162.065.308.146.437l.048.049c0 .048.017.178.049.389.049.194.105.324.17.388l.049.17c0 .05.016.09.048.122.049.016.073.09.073.219l.122.194c0 .033.008.09.024.17a.56.56 0 00.073.146v.049c0 .016.008.032.024.048 0 .016.008.065.024.146a.562.562 0 00.073.121l.195.462c.016.016.024.04.024.073v.073l.024.024.195.39c.08.177.162.315.243.412a.484.484 0 01.121.316l.17.17c0 .016.025.049.073.097l.073.122c0 .048.04.121.122.218a.778.778 0 00.17.17l.097.098c0 .016.008.032.024.048l.68.656.608.34c.016 0 .049.009.097.025a.398.398 0 00.097.024l.486.195c0-.017.098.024.292.121.194.081.364.122.51.122l.462.097c.194.032.332.065.413.097.097.032.3.049.607.049h.365c.081 0 .178-.009.292-.025.13 0 .21-.016.243-.048h.145c.033.016.13.024.292.024.178.016.283.024.316.024h.17c.032 0 .113-.008.243-.024a.71.71 0 00.243-.024h.073a.27.27 0 00.121.024c.081 0 .203-.016.365-.049a2.59 2.59 0 00.486-.097 3.4 3.4 0 00.486-.17c.162-.065.283-.137.364-.218l.462-.243a.769.769 0 00.17-.073c.113-.065.194-.114.243-.146h.024c.033 0 .073-.024.122-.073.065-.049.113-.073.146-.073l.097-.073a.565.565 0 01.146-.097v-.049a.66.66 0 00.316-.218c.097-.114.178-.17.243-.17l.048-.073c.033 0 .097-.033.195-.098.097-.064.137-.089.121-.073l.073-.072c.016 0 .113-.073.291-.22a3.44 3.44 0 00.486-.485l.049-.122c.049 0 .122-.105.219-.315.097-.211.21-.381.34-.51l.097-.317c.016-.016.024-.04.024-.072a.264.264 0 01.049-.098l.024-.048a.73.73 0 01.025-.122c.016-.065.032-.105.048-.121v-.098c.016 0 .033-.008.049-.024l.024-.024c0-.081.016-.138.049-.17l.121-.268v-.097l.049-.048c.016-.017.024-.04.024-.073l.073-.17a.68.68 0 01.097-.34c.065-.114.09-.162.073-.146l.073-.073c.016 0 .024-.024.024-.073 0-.065.008-.113.025-.146l.267-.753c.016-.016.024-.057.024-.122.016-.08.033-.13.049-.145v-.073c0-.017.008-.033.024-.049a.216.216 0 00.024-.097l-.024-.34a7.63 7.63 0 01.097-.316c.033-.097.049-.154.049-.17l.073-.34-.073.048v-.194a.264.264 0 01.048-.097v-.122c0-.097.009-.154.025-.17v-.146c0-.13.016-.235.048-.316a.556.556 0 00.073-.291l-.073.024-.048-.049c-.016-.016-.024-.032-.024-.048l.048-.073c.016-.016.024-.04.024-.073V7.36c.017-.016.025-.04.025-.073V7.19c0-.033.008-.049.024-.049v-.073c0-.032.008-.056.024-.073l.025.365c-.017.016-.025.04-.025.073l.025.097c.016-.016.024-.033.024-.049s.008-.032.024-.048v-.365l-.048-.146c0-.048-.008-.137-.025-.267a3.825 3.825 0 01-.024-.219v-.072c-.081-.227-.122-.39-.122-.486a.372.372 0 00-.121-.268l-.122-.097a.165.165 0 00-.048-.121l-.024-.268.048-.073-.024-.048c0-.081-.016-.138-.049-.17l-.145-.146v.121l-.073-.073c0-.032-.04-.113-.122-.243l-.17-.34-.049-.097a.187.187 0 00-.024-.073V3.91l-.121-.145a.846.846 0 01-.195-.268 1.681 1.681 0 00-.048-.194l-.146-.024zm-1.312 5.514l.024-.12c0-.032.016-.065.049-.097v-.097l-.049-.049.049-.073c-.033 0-.049-.016-.049-.049 0-.032.016-.048.049-.048v.073l.024-.025c0-.016.008-.032.024-.048l-.048-.024v-.122l-.049-.024.049-.122-.073-.054v.879zm0-1.258a.089.089 0 01.024-.004h.073l-.073-.097c-.014 0-.023-.02-.024-.058v.159zm1.506 2.912c-.048 0-.073-.049-.073-.146v-.292c-.016-.016-.032-.024-.048-.024l-.025-.048h.073v-.05c-.016-.015-.032-.023-.048-.023l-.025-.025c0-.048.017-.089.049-.121l.024.073.025-.025c.048-.048.072-.097.072-.145a.216.216 0 00-.024-.098V9.45l.049-.073c0-.017.008-.033.024-.049h.024v.073c.017.016.025.032.025.049l.073.097-.025.048-.048-.048v.073l.048-.025-.048.098v.145c-.017.017-.025.049-.025.098l-.024.34c0 .113-.024.17-.073.17zm-1.02-.826l-.025-.098-.097-.121-.073.049-.048-.098.048-.097c-.032 0-.048-.008-.048-.024l-.073-.024.048-.292v.049c0 .016.008.032.025.048v.049c0 .048.016.073.048.073v-.122h.049v.122c0 .032-.016.048-.049.048.016.016.033.025.049.025h.073l.097-.073v.534c-.016-.016-.024-.032-.024-.048zm1.458 1.433c-.017-.016-.025-.032-.025-.048v-.049l-.024-.073.024-.048v-.073a.398.398 0 00.025-.098l.072-.048.025.097c0 .033.016.049.048.049.033 0 .065-.017.098-.049 0 .081-.017.138-.049.17v.097c-.016 0-.032.008-.049.025l-.097.073-.048-.025zm-.22-.218l.025.072h-.097v-.145h-.049v-.098c0-.016.008-.032.025-.048l.121.097c0 .033-.008.057-.024.073v.049zm-3.45 3.912c.017 0 .057-.025.122-.073h.316c-.13.016-.219.048-.267.097-.05.032-.081.049-.098.049l-.073.024v-.097zm2.868-4.714c.032.048.048.089.048.121l-.073-.024-.024-.073h-.073l.049-.097c0-.065.008-.105.024-.122v.073c0 .033.016.073.049.122zm.899-3.086v-.122h.097v.17h-.073c0-.016-.008-.032-.024-.048zm-3.84 7.678l-.072.097-.049.025-.122.073.05-.098a.264.264 0 01.096-.048c.049-.033.081-.049.097-.049zM20.39 7.92v-.316h.049l-.049.316zm-.364 3.086c0 .08-.025.121-.073.121v-.121h.073zM20 8.793l-.121.05V8.72c.032 0 .048.024.048.072h.073zm-1.53-.291c-.017.016-.033.024-.05.024V8.43h.074l-.025.073zM20 10.446c-.032 0-.048-.008-.048-.024v-.025c.032 0 .048-.008.048-.024v.073zm-.048-.097c.032 0 .048.008.048.024l-.048.024v-.048zm.486-.365c0 .033-.017.049-.049.049v-.146l.049.097zm.17-4.981c-.033 0-.049-.008-.049-.025v-.024c.033 0 .049-.008.049-.024v.073zm-.049-.097c.033 0 .049.008.049.024l-.049.024v-.048zm.462 3.742c0 .048.008.073.024.073.016-.017.024-.033.024-.049l-.024-.073c-.016 0-.024.016-.024.049zm-1.482.413c0-.049.024-.073.072-.073l-.072.121v-.048zm.753.972l-.049.146v-.025l-.024-.024c0-.016.016-.04.049-.073l.024-.024zm.146.048l-.049.146v-.146h.049zm-2.114-2.478v-.025l.048-.048.024.048-.072.025zm1.822 2.138c-.016.016-.032.024-.049.024v-.072c.033 0 .049.016.049.048zm-1.822-2.017c-.017.016-.033.025-.049.025v-.073c.032 0 .049.016.049.048zm.34.438c-.017.016-.033.024-.049.024v-.073c.032 0 .049.016.049.049zm.777 2.114c-.016.016-.032.024-.048.024v-.073c.032 0 .048.016.048.049zm.316-.9c-.016.017-.032.025-.048.025v-.073c.032 0 .048.016.048.049zm.146-.315l-.024.048-.025-.097h.025c.016.016.024.033.024.049zm.51-1.555c0 .032-.008.048-.024.048v-.121c.016.016.024.04.024.073zM19.272 9.4h-.024v-.17l.024.17zm.73.729h.072v.048l-.073-.048zm.388-2.041l-.049-.025.049-.048v.073zm0 .097l-.049-.024.049-.049v.073zm-2.065-1.58c-.033 0-.049-.008-.049-.024l.049-.024v.049zm2.09.73c-.017-.017-.025-.033-.025-.05.032 0 .049.017.049.05l-.025.024v-.025zm-2.066-.073c-.016-.017-.024-.033-.024-.049.032 0 .048.016.048.049l-.024.024v-.024zm1.433.704c-.016-.016-.024-.032-.024-.048.033 0 .049.016.049.048l-.024.025v-.025zm.316 1.458h-.024v-.121l.024.121zM18.665 8.6c0 .016-.017.024-.049.024v-.048l.049.024zm-2.066 6.172c.033 0 .049-.008.049-.024l-.049-.025v.049zm3.11-5.321v.121l-.024-.049.025-.072zm-1.093-.754v.097l-.024-.048.024-.049zm-.146-.389c.017 0 .025-.016.025-.048l-.025.048zm.195-.048c0-.016-.017-.024-.049-.024l.049.024z" fill="#110042"/></svg>