<svg width="299" height="300" viewBox="0 0 299 300" fill="none" xmlns="http://www.w3.org/2000/svg">
<path fill-rule="evenodd" clip-rule="evenodd" d="M217.687 179.775C213.962 177.913 195.7 168.938 192.3 167.688C188.9 166.45 186.425 165.838 183.937 169.563C181.462 173.263 174.35 181.638 172.187 184.113C170.012 186.6 167.85 186.9 164.137 185.05C160.425 183.175 148.45 179.263 134.262 166.613C123.225 156.763 115.762 144.601 113.6 140.876C111.437 137.163 113.362 135.15 115.225 133.3C116.9 131.638 118.937 128.963 120.8 126.801C122.662 124.626 123.275 123.076 124.512 120.588C125.762 118.113 125.137 115.951 124.2 114.088C123.275 112.226 115.85 93.938 112.75 86.5005C109.737 79.263 106.675 80.2505 104.4 80.1255C102.225 80.0255 99.75 80.0005 97.275 80.0005C94.8 80.0005 90.775 80.9255 87.375 84.6505C83.9625 88.363 74.375 97.3505 74.375 115.638C74.375 133.913 87.675 151.575 89.5375 154.063C91.4 156.538 115.725 194.063 152.987 210.15C161.862 213.975 168.775 216.263 174.162 217.963C183.062 220.8 191.162 220.4 197.562 219.438C204.687 218.375 219.537 210.45 222.637 201.775C225.725 193.1 225.725 185.663 224.8 184.113C223.875 182.563 221.4 181.638 217.675 179.775H217.687ZM149.912 272.313H149.862C127.73 272.317 106.005 266.367 86.9625 255.088L82.4625 252.413L35.6875 264.688L48.175 219.088L45.2375 214.413C32.8642 194.717 26.3162 171.923 26.35 148.663C26.375 80.538 81.8 25.113 149.962 25.113C182.962 25.113 213.987 37.988 237.312 61.338C248.817 72.7953 257.936 86.4201 264.141 101.424C270.346 116.428 273.514 132.514 273.462 148.75C273.437 216.875 218.012 272.313 149.912 272.313V272.313ZM255.062 43.6005C241.29 29.7371 224.903 18.7447 206.851 11.2605C188.799 3.77631 169.442 -0.0509531 149.9 0.000512219C67.975 0.000512219 1.275 66.688 1.25 148.651C1.2375 174.851 8.075 200.425 21.0875 222.963L0 300L78.8 279.325C100.598 291.202 125.026 297.425 149.85 297.425H149.912C231.837 297.425 298.537 230.738 298.562 148.763C298.623 129.229 294.809 109.877 287.343 91.8259C279.876 73.7751 268.905 57.3839 255.062 43.6005" fill="black"/>
</svg>
