<svg width="92" height="55" viewBox="0 0 92 55" fill="none" xmlns="http://www.w3.org/2000/svg">
<path d="M27.8406 54C42.3657 54 54.1406 42.2251 54.1406 27.7C54.1406 13.1748 42.3657 1.3999 27.8406 1.3999C13.3155 1.3999 1.54053 13.1748 1.54053 27.7C1.54053 42.2251 13.3155 54 27.8406 54Z" fill="white" stroke="#4A25AA" stroke-width="1.19005" stroke-miterlimit="10" stroke-linecap="round"/>
<path d="M22.9614 1.87573V53.6428C10.7039 51.3817 1.54053 40.6713 1.54053 27.8188C1.54053 14.9663 10.8229 4.13682 22.9614 1.87573Z" fill="white" stroke="#4A25AA" stroke-width="1.19005" stroke-miterlimit="10" stroke-linecap="round"/>
<path d="M11.656 7.1123V48.2879" stroke="#4A25AA" stroke-width="1.19005" stroke-miterlimit="10" stroke-linecap="round"/>
<path d="M65.0891 54C79.6142 54 91.3891 42.2251 91.3891 27.7C91.3891 13.1748 79.6142 1.3999 65.0891 1.3999C50.564 1.3999 38.7891 13.1748 38.7891 27.7C38.7891 42.2251 50.564 54 65.0891 54Z" fill="white" stroke="#4A25AA" stroke-width="1.19005" stroke-miterlimit="10" stroke-linecap="round"/>
<path d="M69.9683 53.5241V1.75708C82.2257 4.01817 91.3891 14.7286 91.3891 27.5811C91.3891 40.4336 82.1067 51.263 69.9683 53.5241Z" fill="white" stroke="#4A25AA" stroke-width="1.19005" stroke-miterlimit="10" stroke-linecap="round"/>
<path d="M81.2737 48.2879V7.1123" stroke="#4A25AA" stroke-width="1.19005" stroke-miterlimit="10" stroke-linecap="round"/>
</svg>
