<svg id="Logotype" xmlns="http://www.w3.org/2000/svg" viewBox="0 0 529.07 161.98"><defs><style>.cls-1{fill:#ffffff;}</style></defs><path class="cls-1" d="M83.94,109.13a2.59,2.59,0,0,1-5.18,0A25.6,25.6,0,0,0,53.18,83.58a2.59,2.59,0,1,1,0-5.18A25.6,25.6,0,0,0,78.76,52.84a2.59,2.59,0,1,1,5.18,0A25.6,25.6,0,0,0,109.52,78.4h16a44.5,44.5,0,1,0,0,5.18h-16A25.6,25.6,0,0,0,83.94,109.13Z"/><path class="cls-1" d="M423,111.49H399.81a1.43,1.43,0,0,1-1.19-.65q-5.79-8.82-9.68-14.14-4-5.51-10-12.72h-2.37v18.53a5.54,5.54,0,0,0,.58,2.62,4.48,4.48,0,0,0,2.22,1.81,16.33,16.33,0,0,0,2.57.7l1.87.39a1.42,1.42,0,0,1,1.13,1.39v2.07H350.57v-2A1.5,1.5,0,0,1,351.9,108l3.67-.23a12.3,12.3,0,0,0,2.91-.58,4.24,4.24,0,0,0,2.2-1.74,5.74,5.74,0,0,0,.56-2.69v-43a6.13,6.13,0,0,0-.48-2.58,4.12,4.12,0,0,0-2.28-1.81,18.53,18.53,0,0,0-3.26-.94L353.4,54a1.41,1.41,0,0,1-1.13-1.39V50.48H386.6q11.52,0,17.49,3.59a11.86,11.86,0,0,1,6,10.86q0,6.41-3.69,10.3t-11.24,6.08q2.94,3.78,6.84,8.77t8.13,10.19q1.33,1.68,3.64,4.11a11.6,11.6,0,0,0,4.56,3,22.8,22.8,0,0,0,3,.52l.41.06a1.5,1.5,0,0,1,1.29,1.48ZM393.16,66.13q0-6.1-3.43-8.92T380,54.4h-3.41V79.93h3.28q6.35,0,9.83-3.31T393.16,66.13Z"/><path class="cls-1" d="M220.45,94.22a31.36,31.36,0,0,1-9.28,9.92c-3.4,2.18-6.55,3.76-10.89,3.76a19.94,19.94,0,0,1-7.93-1.59,17.52,17.52,0,0,1-6.6-5,21.31,21.31,0,0,1-3.25-5.84c-.86-2.15-1.38-4.45-2.72-6.38a14.7,14.7,0,0,0-4.63-4.28,13.4,13.4,0,0,0-3.55-1.45A14.69,14.69,0,0,0,168,83a1.71,1.71,0,0,1-1.69-1.13,1.58,1.58,0,0,1,1.61-2h.15a14.54,14.54,0,0,0,9-3.39c5-4.14,4.39-10.86,7.58-16A15.72,15.72,0,0,1,198,53.32a16.33,16.33,0,0,1,11.91,4.8q4.65,4.58,8,14.07a1.46,1.46,0,0,0,1.37,1h3.07V50.82h-4a1.44,1.44,0,0,0-.93.34l-2.87,2.54a39.83,39.83,0,0,0-9-4.5A33.94,33.94,0,0,0,190,48a34.55,34.55,0,0,0-22.68,14.52A33.62,33.62,0,0,0,161.56,82a32.69,32.69,0,0,0,10.15,23.26c2.58,2.42,7.41,6,11.64,7.43a38.69,38.69,0,0,0,13.16,2.1A30.51,30.51,0,0,0,207,112.7a33.62,33.62,0,0,0,17.2-14.55,1.42,1.42,0,0,0-.47-2Z"/><path class="cls-1" d="M279.85,96.42l.8-3a1.42,1.42,0,0,0-1.42-1.51h-3c-.91,2.21-4.44,11-5.85,12.45s-3.26,1.92-5.1,2.32a30.78,30.78,0,0,1-7,.87c-2,0-4.49-.09-6.2-1.28a3.88,3.88,0,0,1-1.51-2.41,20.15,20.15,0,0,1-.39-4.47V59.3a6.28,6.28,0,0,1,.56-2.69A3.51,3.51,0,0,1,253,54.87a19,19,0,0,1,3.24-.67l2-.25a1.42,1.42,0,0,0,1.24-1.41V50.48H226v2.14a1.42,1.42,0,0,0,1.15,1.4l1.84.36a14.64,14.64,0,0,1,3.2,1,4.44,4.44,0,0,1,2.28,1.83,6.13,6.13,0,0,1,.47,2.56v43a5.64,5.64,0,0,1-.6,2.76,4,4,0,0,1-2.15,1.67,14.29,14.29,0,0,1-2.67.54c-.82.11-1.57.21-2.26.28a1.42,1.42,0,0,0-1.26,1.41v2.07h48.73Z"/><path class="cls-1" d="M350.11,108l-1.12-.24a9.39,9.39,0,0,1-2.79-1,8.93,8.93,0,0,1-2.45-2,9.38,9.38,0,0,1-1.42-2.31q-3.36-7.8-8.13-19.67C332,77.22,325.3,61,322.39,53.87a1.4,1.4,0,0,0,1-1.33V50.48h-11q-6.06,14.42-11.07,26.37l-10,23.87a13.25,13.25,0,0,1-2,3.52,10.67,10.67,0,0,1-3,2.5,8.6,8.6,0,0,1-2.82,1l-2.06.41a1.42,1.42,0,0,0-1.14,1.4v1.94h25v-2a1.43,1.43,0,0,0-1.26-1.41,19.6,19.6,0,0,1-5.68-1.25c-1.39-.64-2.08-1.41-2.08-2.31a12.43,12.43,0,0,1,.15-1.49,21.77,21.77,0,0,1,1-3.43c.43-1.22.93-2.6,1.52-4.16s1.12-2.91,1.6-4.07h21.06l5.21,12.47a5.06,5.06,0,0,1,.36,1.14,4.48,4.48,0,0,1,.07.77c0,.65-1.05,1.19-3.13,1.63-1.56.33-3,.56-4.21.71a1.4,1.4,0,0,0-1.24,1.4v2h32.59v-2.1A1.42,1.42,0,0,0,350.11,108ZM302.28,87.16,311,65.41l8.83,21.75Z"/><path class="cls-1" d="M491.46,108l-1.12-.24a9.39,9.39,0,0,1-2.79-1,9,9,0,0,1-2.46-2,9.66,9.66,0,0,1-1.41-2.31q-3.36-7.8-8.13-19.67c-2.24-5.57-8.9-21.82-11.81-28.92a1.4,1.4,0,0,0,1-1.33V50.48h-11q-6.06,14.42-11.07,26.37l-10,23.87a13.25,13.25,0,0,1-2.05,3.52,10.67,10.67,0,0,1-3,2.5,8.6,8.6,0,0,1-2.82,1l-2.06.41a1.42,1.42,0,0,0-1.14,1.4v1.94h25v-2a1.43,1.43,0,0,0-1.26-1.41,19.6,19.6,0,0,1-5.68-1.25c-1.39-.64-2.08-1.41-2.08-2.31a12.43,12.43,0,0,1,.15-1.49,21.77,21.77,0,0,1,1-3.43c.43-1.22.93-2.6,1.52-4.16s1.12-2.91,1.6-4.07h21.06l5.21,12.47a5.06,5.06,0,0,1,.36,1.14,4.48,4.48,0,0,1,.07.77c0,.65-1.05,1.19-3.13,1.63-1.56.33-3,.56-4.21.71a1.4,1.4,0,0,0-1.24,1.4v2h32.59v-2.1A1.42,1.42,0,0,0,491.46,108ZM443.63,87.16l8.7-21.75,8.83,21.75Z"/></svg>