<?xml version="1.0" standalone="no"?>
<!DOCTYPE svg PUBLIC "-//W3C//DTD SVG 20010904//EN"
 "http://www.w3.org/TR/2001/REC-SVG-20010904/DTD/svg10.dtd">
<svg version="1.0" xmlns="http://www.w3.org/2000/svg"
 width="134.000000pt" height="134.000000pt" viewBox="0 0 134.000000 134.000000"
 preserveAspectRatio="xMidYMid meet">

<g transform="translate(0.000000,134.000000) scale(0.100000,-0.100000)"
fill="#1B3C87" stroke="none">
<path d="M235 1326 c-95 -30 -162 -88 -204 -176 l-26 -55 0 -425 0 -425 26
-55 c33 -70 89 -126 159 -159 l55 -26 425 0 425 0 55 26 c30 14 72 44 94 65
21 22 51 64 65 94 l26 55 0 425 0 425 -26 55 c-33 70 -89 126 -159 159 l-55
26 -410 2 c-311 2 -420 -1 -450 -11z m602 -186 c39 -23 129 -191 117 -219 -5
-11 -19 9 -49 72 -47 98 -75 133 -115 142 -33 7 -79 -9 -97 -35 -16 -23 -53
-27 -53 -5 0 20 88 64 130 64 19 1 50 -8 67 -19z m-275 -130 c-11 -11 -28 -20
-37 -20 -19 0 -55 -57 -55 -88 0 -34 16 -59 86 -136 35 -38 61 -73 58 -78 -8
-13 -17 -4 -94 83 -66 74 -70 82 -70 127 0 59 37 121 64 105 5 -3 6 -1 2 5 -9
15 46 44 58 31 6 -5 2 -16 -12 -29z m437 -173 c13 -74 -12 -172 -53 -206 -9
-8 -16 -17 -16 -22 0 -5 27 -49 59 -99 33 -49 62 -103 66 -120 17 -76 -30
-166 -102 -196 -49 -21 -112 -17 -158 9 -34 19 -54 47 -132 182 -51 88 -103
170 -118 182 -34 30 -87 38 -138 23 -49 -14 -51 -14 -55 -2 -4 12 71 42 106
42 43 -1 107 -35 134 -71 14 -19 60 -96 103 -171 91 -163 114 -183 201 -176
39 3 61 11 80 29 74 69 71 131 -12 259 -57 87 -60 90 -89 83 -45 -12 -126 -7
-165 9 -52 22 -104 68 -91 81 8 8 18 4 33 -10 43 -39 91 -57 154 -58 51 0 66
4 96 27 19 15 43 44 54 65 21 44 24 136 5 171 -6 12 -9 27 -5 33 11 19 33 -14
43 -64z m-594 -188 c4 -6 5 -12 4 -13 -8 -7 -79 7 -79 15 0 13 67 11 75 -2z
m-85 -24 c0 -8 -4 -15 -10 -15 -5 0 -10 7 -10 15 0 8 5 15 10 15 6 0 10 -7 10
-15z m42 -11 c-12 -8 -22 -22 -22 -30 0 -20 27 -29 45 -14 20 17 32 5 15 -15
-15 -18 -51 -20 -68 -3 -28 28 -7 78 32 78 20 0 20 -1 -2 -16z m-52 -44 c0
-11 9 -24 20 -30 21 -11 27 -30 10 -30 -19 0 -50 40 -50 66 0 14 4 23 10 19 6
-3 10 -15 10 -25z m130 2 c0 -26 -48 -65 -68 -56 -14 6 -13 8 7 12 15 2 27 14
34 33 13 33 27 38 27 11z"/>
</g>
</svg>
