<svg width="49" height="49" viewBox="0 0 49 49" fill="none" xmlns="http://www.w3.org/2000/svg">
<path opacity="0.2" d="M11.5 0H36.6C42.9 0 48.1 5.1 48.1 11.5V36.6C48.1 42.9 43 48.1 36.6 48.1H11.5C5.2 48.1 0 43 0 36.6V11.5C0 5.2 5.2 0 11.5 0Z" fill="#FFA0A0"/>
<path d="M30.7998 37.3C28.7998 38.3 26.4998 38.9 24.0998 38.9C15.8998 38.9 9.2998 32.3 9.2998 24" stroke="#1B3C87" stroke-width="0.3" stroke-miterlimit="10" stroke-linecap="round" stroke-linejoin="round"/>
<path d="M18 10.5C19.8 9.69995 21.9 9.19995 24 9.19995C31.9 9.19995 38.3 15.3999 38.8 23.0999" stroke="#1B3C87" stroke-width="0.3" stroke-miterlimit="10" stroke-linecap="round" stroke-linejoin="round"/>
<path d="M21.2999 22.3H8.7999C7.1999 22.3 5.8999 21 5.8999 19.4C5.8999 17.8 7.1999 16.5 8.7999 16.5H21.1999C22.7999 16.5 24.0999 17.8 24.0999 19.4C24.1999 21 22.8999 22.3 21.2999 22.3Z" fill="white" stroke="#1B3C87" stroke-width="0.3" stroke-miterlimit="10" stroke-linecap="round" stroke-linejoin="round"/>
<path d="M8.3999 18.3999H13.8999" stroke="#1B3C87" stroke-width="0.3" stroke-miterlimit="10" stroke-linecap="round" stroke-linejoin="round"/>
<path d="M15.8999 18.3999H19.1999" stroke="#1B3C87" stroke-width="0.3" stroke-miterlimit="10" stroke-linecap="round" stroke-linejoin="round"/>
<path d="M8.3999 20.3999H18.6999" stroke="#1B3C87" stroke-width="0.3" stroke-miterlimit="10" stroke-linecap="round" stroke-linejoin="round"/>
<path d="M39.3997 30.1999H26.0997C24.4997 30.1999 23.1997 28.8999 23.1997 27.2999C23.1997 25.6999 24.4997 24.3999 26.0997 24.3999H39.3997C40.9997 24.3999 42.2997 25.6999 42.2997 27.2999C42.2997 28.8999 40.9997 30.1999 39.3997 30.1999Z" fill="#EDE9F7" stroke="#1B3C87" stroke-width="0.3" stroke-miterlimit="10" stroke-linecap="round" stroke-linejoin="round"/>
<path d="M39.3998 26.2H28.7998" stroke="#1B3C87" stroke-width="0.3" stroke-miterlimit="10" stroke-linecap="round" stroke-linejoin="round"/>
<path d="M39.5997 28.2998H33.1997" stroke="#1B3C87" stroke-width="0.3" stroke-miterlimit="10" stroke-linecap="round" stroke-linejoin="round"/>
<path d="M29.7998 28.2998H31.1998" stroke="#1B3C87" stroke-width="0.3" stroke-miterlimit="10" stroke-linecap="round" stroke-linejoin="round"/>
<path d="M19.9999 14.2999H7.09991C6.49991 14.2999 5.8999 13.7999 5.8999 13.0999V12.8999C5.8999 12.2999 6.39991 11.7 7.09991 11.7H19.9999C20.5999 11.7 21.1999 12.1999 21.1999 12.8999V13.0999C21.1999 13.7999 20.6999 14.2999 19.9999 14.2999Z" fill="white" stroke="#1B3C87" stroke-width="0.3" stroke-miterlimit="10" stroke-linecap="round" stroke-linejoin="round"/>
<path d="M7.69971 13H14.9997" stroke="#1B3C87" stroke-width="0.3" stroke-miterlimit="10" stroke-linecap="round" stroke-linejoin="round"/>
<path d="M16.1001 13H17.0001" stroke="#1B3C87" stroke-width="0.3" stroke-miterlimit="10" stroke-linecap="round" stroke-linejoin="round"/>
<path d="M40.4998 32.8H32.5998C31.5998 32.8 30.7998 33.6001 30.7998 34.6001C30.7998 35.6001 31.5998 36.4001 32.5998 36.4001H40.4998C40.5998 36.4001 40.7998 36.4001 40.8998 36.4001L41.1998 36.6001C41.2998 36.7001 41.4998 36.6001 41.4998 36.4001V36.0001C41.8998 35.7001 42.1998 35.2001 42.1998 34.6001C42.2998 33.6001 41.4998 32.8 40.4998 32.8Z" fill="#EDE9F7" stroke="#1B3C87" stroke-width="0.3" stroke-miterlimit="10" stroke-linecap="round" stroke-linejoin="round"/>
<path d="M33.7997 35.2C33.4997 35.2 33.1997 34.9 33.1997 34.6C33.1997 34.3 33.4997 34 33.7997 34C34.0997 34 34.3997 34.3 34.3997 34.6C34.3997 35 34.0997 35.2 33.7997 35.2Z" fill="white" stroke="#1B3C87" stroke-width="0.3" stroke-miterlimit="10" stroke-linecap="round" stroke-linejoin="round"/>
<path d="M36.4999 35.2C36.1999 35.2 35.8999 34.9 35.8999 34.6C35.8999 34.3 36.1999 34 36.4999 34C36.7999 34 37.0999 34.3 37.0999 34.6C37.0999 35 36.8999 35.2 36.4999 35.2Z" fill="white" stroke="#1B3C87" stroke-width="0.3" stroke-miterlimit="10" stroke-linecap="round" stroke-linejoin="round"/>
<path d="M39.2997 35.2C38.9997 35.2 38.6997 34.9 38.6997 34.6C38.6997 34.3 38.9997 34 39.2997 34C39.5997 34 39.8997 34.3 39.8997 34.6C39.8997 35 39.5997 35.2 39.2997 35.2Z" fill="white" stroke="#1B3C87" stroke-width="0.3" stroke-miterlimit="10" stroke-linecap="round" stroke-linejoin="round"/>
</svg>
