<?xml version="1.0" encoding="utf-8"?>
<!-- Generator: Adobe Illustrator 19.2.1, SVG Export Plug-In . SVG Version: 6.00 Build 0)  -->
<svg version="1.1" id="layer" xmlns="http://www.w3.org/2000/svg" xmlns:xlink="http://www.w3.org/1999/xlink" x="0px" y="0px"
	 viewBox="0 0 652 652" style="enable-background:new 0 0 652 652;" xml:space="preserve">
<style type="text/css">
	.st0{fill:#FFFFFF;}
	.st1{fill:#FFFFFF;}
</style>
<g id="Page-1">
	<g id="copper-logo">
		<path id="Fill-1" class="st0" d="M124.1,354.4c-6.1,0-11.7-1-16.8-3.1c-5.1-2.1-9.5-5-13.2-8.7c-3.7-3.7-6.6-8.1-8.7-13.2
			c-2.1-5.1-3.1-10.7-3.1-16.8c0-6.2,1.2-12,3.5-17.4c2.3-5.4,5.6-10.1,9.7-14.1c4.1-4,9-7.1,14.5-9.4c5.5-2.3,11.5-3.4,17.9-3.4
			c4.8,0,9.3,0.7,13.4,2c4.2,1.4,7.8,3.3,10.9,5.7c3.1,2.4,5.5,5.3,7.3,8.6c1.8,3.3,2.7,6.9,2.7,10.6c0,4.2-1.3,7.6-3.9,10.4
			c-2.6,2.8-5.8,4.2-9.6,4.2c-3.9,0-7.2-1.4-9.8-4.1c-2.6-2.7-3.9-6.2-3.9-10.3c0-1.2,0.1-2.3,0.4-3.4c0.3-1.1,0.7-2.7,1.2-4.8
			c0.5-1.9,0.9-3.2,1.1-4.2c0.2-0.9,0.2-1.9,0.2-3c0-2.8-0.9-5.2-2.8-7c-1.8-1.8-4.1-2.7-6.9-2.7c-2.5,0-4.7,0.8-6.8,2.4
			c-2.1,1.6-3.9,3.8-5.5,6.5c-1.6,2.7-2.8,6-3.7,9.8c-0.9,3.8-1.4,7.8-1.4,12.1c0,10,2.5,17.9,7.5,23.7c5,5.9,11.7,8.8,20.2,8.8
			c4.8,0,9.1-0.9,13-2.7c3.9-1.8,7.7-4.6,11.4-8.4l2,1C155.8,344,142.1,354.4,124.1,354.4"/>
		<path id="Fill-3" class="st0" d="M227.2,292.9c-0.5-5.4-1.2-9.7-2.1-13c-0.9-3.1-2.3-5.5-4.1-7.2c-1.9-1.7-4.1-2.5-6.8-2.5
			c-2.8,0-5.1,0.8-7,2.5c-1.9,1.7-3.3,4.1-4,7.2c-0.9,3.5-1.5,7.9-2,13.2c-0.4,5.3-0.7,11.4-0.7,18.2c0,6.8,0.2,12.9,0.7,18.3
			c0.4,5.4,1.1,9.8,2,13.2c0.8,3.1,2.1,5.5,4,7.2c1.9,1.7,4.3,2.5,7,2.5c2.6,0,4.9-0.9,6.8-2.5c1.9-1.7,3.3-4.1,4-7.2
			c1.9-7.1,2.8-17.6,2.8-31.4C227.9,304.4,227.7,298.3,227.2,292.9 M255.7,328.3c-2.3,5.2-5.5,9.8-9.5,13.7c-4,3.9-8.8,6.9-14.2,9.1
			c-5.5,2.2-11.4,3.3-17.6,3.3c-6.4,0-12.3-1.1-17.8-3.3c-5.5-2.2-10.2-5.2-14.2-9.1c-4-3.9-7.2-8.4-9.5-13.7
			c-2.3-5.2-3.5-10.9-3.5-17c0-6.1,1.2-11.8,3.5-17c2.3-5.2,5.5-9.8,9.5-13.7c4-3.9,8.8-6.9,14.2-9.1c5.5-2.2,11.4-3.3,17.8-3.3
			c6.3,0,12.2,1.1,17.6,3.3c5.5,2.2,10.2,5.2,14.2,9.1c4,3.9,7.2,8.4,9.5,13.7c2.3,5.2,3.5,10.9,3.5,17
			C259.2,317.4,258.1,323.1,255.7,328.3"/>
		<path id="Fill-5" class="st0" d="M597.9,280.8c0,8,6.4,14.4,14.3,14.4s14.3-6.5,14.3-14.4s-6.4-14.4-14.3-14.4
			S597.9,272.8,597.9,280.8"/>
		<path id="Fill-5-Copy" class="st1" d="M26.6,289.6c0,8,6.4,14.4,14.3,14.4s14.3-6.5,14.3-14.4c0-8-6.4-14.4-14.3-14.4
			S26.6,281.6,26.6,289.6"/>
		<path id="Fill-5-Copy-2" class="st1" d="M26.6,333.5c0,8,6.4,14.4,14.3,14.4s14.3-6.5,14.3-14.4c0-8-6.4-14.4-14.3-14.4
			S26.6,325.5,26.6,333.5"/>
		<path id="Fill-8" class="st0" d="M321.2,339.8c-2.8,6.4-6.8,9.7-12,9.7c-3,0-5.6-1.2-8-3.6v-64.6c2.4-1.5,4.3-2.6,5.6-3.1
			c1.3-0.5,2.6-0.8,3.9-0.8c4.6,0,8.2,3.1,10.8,9.4c2.6,6.3,3.9,14.9,3.9,26C325.4,324.4,324,333.4,321.2,339.8 M353.7,291.4
			c-1.5-4.8-3.5-8.8-6.2-12.3c-2.7-3.4-5.9-6.1-9.6-8c-3.7-1.9-7.8-2.9-12.3-2.9c-4.1,0-8.1,0.8-12,2.5c-3.9,1.6-8,4.4-12.5,8.2
			v-6.9v-3.7l-40.2,12v0.8v1.7c1.7,0.3,3.2,0.6,4.3,1.1c1.6,0.7,3,1.8,4.2,3.3c0.7,0.9,1.2,1.8,1.5,2.8c0.4,1,0.7,2.1,0.9,3.4
			c0.2,1.3,0.4,2.9,0.5,4.7c0.1,1.8,0.2,3.9,0.2,6.3v51.8v6.7c0,1.9,0,3.4-0.1,4.6c-0.1,1.2-0.1,2.2-0.2,3.1
			c-0.1,0.9-0.3,1.7-0.5,2.6c-0.3,2.1-1,3.7-2.1,4.9c-1.2,1.5-2.6,2.6-4.2,3.2c-0.8,0.3-1.7,0.5-2.9,0.7v2.6h48.9v-2.3
			c-1.5-0.2-2.7-0.4-3.6-0.7c-1.6-0.5-2.9-1.3-3.9-2.5c-0.5-0.6-1-1.3-1.3-2.1c-0.3-0.8-0.6-1.7-0.8-2.9c-0.2-1.2-0.4-2.6-0.4-4.3
			c-0.1-1.7-0.1-3.8-0.1-6.2v-15c2.8,2.2,5.4,3.7,7.8,4.6c2.3,0.9,5.1,1.3,8.3,1.3c5.4,0,10.5-1.2,15.2-3.6c4.7-2.4,8.8-5.7,12.3-10
			c3.5-4.3,6.2-9.3,8.2-15c2-5.7,3-11.9,3-18.6C355.9,301.4,355.1,296.1,353.7,291.4"/>
		<path id="Fill-10" class="st0" d="M422.2,339.8c-2.8,6.4-6.8,9.7-12,9.7c-3,0-5.6-1.2-8-3.6v-64.6c2.4-1.5,4.3-2.6,5.6-3.1
			c1.3-0.5,2.6-0.8,3.9-0.8c4.6,0,8.2,3.1,10.8,9.4c2.6,6.3,3.9,14.9,3.9,26C426.5,324.4,425.1,333.4,422.2,339.8 M454.7,291.4
			c-1.5-4.8-3.5-8.8-6.2-12.3c-2.7-3.4-5.9-6.1-9.6-8c-3.7-1.9-7.8-2.9-12.3-2.9c-4.1,0-8.1,0.8-12,2.5c-3.9,1.6-8,4.4-12.5,8.2
			v-6.9v-3.7l-40.2,12v0.8v1.7c1.7,0.3,3.2,0.6,4.3,1.1c1.6,0.7,3,1.8,4.2,3.3c0.7,0.9,1.2,1.8,1.5,2.8c0.4,1,0.7,2.1,0.9,3.4
			c0.2,1.3,0.4,2.9,0.5,4.7c0.1,1.8,0.2,3.9,0.2,6.3v51.8v6.7c0,1.9,0,3.4-0.1,4.6c-0.1,1.2-0.1,2.2-0.2,3.1
			c-0.1,0.9-0.3,1.7-0.5,2.6c-0.3,2.1-1,3.7-2.1,4.9c-1.2,1.5-2.6,2.6-4.2,3.2c-0.8,0.3-1.7,0.5-2.9,0.7v2.6h48.9v-2.3
			c-1.5-0.2-2.7-0.4-3.6-0.7c-1.6-0.5-2.9-1.3-3.9-2.5c-0.5-0.6-1-1.3-1.3-2.1c-0.3-0.8-0.6-1.7-0.8-2.9c-0.2-1.2-0.4-2.6-0.4-4.3
			c-0.1-1.7-0.1-3.8-0.1-6.2v-15c2.8,2.2,5.4,3.7,7.8,4.6c2.3,0.9,5.1,1.3,8.3,1.3c5.4,0,10.5-1.2,15.2-3.6c4.7-2.4,8.8-5.7,12.3-10
			c3.5-4.3,6.2-9.3,8.2-15c2-5.7,3-11.9,3-18.6C456.9,301.4,456.2,296.1,454.7,291.4"/>
		<path id="Fill-12" class="st0" d="M598,349.2c-1.5-0.5-2.7-1.3-3.6-2.5c-0.5-0.6-1-1.4-1.2-2.1c-0.3-0.8-0.5-1.7-0.7-2.9
			c-0.2-1.1-0.4-2.6-0.4-4.3c-0.1-1.7-0.1-3.9-0.1-6.4v-10.5v-9.8V268l-40.7,12.2v2.5c1.9,0.3,3.5,0.7,4.8,1.2
			c1.6,0.7,3,1.8,4.2,3.3c0.7,0.9,1.2,1.8,1.5,2.8c0.4,1,0.7,2.1,0.9,3.4c0.2,1.3,0.4,2.9,0.5,4.7c0.1,1.8,0.2,3.9,0.2,6.3V331
			c0,5.1-0.2,8.7-0.5,10.9c-0.3,2.1-0.9,3.7-1.8,4.8c-1,1.2-2.2,2-3.7,2.5c-1.1,0.4-2.6,0.6-4.6,0.8v2.2H602V350
			C600.3,349.8,599,349.6,598,349.2"/>
		<path id="Fill-14" class="st0" d="M507,270.2c3.3,0,5.8,1.4,7.5,4.1c1.7,2.7,2.8,7,3.3,13c0.1,1.1,0.2,2.1,0.2,3
			c0.1,0.9,0.1,1.8,0.2,2.9c0.1,1,0.1,2.2,0.1,3.6v3.1h-25.1c0.1-9.3,1.3-16.5,3.5-21.6C499,272.9,502.5,270.2,507,270.2z
			 M546.3,319.7c-1.6,2.5-3,4.4-4.1,5.7c-1.1,1.3-2.6,2.5-4.4,3.7c-4.8,3.4-10.6,5.1-17.4,5.1c-18,0-27.1-10.2-27.2-30.6h51.2v0h2.7
			c-0.7-5.4-2.1-10.2-4.3-14.6c-2.2-4.4-5.1-8.1-8.6-11.1c-3.5-3.1-7.5-5.4-12.1-7c-4.6-1.6-9.6-2.5-15-2.5c-6.2,0-12,1.1-17.4,3.4
			c-5.4,2.3-10.1,5.4-14.1,9.4c-4,4-7.2,8.7-9.4,14c-2.3,5.4-3.4,11.1-3.4,17.2c0,6,1.1,11.6,3.3,16.7c2.2,5.1,5.2,9.6,9,13.4
			c3.9,3.8,8.4,6.7,13.7,8.8c5.3,2.1,10.9,3.2,17,3.2c6.4,0,12.3-1.2,17.6-3.7c5.3-2.5,9.9-6,13.7-10.6c1.2-1.5,2.3-2.9,3.2-4.3
			c0.9-1.3,1.8-2.7,2.5-4.1c0.8-1.4,1.5-3,2.3-4.8c0.8-1.8,1.6-4,2.6-6.6L546.3,319.7z"/>
	</g>
</g>
</svg>
