<svg width="49" height="49" viewBox="0 0 49 49" fill="none" xmlns="http://www.w3.org/2000/svg">
<path opacity="0.2" d="M11.5 0H36.6C42.9 0 48.1 5.1 48.1 11.5V36.6C48.1 42.9 43 48.1 36.6 48.1H11.5C5.1 48.1 0 42.9 0 36.6V11.5C0 5.1 5.1 0 11.5 0Z" fill="#88A7FF"/>
<path d="M36.8003 38.8L14.3003 40.6001C13.7003 40.6001 13.1003 40.2001 13.1003 39.6001L10.8003 10.5C10.8003 9.90005 11.2003 9.30003 11.8003 9.30003L34.3003 7.50005C35.0003 7.40005 35.6003 7.90005 35.6003 8.60005L37.9003 37.6001C38.0003 38.2001 37.5003 38.8 36.8003 38.8Z" fill="#EDE9F7" stroke="#1B3C87" stroke-width="0.3" stroke-miterlimit="10" stroke-linecap="round" stroke-linejoin="round"/>
<path d="M32.3004 41.6L10.1004 37.2C9.50037 37.1 9.10037 36.5 9.20037 35.9L14.8004 7.19998C14.9004 6.59998 15.5004 6.19998 16.1004 6.29998L38.3004 10.7C39.0004 10.8 39.4004 11.5 39.3004 12.1L33.7004 40.6C33.6004 41.3 33.0004 41.8 32.3004 41.6Z" fill="white" stroke="#1B3C87" stroke-width="0.3" stroke-miterlimit="10" stroke-linecap="round" stroke-linejoin="round"/>
<path d="M22.1006 15.6001L35.7006 18.2001" stroke="#1B3C87" stroke-width="0.3" stroke-miterlimit="10" stroke-linecap="round" stroke-linejoin="round"/>
<path d="M32.4004 12.8L36.6004 13.6001" stroke="#1B3C87" stroke-width="0.3" stroke-miterlimit="10" stroke-linecap="round" stroke-linejoin="round"/>
<path d="M21.6006 18.1001L35.2006 20.8001" stroke="#1B3C87" stroke-width="0.3" stroke-miterlimit="10" stroke-linecap="round" stroke-linejoin="round"/>
<path d="M21.0005 20.6001L34.6005 23.3001" stroke="#1B3C87" stroke-width="0.3" stroke-miterlimit="10" stroke-linecap="round" stroke-linejoin="round"/>
<path d="M20.5005 23.1001L34.1005 25.8001" stroke="#1B3C87" stroke-width="0.3" stroke-miterlimit="10" stroke-linecap="round" stroke-linejoin="round"/>
<path d="M19.9004 25.7L33.5004 28.3" stroke="#1B3C87" stroke-width="0.3" stroke-miterlimit="10" stroke-linecap="round" stroke-linejoin="round"/>
<path d="M16.2004 38.5001L10.1004 37.3001C9.50037 37.2001 9.10037 36.6001 9.20037 36.0001L14.8004 7.30007C14.9004 6.70007 15.5004 6.30008 16.1004 6.40008L22.1004 7.60009C21.5004 7.50009 21.0004 7.90009 20.9004 8.50009L15.3004 37.2001C15.2004 37.8001 15.6004 38.4001 16.2004 38.5001Z" fill="white" stroke="#1B3C87" stroke-width="0.3" stroke-miterlimit="10"/>
<path d="M13.2005 37.8999C12.6005 37.7999 12.2005 37.1999 12.3005 36.5999L18.0005 7.89993C18.1005 7.29993 18.7005 6.89993 19.3005 6.99993" stroke="#1B3C87" stroke-width="0.3" stroke-miterlimit="10"/>
<path d="M10.9002 21.4999L8.7002 20.8999L9.9002 22.7999C10.0002 22.7999 10.8002 22.4999 10.9002 21.4999Z" fill="white" stroke="#1B3C87" stroke-width="0.3" stroke-miterlimit="10" stroke-linecap="round" stroke-linejoin="round"/>
<path d="M32.2 37.9C31.9 38.3 31.5 38.3 31.1 38.1L10 22.8C10 22.8 10.3 22.7 10.6 22.3C10.9 21.9 10.9 21.5 10.9 21.5L32 36.8C32.4 37.1 32.5 37.6 32.2 37.9Z" fill="white" stroke="#1B3C87" stroke-width="0.3" stroke-miterlimit="10" stroke-linecap="round" stroke-linejoin="round"/>
<path d="M30.3003 37.5L31.3003 36.2" stroke="#1B3C87" stroke-width="0.3" stroke-miterlimit="10" stroke-linecap="round" stroke-linejoin="round"/>
<path d="M26.1004 34.3999C25.9004 34.2999 25.7004 34.2999 25.6004 34.4999C25.5004 34.6999 25.5004 34.8999 25.7004 34.9999L29.9004 37.9999" stroke="#1B3C87" stroke-width="0.3" stroke-miterlimit="10" stroke-linecap="round" stroke-linejoin="round"/>
<path d="M9.3002 21.6999L9.7002 21.1999L8.7002 20.8999L9.3002 21.6999Z" fill="#1B3C87"/>
</svg>
