<?xml version="1.0" standalone="no"?>
<!DOCTYPE svg PUBLIC "-//W3C//DTD SVG 20010904//EN"
 "http://www.w3.org/TR/2001/REC-SVG-20010904/DTD/svg10.dtd">
<svg version="1.0" xmlns="http://www.w3.org/2000/svg"
 width="134.000000pt" height="134.000000pt" viewBox="0 0 134.000000 134.000000"
 preserveAspectRatio="xMidYMid meet">

<g transform="translate(0.000000,134.000000) scale(0.100000,-0.100000)"
fill="#1B3C87" stroke="none">
<path d="M235 1326 c-95 -30 -162 -88 -204 -176 l-26 -55 0 -425 0 -425 26
-55 c33 -70 89 -126 159 -159 l55 -26 425 0 425 0 55 26 c30 14 72 44 94 65
21 22 51 64 65 94 l26 55 0 425 0 425 -26 55 c-33 70 -89 126 -159 159 l-55
26 -410 2 c-311 2 -420 -1 -450 -11z m660 -313 c7 -95 13 -127 14 -76 l1 31
76 -23 c42 -13 77 -25 79 -27 2 -2 -19 -77 -46 -168 -27 -90 -47 -171 -44
-178 3 -8 2 -44 -2 -81 -6 -57 -8 -62 -15 -36 -4 17 -5 -8 -2 -56 7 -120 12
-117 -223 -140 -104 -10 -195 -19 -204 -19 -28 0 -51 26 -59 66 l-8 39 -1 -36
c-1 -22 5 -42 14 -49 23 -19 11 -24 -56 -27 -52 -2 -60 0 -73 20 -11 19 -77
650 -76 739 0 27 31 58 57 58 9 0 10 -6 3 -22 -7 -15 -7 -48 -1 -98 l10 -75
-4 78 c-5 73 -3 80 20 103 29 29 61 33 50 7 -15 -36 -16 -57 -1 -25 8 18 21
35 29 38 16 6 353 41 414 43 l41 1 7 -87z m49 65 c26 -37 21 -58 -14 -58 -28
0 -30 2 -30 40 0 46 19 54 44 18z m64 -78 c15 0 22 -6 22 -20 0 -28 -17 -32
-70 -17 -29 8 -46 19 -48 31 -4 17 1 18 34 13 22 -4 49 -7 62 -7z"/>
<path d="M403 930 c0 -30 2 -43 4 -27 2 15 2 39 0 55 -2 15 -4 2 -4 -28z"/>
<path d="M913 850 c0 -30 2 -43 4 -27 2 15 2 39 0 55 -2 15 -4 2 -4 -28z"/>
<path d="M413 820 c0 -30 2 -43 4 -27 2 15 2 39 0 55 -2 15 -4 2 -4 -28z"/>
<path d="M684 851 c83 -10 88 -65 8 -74 l-37 -4 36 -1 c49 -3 77 27 61 63 -10
22 -17 25 -64 23 l-53 -1 49 -6z"/>
<path d="M343 800 c0 -30 2 -43 4 -27 2 15 2 39 0 55 -2 15 -4 2 -4 -28z"/>
<path d="M553 843 c15 -2 39 -2 55 0 15 2 2 4 -28 4 -30 0 -43 -2 -27 -4z"/>
<path d="M480 820 c-10 -19 1 -60 16 -60 2 0 -1 10 -7 22 -10 18 -8 24 11 40
17 14 18 18 6 18 -8 0 -20 -9 -26 -20z"/>
<path d="M923 745 c0 -27 2 -38 4 -22 2 15 2 37 0 50 -2 12 -4 0 -4 -28z"/>
<path d="M583 763 c15 -2 37 -2 50 0 12 2 0 4 -28 4 -27 0 -38 -2 -22 -4z"/>
<path d="M423 715 c0 -27 2 -38 4 -22 2 15 2 37 0 50 -2 12 -4 0 -4 -28z"/>
<path d="M518 753 c6 -2 18 -2 25 0 6 3 1 5 -13 5 -14 0 -19 -2 -12 -5z"/>
<path d="M353 695 c0 -27 2 -38 4 -22 2 15 2 37 0 50 -2 12 -4 0 -4 -28z"/>
<path d="M728 713 c6 -2 18 -2 25 0 6 3 1 5 -13 5 -14 0 -19 -2 -12 -5z"/>
<path d="M643 703 c15 -2 37 -2 50 0 12 2 0 4 -28 4 -27 0 -38 -2 -22 -4z"/>
<path d="M533 693 c15 -2 39 -2 55 0 15 2 2 4 -28 4 -30 0 -43 -2 -27 -4z"/>
<path d="M933 640 c0 -30 2 -43 4 -27 2 15 2 39 0 55 -2 15 -4 2 -4 -28z"/>
<path d="M433 610 c0 -30 2 -43 4 -27 2 15 2 39 0 55 -2 15 -4 2 -4 -28z"/>
<path d="M683 653 c15 -2 37 -2 50 0 12 2 0 4 -28 4 -27 0 -38 -2 -22 -4z"/>
<path d="M573 643 c15 -2 39 -2 55 0 15 2 2 4 -28 4 -30 0 -43 -2 -27 -4z"/>
<path d="M363 590 c0 -30 2 -43 4 -27 2 15 2 39 0 55 -2 15 -4 2 -4 -28z"/>
<path d="M508 633 c6 -2 18 -2 25 0 6 3 1 5 -13 5 -14 0 -19 -2 -12 -5z"/>
<path d="M941 536 c-1 -55 13 -53 23 4 4 24 3 29 -3 15 -8 -19 -9 -19 -13 5
-3 15 -6 5 -7 -24z"/>
<path d="M443 505 c0 -27 2 -38 4 -22 2 15 2 37 0 50 -2 12 -4 0 -4 -28z"/>
<path d="M373 485 c0 -27 2 -38 4 -22 2 15 2 37 0 50 -2 12 -4 0 -4 -28z"/>
<path d="M453 400 c0 -30 2 -43 4 -27 2 15 2 39 0 55 -2 15 -4 2 -4 -28z"/>
<path d="M383 380 c0 -30 2 -43 4 -27 2 15 2 39 0 55 -2 15 -4 2 -4 -28z"/>
<path d="M391 294 c-1 -19 6 -37 16 -45 14 -12 16 -12 8 0 -4 8 -12 28 -16 45
l-7 31 -1 -31z"/>
</g>
</svg>
