<svg width="257" height="56" viewBox="0 0 257 56" fill="none" xmlns="http://www.w3.org/2000/svg">
<path d="M232.951 22.1933L235.464 30.0822H230.36L232.835 22.1933H232.951ZM228.62 35.9493L230.283 30.5976H235.696L237.784 36.9801L235.89 37.1783V37.4954H244.242V37.1783L243.082 36.9801L235.658 17.9911L233.144 19.775L228.002 35.9493L225.102 37.1783V37.4558H231.482V37.1387L228.62 35.9493Z" fill="#8066C4"/>
<path d="M61.232 36.98V18.6253L62.856 18.4667V18.0307H55.2773V18.4667L56.9013 18.6253V36.7818L55.2773 36.98V37.4557H69.584L69.8547 32.6193H69.584L66.4907 36.7818L61.232 36.98Z" fill="#8066C4"/>
<path d="M83.1578 18.4667L88.1071 18.6253L91.084 22.7878H91.355L91.239 18.0307H77.2031V18.4667L78.8271 18.6253V36.7818L77.2031 36.98V37.4557H91.51L91.78 32.6193H91.51L88.3778 36.7818L83.1578 36.98V27.981L86.9084 28.1396L88.3778 31.1922H88.6484V24.1357H88.3778L86.9084 27.3467L83.1578 27.4657V18.4667Z" fill="#8066C4"/>
<path d="M189.607 36.9403V37.4557H197.109V36.9403L195.485 36.7422V18.665L197.109 18.4667V18.0307H189.607V18.4667L191.193 18.665V36.7422L189.607 36.9403Z" fill="#8066C4"/>
<path d="M45.1851 18.4667L50.1731 18.6253L53.1118 22.7878H53.3825L53.2665 18.0307H39.2305V18.4667L40.8545 18.6253V36.7818L39.2305 36.98V37.4557H53.5371L53.8078 32.6193H53.5371L50.4438 36.7818L45.1851 36.98V27.981L48.9358 28.1396L50.4438 31.1922H50.6758V24.1357H50.4438L48.9358 27.3467L45.1851 27.4657V18.4667Z" fill="#8066C4"/>
<path d="M113.741 27.7433C113.741 21.5193 115.326 18.4271 118.767 18.4271C122.209 18.4271 123.794 21.5193 123.794 27.7433C123.794 33.9671 122.209 37.0593 118.767 37.0593C115.326 37.0593 113.741 33.9671 113.741 27.7433ZM109.217 27.7433C109.217 33.4121 113.779 37.535 118.729 37.535C123.717 37.535 128.241 33.4121 128.241 27.7433C128.241 22.0743 123.678 17.9514 118.729 17.9514C113.779 17.9514 109.217 22.0743 109.217 27.7433Z" fill="#8066C4"/>
<path d="M107.825 35.7907L108.096 31.1922H107.825L105.969 34.3635C105.428 35.3546 103.997 37.0197 102.257 37.0197C98.5451 37.0197 96.9601 33.9275 96.9601 27.7036C96.9601 21.4796 98.8161 18.3874 102.257 18.3874C103.959 18.3874 105.312 20.0525 105.815 21.0436L107.671 24.215H107.941L107.825 19.6164C106.781 18.9425 104.384 17.9514 101.755 17.9514C96.1871 17.9514 92.4751 22.0743 92.4751 27.7433C92.4751 33.4121 96.1871 37.535 101.755 37.535C104.384 37.4557 106.781 36.4646 107.825 35.7907Z" fill="#8066C4"/>
<path d="M143.014 29.9236L135.048 17.9911H128.32V18.3875L131.182 18.5461V35.7907L128.32 37.0197V37.3765H134.778V37.0197L131.762 35.7907L131.684 21.0436H131.839L143.052 37.4558H143.71V19.5372L146.532 18.3082V18.0307H140.114V18.3082L143.091 19.5372L143.168 29.9236H143.014Z" fill="#8066C4"/>
<path d="M151.288 27.7433C151.288 21.5193 152.873 18.4271 156.315 18.4271C159.756 18.4271 161.341 21.5193 161.341 27.7433C161.341 33.9671 159.756 37.0593 156.315 37.0593C152.873 37.0593 151.288 33.9671 151.288 27.7433ZM146.803 27.7433C146.803 33.4121 151.365 37.535 156.315 37.535C161.303 37.535 165.827 33.4121 165.827 27.7433C165.827 22.0743 161.264 17.9514 156.315 17.9514C151.365 17.9514 146.803 22.0743 146.803 27.7433Z" fill="#8066C4"/>
<path d="M178.354 30.2407L173.25 18.0307H166.174V18.4667L168.996 18.665V35.87L166.174 37.0593V37.3764H172.592V37.0593L169.615 35.87L169.46 21.1228H169.654L176.343 37.3764H176.923L182.027 19.9732H182.22V36.7422L180.635 36.98V37.4557H188.136V36.98L186.512 36.7422V18.5857L188.136 18.3874V18.0307H182.143L178.508 30.2407H178.354Z" fill="#8066C4"/>
<path d="M199.583 35.8304C201.052 36.7819 202.753 37.4954 204.687 37.4954C208.244 37.4954 211.376 35.5926 211.376 31.5093C211.376 27.9811 208.321 26.2369 205.692 25.1665C203.797 24.3736 201.98 23.4222 201.98 21.3607C201.98 18.7839 204.377 18.3875 205.228 18.3875C207.007 18.3875 208.205 19.4579 209.404 22.0347C209.675 22.6293 209.945 23.1844 210.216 23.7789H210.487L210.371 18.11H210.1L209.829 19.2993C208.747 18.5858 206.852 17.9911 205.228 17.9911C201.593 17.9911 198.693 19.9732 198.693 23.4222C198.693 26.7126 201.4 28.219 204.068 29.3686C206.04 30.2408 208.089 31.3904 208.089 33.6897C208.089 36.2665 206.349 37.0594 204.725 37.0594C202.521 37.0594 201.052 35.6719 200.008 33.1347C199.737 32.5004 199.467 31.8661 199.196 31.2319H198.925L199.041 37.2972H199.312L199.583 35.8304Z" fill="#8066C4"/>
<path d="M212.342 22.7483H212.612L215.551 18.7047L217.716 18.5857V36.8214L216.092 37.0197V37.4161H223.594V37.0197L222.008 36.8214V18.5857L224.135 18.7047L227.074 22.7483H227.344L227.228 18.0704H212.496L212.342 22.7483Z" fill="#8066C4"/>
<path d="M34.7841 25.8403C34.7841 25.8007 34.7841 25.8007 34.7841 25.8403C34.7841 25.8007 34.7841 25.8007 34.7841 25.8403C34.7841 25.8007 34.7454 25.7611 34.7067 25.7611C34.6681 25.7611 34.6294 25.8007 34.6294 25.8403C33.6627 29.5668 30.7241 32.6986 26.7801 33.6897C20.9414 35.1565 15.0254 30.2011 13.9041 25.6818C13.7107 24.4925 13.7881 24.4529 13.8267 24.0168C13.8267 24.0961 13.8654 24.2151 13.8654 24.3339C14.0587 25.5232 14.6001 26.6729 15.5281 27.7433C18.4667 31.1526 24.3827 32.2229 28.6361 29.8046C32.8507 27.4261 33.8174 22.7086 30.7627 19.1804C29.9894 18.2685 29.0227 17.555 27.9787 17H27.9401C27.9014 17 27.8627 17.0397 27.8627 17.0793C27.8627 17.119 27.8627 17.119 27.9014 17.119C30.4534 20.33 29.9121 24.8096 26.5867 27.2279C23.1454 29.7651 18.0414 29.0515 15.2961 25.88C14.7161 25.2061 14.2521 24.3736 14.0974 23.8582C14.0587 23.7393 14.0201 23.6204 14.0201 23.5014C14.0201 23.5014 14.0201 23.5014 14.0201 23.4618C14.6774 23.9772 16.6107 25.4043 19.1241 25.4043C27.3214 25.4439 26.5094 17.5154 21.0961 17.4757C19.5881 17.4757 17.8481 18.0704 16.1467 19.6165C15.1801 20.6472 14.4454 21.559 13.7881 23.1843C13.7881 23.1843 13.4014 24.2151 13.2467 25.0475C13.2081 25.2458 13.1694 25.5232 13.1307 25.7611C13.0921 26.1179 13.0534 26.435 13.0147 26.7918C12.7054 32.8175 17.3067 38.2883 23.4161 38.6054C27.3214 38.8037 30.8401 36.8611 32.9281 33.8086L32.8894 33.769C30.5307 36.5043 26.7801 38.0108 22.8361 37.3764C17.3841 36.4647 13.5561 31.7472 13.3241 26.6333C13.3241 26.3557 13.3241 26.0386 13.4787 25.2853C13.4787 25.2458 13.4787 25.2458 13.4787 25.2061C13.4787 25.5629 13.5174 25.9593 13.5947 26.3557C14.5614 32.2626 20.0521 36.6233 25.9681 35.7512C30.9174 34.9979 34.4747 30.7957 34.7841 25.8403Z" fill="#8066C4"/>
</svg>
