<svg width="256" height="56" viewBox="0 0 256 56" fill="#8088DC" xmlns="http://www.w3.org/2000/svg">
<path fill-rule="evenodd" clip-rule="evenodd" d="M141.707 21.7963C139.765 21.7963 138.227 22.2011 136.689 23.0376C136.689 18.5851 136.689 14.5644 136.824 13.1611L127.516 14.8342V15.6707L128.487 15.8057C129.728 16.0755 130.16 16.7771 130.43 18.4502C130.7 21.7963 130.565 39.6064 130.43 42.5208C132.939 43.0874 135.583 43.4922 138.227 43.4922C145.592 43.4922 150.044 38.9048 150.044 31.6728C150.071 25.952 146.455 21.7963 141.707 21.7963ZM138.524 41.9541C137.957 41.9541 137.283 41.9541 136.851 41.8192C136.716 39.8762 136.581 31.6728 136.716 24.4408C137.552 24.171 138.119 24.0361 138.793 24.0361C141.842 24.0361 143.515 27.6521 143.515 32.1046C143.515 37.6365 141.437 41.9541 138.524 41.9541Z" fill="#8088DC"/>
<path fill-rule="evenodd" clip-rule="evenodd" d="M92.4969 13.7273H68V14.9686L69.4029 15.1036C71.2105 15.3734 71.912 16.5068 72.1817 19.1243C72.5864 24.1435 72.4515 33.1835 72.1817 37.4741C71.912 40.1186 71.2105 41.3599 69.4029 41.4949L68 41.7647V42.8711H83.7018V41.7647L82.0291 41.4949C80.2215 41.3599 79.52 40.0916 79.2502 37.4741C79.1154 35.6661 78.9805 32.7517 78.9805 29.1357L82.3259 29.2707C84.4032 29.2707 85.3745 30.9437 85.8061 33.2914H87.0472V23.4689H85.8061C85.4015 25.8436 84.4032 27.4897 82.3259 27.4897L78.9805 27.6246C78.9805 22.9022 79.1154 18.4497 79.2502 15.8052H84.1065C87.8566 15.8052 89.799 18.1799 91.2019 22.3355L92.6049 21.9308L92.4969 13.7273Z" fill="#8088DC"/>
<path fill-rule="evenodd" clip-rule="evenodd" d="M100.401 21.5259C107.362 21.5259 110.842 26.2483 110.842 32.5088C110.842 38.4994 106.957 43.4917 99.9968 43.4917C93.0362 43.4917 89.5559 38.7693 89.5559 32.5088C89.5559 26.5181 93.4679 21.5259 100.401 21.5259ZM99.9968 22.9021C96.9482 22.9021 96.1118 27.0848 96.1118 32.5088C96.1118 37.7978 97.5147 42.1154 100.294 42.1154C103.504 42.1154 104.313 37.9328 104.313 32.5088C104.313 27.2197 102.911 22.9021 99.9968 22.9021Z" fill="#8088DC"/>
<path fill-rule="evenodd" clip-rule="evenodd" d="M151.877 32.6437C151.877 26.9499 155.493 21.5259 162.588 21.5259C168.416 21.5259 171.221 25.8435 171.221 31.5373H158.298C158.164 36.6914 160.673 40.4424 165.664 40.4424C167.876 40.4424 169.009 39.8757 170.385 38.9042L170.952 39.6058C169.549 41.5487 166.5 43.4917 162.615 43.4917C156.329 43.4917 151.877 39.0391 151.877 32.6437ZM158.271 29.9992L164.8 29.8643C164.8 27.0848 164.396 22.9021 162.022 22.9021C159.647 22.9021 158.406 26.788 158.271 29.9992Z" fill="#8088DC"/>
<path fill-rule="evenodd" clip-rule="evenodd" d="M187.759 22.6323C186.086 21.9307 183.874 21.5259 181.365 21.5259C176.212 21.5259 173.028 24.5752 173.028 28.1912C173.028 31.8072 175.403 33.3453 178.721 34.4517C182.201 35.693 183.172 36.6645 183.172 38.3375C183.172 40.0106 181.931 41.5487 179.692 41.5487C177.048 41.5487 175.106 40.0106 173.568 35.8549L172.597 36.1248L172.732 42.2503C174.404 42.952 177.453 43.4917 180.097 43.4917C185.52 43.4917 189 40.7122 189 36.3946C189 33.4802 187.462 31.8072 183.847 30.404C179.962 28.8658 178.559 27.8944 178.559 26.0864C178.559 24.2784 179.8 23.0371 181.473 23.0371C183.982 23.0371 185.655 24.5752 186.896 28.3261L187.867 28.0563L187.759 22.6323Z" fill="#8088DC"/>
<path fill-rule="evenodd" clip-rule="evenodd" d="M128.92 22.0663C126.546 20.6631 122.391 21.3647 120.152 26.3839L120.287 21.5266L110.979 23.3346V24.1711L111.95 24.3061C113.191 24.441 113.758 25.1426 113.892 26.9506C114.162 30.2967 114.027 36.1255 113.892 39.0398C113.758 40.7129 113.191 41.5494 111.95 41.6844L110.979 41.8193V42.9257H123.902V41.8193L122.229 41.6844C120.826 41.5494 120.421 40.7129 120.287 39.0398C120.017 36.3953 120.017 31.1063 120.152 27.7601C120.853 26.7887 123.902 25.9521 126.681 27.7601L128.92 22.0663Z" fill="#8088DC"/>
<path d="M158.516 14.7274H159.757L161.133 18.3974L162.509 14.7274H163.75V19.2879H162.994V15.51H162.886L161.51 19.126H160.728L159.352 15.51H159.244V19.3149H158.489V14.7274H158.516Z" fill="#8088DC"/>
<path d="M165.882 14.727H169.146V15.3477H166.61V16.7239H168.687V17.3176H166.61V18.6938H169.146V19.3145H165.882V14.727ZM168.364 13L168.606 13.5667L166.826 14.1064L166.583 13.5937L168.364 13Z" fill="#8088DC"/>
<path d="M172.681 16.5618L173.868 14.7538H174.704L173.166 17.0475L174.704 19.3142H173.868L172.681 17.5332L171.466 19.3142H170.63L172.168 17.0475L170.63 14.7538H171.466L172.681 16.5618Z" fill="#8088DC"/>
<path d="M176.376 14.7274H177.132V19.2879H176.376V14.7274Z" fill="#8088DC"/>
<path d="M182.364 19.2338C182.364 19.2338 181.501 19.3957 180.881 19.3957C179.289 19.3957 178.911 18.5862 178.911 17.048C178.911 15.4559 179.343 14.6734 180.881 14.6734C181.555 14.6734 182.364 14.8353 182.364 14.8353L182.337 15.402C182.337 15.402 181.474 15.294 180.962 15.294C179.909 15.294 179.694 15.8067 179.694 17.0211C179.694 18.2354 179.882 18.7481 180.989 18.7481C181.447 18.7481 182.337 18.6402 182.337 18.6402L182.364 19.2338Z" fill="#8088DC"/>
<path d="M183.903 17.048C183.903 15.5369 184.388 14.6734 186.007 14.6734C187.653 14.6734 188.139 15.5369 188.139 17.048C188.139 18.6132 187.653 19.3688 186.007 19.3688C184.361 19.3688 183.903 18.5862 183.903 17.048ZM187.356 17.048C187.356 15.9147 187.113 15.294 186.007 15.294C184.901 15.294 184.658 15.9147 184.658 17.048C184.658 18.1814 184.901 18.7481 186.007 18.7481C187.113 18.7751 187.356 18.2354 187.356 17.048Z" fill="#8088DC"/>
</svg>
