<svg width="100" height="100" viewBox="0 0 100 100" fill="none" xmlns="http://www.w3.org/2000/svg">
<path d="M89.4 42.3084C89.9125 45.0542 90.1917 47.9251 90.1917 50.9209C90.1917 74.3542 74.5083 91.0167 50.8208 91.0167C45.434 91.0184 40.0996 89.9586 35.1225 87.8979C30.1454 85.8372 25.6231 82.816 21.814 79.0069C18.0049 75.1978 14.9837 70.6755 12.923 65.6984C10.8623 60.7213 9.80253 55.3869 9.80417 50.0001C9.80253 44.6132 10.8623 39.2788 12.923 34.3017C14.9837 29.3246 18.0049 24.8023 21.814 20.9932C25.6231 17.1842 30.1454 14.163 35.1225 12.1023C40.0996 10.0416 45.434 8.98176 50.8208 8.9834C61.8958 8.9834 71.15 13.0584 78.25 19.6751L66.6875 31.2376V31.2084C62.3833 27.1084 56.9208 25.0042 50.8208 25.0042C37.2875 25.0042 26.2875 36.4376 26.2875 49.9751C26.2875 63.5084 37.2875 74.9667 50.8208 74.9667C63.1 74.9667 71.4583 67.9459 73.175 58.3042H50.8208V42.3084H89.4042H89.4Z" fill="white"/>
</svg>
