<?xml version="1.0" standalone="no"?>
<!DOCTYPE svg PUBLIC "-//W3C//DTD SVG 20010904//EN"
 "http://www.w3.org/TR/2001/REC-SVG-20010904/DTD/svg10.dtd">
<svg version="1.0" xmlns="http://www.w3.org/2000/svg"
 width="134.000000pt" height="137.000000pt" viewBox="0 0 134.000000 137.000000"
 preserveAspectRatio="xMidYMid meet">

<g transform="translate(0.000000,137.000000) scale(0.100000,-0.100000)"
fill="#1B3C87" stroke="none">
<path d="M235 1356 c-95 -30 -162 -88 -204 -176 l-26 -55 0 -425 0 -425 26
-55 c33 -70 89 -126 159 -159 l55 -26 425 0 425 0 55 26 c70 33 126 89 159
159 l26 55 0 425 0 425 -26 55 c-33 70 -89 126 -159 159 l-55 26 -410 2 c-311
2 -420 -1 -450 -11z m774 -142 c36 -30 48 -81 32 -132 -7 -21 -42 -69 -81
-112 l-70 -75 -80 81 c-44 45 -80 86 -80 93 0 6 35 47 78 91 75 78 79 80 124
80 35 0 54 -6 77 -26z m-212 -242 l81 -88 -59 -64 -58 -65 -85 85 c-47 46 -86
80 -86 75 0 -5 36 -46 79 -90 l80 -80 -47 -53 -47 -53 -42 31 c-24 18 -43 39
-43 47 0 10 -6 13 -16 9 -23 -9 -43 11 -37 34 6 21 -7 26 -23 10 -5 -5 -15 -6
-23 0 -12 7 -8 16 19 47 40 45 223 243 226 243 0 0 37 -39 81 -88z m-269 -258
c192 -132 214 -151 241 -200 29 -50 100 -109 260 -215 23 -15 24 -16 7 -41
l-17 -27 -102 71 c-124 87 -163 122 -188 171 -11 21 -42 54 -69 73 -29 21 -50
44 -50 54 0 28 -156 133 -199 134 -25 1 -41 10 -61 34 -22 27 -36 33 -86 40
l-59 7 25 23 c47 43 69 34 298 -124z m-258 57 c0 -28 -1 -28 -35 -17 -51 16
-47 46 7 46 24 0 28 -4 28 -29z m40 -1 c0 -5 -5 -10 -11 -10 -5 0 -7 5 -4 10
3 6 8 10 11 10 2 0 4 -4 4 -10z m-67 -31 c63 -33 427 -294 427 -307 0 -9 -6
-12 -16 -8 -18 7 -347 233 -406 279 -50 38 -53 61 -5 36z m142 -19 c3 -5 1
-19 -5 -30 -11 -20 -11 -20 -45 3 -41 26 -42 29 -12 43 22 10 50 3 62 -16z
m73 -52 c5 -29 9 -54 7 -56 -7 -7 -75 44 -75 56 0 24 21 52 39 52 14 0 21 -12
29 -52z m38 -9 c10 -30 12 -31 15 -11 l4 23 43 -31 c23 -18 42 -35 42 -40 0
-4 -9 -18 -20 -31 l-19 -24 -38 21 c-33 19 -39 28 -49 78 -13 64 1 74 22 15z
m154 -120 c27 -18 56 -51 73 -80 l27 -49 -27 6 c-15 4 -36 18 -46 31 -10 13
-38 37 -63 53 -39 27 -42 33 -31 50 6 11 14 20 17 20 2 0 25 -14 50 -31z m465
-307 c3 -9 0 -22 -8 -29 -20 -21 -67 3 -67 33 0 12 6 24 13 27 17 6 55 -13 62
-31z"/>
<path d="M855 1160 c-8 -13 4 -32 16 -25 12 8 12 35 0 35 -6 0 -13 -4 -16 -10z"/>
<path d="M815 1120 c-7 -12 2 -30 16 -30 12 0 12 27 0 35 -5 3 -12 1 -16 -5z"/>
<path d="M905 1110 c-4 -6 -3 -16 3 -22 6 -6 12 -6 17 2 4 6 3 16 -3 22 -6 6
-12 6 -17 -2z"/>
<path d="M777 1073 c-12 -11 -8 -23 8 -23 8 0 15 7 15 15 0 16 -12 20 -23 8z"/>
<path d="M862 1058 c6 -18 28 -21 28 -4 0 9 -7 16 -16 16 -9 0 -14 -5 -12 -12z"/>
<path d="M955 1060 c-4 -6 -3 -16 3 -22 6 -6 12 -6 17 2 4 6 3 16 -3 22 -6 6
-12 6 -17 -2z"/>
<path d="M820 1015 c0 -8 7 -15 15 -15 8 0 15 7 15 15 0 8 -7 15 -15 15 -8 0
-15 -7 -15 -15z"/>
<path d="M910 1005 c0 -8 7 -15 15 -15 8 0 15 7 15 15 0 8 -7 15 -15 15 -8 0
-15 -7 -15 -15z"/>
<path d="M870 965 c0 -8 7 -15 15 -15 8 0 15 7 15 15 0 8 -7 15 -15 15 -8 0
-15 -7 -15 -15z"/>
<path d="M575 860 c-7 -12 2 -30 16 -30 12 0 12 27 0 35 -5 3 -12 1 -16 -5z"/>
<path d="M530 805 c0 -8 7 -15 15 -15 8 0 15 7 15 15 0 8 -7 15 -15 15 -8 0
-15 -7 -15 -15z"/>
<path d="M620 795 c0 -8 7 -15 15 -15 8 0 15 7 15 15 0 8 -7 15 -15 15 -8 0
-15 -7 -15 -15z"/>
<path d="M580 755 c0 -8 7 -15 15 -15 8 0 15 7 15 15 0 8 -7 15 -15 15 -8 0
-15 -7 -15 -15z"/>
<path d="M670 744 c0 -9 5 -14 12 -12 18 6 21 28 4 28 -9 0 -16 -7 -16 -16z"/>
<path d="M630 705 c0 -8 7 -15 15 -15 8 0 15 7 15 15 0 8 -7 15 -15 15 -8 0
-15 -7 -15 -15z"/>
</g>
</svg>
