<svg width="49" height="49" viewBox="0 0 49 49" fill="none" xmlns="http://www.w3.org/2000/svg">
<path d="M11.5 0H36.6C43 0 48.1 5.1 48.1 11.5V36.6C48.1 42.9 43 48.1 36.6 48.1H11.5C5.1 48.1 0 43 0 36.6V11.5C0 5.1 5.1 0 11.5 0Z" fill="#3AD1B5" fill-opacity="0.1"/>
<path d="M16.3 20.9001C14.5 22.8001 14.4 25.9001 16.2 27.7001C17.9 29.5001 20.8 29.4001 22.6 27.5001L36.6 12.4001C38.4 10.5001 38.5 7.40008 36.7 5.60008C35 3.80008 32.1 3.90008 30.3 5.80008L16.3 20.9001Z" fill="white" stroke="#1B3C87" stroke-width="0.3" stroke-miterlimit="10" stroke-linecap="round" stroke-linejoin="round"/>
<path d="M25.5999 10.8L31.8999 17.4L27.1999 22.5L20.8999 15.9L25.5999 10.8Z" fill="#EDE9F7" stroke="#1B3C87" stroke-width="0.3" stroke-miterlimit="10" stroke-linecap="round" stroke-linejoin="round"/>
<path d="M28.6001 11.1C28.7001 10.9 28.6001 10.7 28.4001 10.6C28.2001 10.5 28.0001 10.6 27.9001 10.9C27.8001 11.1 27.9001 11.3 28.1001 11.4C28.3001 11.4 28.6001 11.3 28.6001 11.1Z" stroke="#1B3C87" stroke-width="0.3" stroke-miterlimit="10" stroke-linecap="round" stroke-linejoin="round"/>
<path d="M30.3999 12.9C30.4999 12.7 30.3999 12.5 30.1999 12.4C29.9999 12.3 29.7999 12.4 29.6999 12.7C29.5999 12.9 29.6999 13.1 29.8999 13.2C30.0999 13.2 30.2999 13.1 30.3999 12.9Z" stroke="#1B3C87" stroke-width="0.3" stroke-miterlimit="10" stroke-linecap="round" stroke-linejoin="round"/>
<path d="M32.1001 14.7001C32.2001 14.5001 32.1001 14.3001 31.9001 14.2001C31.7001 14.1001 31.5001 14.2001 31.4001 14.5001C31.3001 14.7001 31.4001 14.9001 31.6001 15.0001C31.8001 15.0001 32.0001 14.9001 32.1001 14.7001Z" stroke="#1B3C87" stroke-width="0.3" stroke-miterlimit="10" stroke-linecap="round" stroke-linejoin="round"/>
<path d="M30 9.50015C30.1 9.30015 30 9.10015 29.8 9.00015C29.6 8.90015 29.4 9.00015 29.3 9.30015C29.2 9.50015 29.3 9.70015 29.5 9.80015C29.7 9.90015 30 9.70015 30 9.50015Z" stroke="#1B3C87" stroke-width="0.3" stroke-miterlimit="10" stroke-linecap="round" stroke-linejoin="round"/>
<path d="M31.8003 11.3002C31.9003 11.1002 31.8003 10.9002 31.6003 10.8002C31.4003 10.7002 31.2003 10.8002 31.1003 11.1002C31.0003 11.3002 31.1003 11.5002 31.3003 11.6002C31.5003 11.7002 31.7003 11.6002 31.8003 11.3002Z" stroke="#1B3C87" stroke-width="0.3" stroke-miterlimit="10" stroke-linecap="round" stroke-linejoin="round"/>
<path d="M33.5 13.2001C33.6 13.0001 33.5 12.8001 33.3 12.7001C33.1 12.6001 32.9 12.7001 32.8 13.0001C32.7 13.2001 32.8 13.4001 33 13.5001C33.2 13.5001 33.4 13.4001 33.5 13.2001Z" stroke="#1B3C87" stroke-width="0.3" stroke-miterlimit="10" stroke-linecap="round" stroke-linejoin="round"/>
<path d="M31.5 8.00015C31.6 7.80015 31.5 7.60015 31.3 7.50015C31.1 7.40015 30.9 7.50015 30.8 7.80015C30.7 8.00015 30.8 8.20015 31 8.30015C31.2 8.30015 31.4 8.20015 31.5 8.00015Z" stroke="#1B3C87" stroke-width="0.3" stroke-miterlimit="10" stroke-linecap="round" stroke-linejoin="round"/>
<path d="M33.2002 9.8002C33.3002 9.6002 33.2002 9.4002 33.0002 9.3002C32.8002 9.2002 32.6002 9.3002 32.5002 9.6002C32.4002 9.8002 32.5002 10.0002 32.7002 10.1002C32.9002 10.1002 33.1002 10.0002 33.2002 9.8002Z" stroke="#1B3C87" stroke-width="0.3" stroke-miterlimit="10" stroke-linecap="round" stroke-linejoin="round"/>
<path d="M34.8999 11.6C34.9999 11.4 34.8999 11.2 34.6999 11.1C34.4999 11 34.2999 11.1 34.1999 11.4C34.0999 11.6 34.1999 11.8 34.3999 11.9C34.5999 12 34.8999 11.8 34.8999 11.6Z" stroke="#1B3C87" stroke-width="0.3" stroke-miterlimit="10" stroke-linecap="round" stroke-linejoin="round"/>
<path d="M18.6001 21.9C18.7001 21.7 18.6001 21.5 18.4001 21.4C18.2001 21.3 18.0001 21.4 17.9001 21.7C17.8001 21.9 17.9001 22.1 18.1001 22.2C18.3001 22.2 18.5001 22.1 18.6001 21.9Z" stroke="#1B3C87" stroke-width="0.3" stroke-miterlimit="10" stroke-linecap="round" stroke-linejoin="round"/>
<path d="M20.3003 23.7001C20.4003 23.5001 20.3003 23.3001 20.1003 23.2001C19.9003 23.1001 19.7003 23.2001 19.6003 23.5001C19.5003 23.7001 19.6003 23.9001 19.8003 24.0001C20.0003 24.1001 20.2003 23.9001 20.3003 23.7001Z" stroke="#1B3C87" stroke-width="0.3" stroke-miterlimit="10" stroke-linecap="round" stroke-linejoin="round"/>
<path d="M22 25.6C22.1 25.4 22 25.2 21.8 25.1C21.6 25 21.4 25.1 21.3 25.4C21.2 25.6 21.3 25.8 21.5 25.9C21.7 25.9 22 25.8 22 25.6Z" stroke="#1B3C87" stroke-width="0.3" stroke-miterlimit="10" stroke-linecap="round" stroke-linejoin="round"/>
<path d="M20 20.4C20.1 20.2 20 20 19.8 19.9C19.6 19.8 19.4 19.9 19.3 20.2C19.2 20.4 19.3 20.6 19.5 20.7C19.7 20.7 19.9 20.6 20 20.4Z" stroke="#1B3C87" stroke-width="0.3" stroke-miterlimit="10" stroke-linecap="round" stroke-linejoin="round"/>
<path d="M21.7002 22.2001C21.8002 22.0001 21.7002 21.8001 21.5002 21.7001C21.3002 21.6001 21.1002 21.7001 21.0002 22.0001C20.9002 22.2001 21.0002 22.4001 21.2002 22.5001C21.4002 22.5001 21.7002 22.4001 21.7002 22.2001Z" stroke="#1B3C87" stroke-width="0.3" stroke-miterlimit="10" stroke-linecap="round" stroke-linejoin="round"/>
<path d="M23.5 24.0001C23.6 23.8001 23.5 23.6001 23.3 23.5001C23.1 23.4001 22.9 23.5001 22.8 23.8001C22.7 24.0001 22.8 24.2001 23 24.3001C23.2 24.3001 23.4 24.2001 23.5 24.0001Z" stroke="#1B3C87" stroke-width="0.3" stroke-miterlimit="10" stroke-linecap="round" stroke-linejoin="round"/>
<path d="M21.3999 18.9C21.4999 18.7 21.3999 18.5 21.1999 18.4C20.9999 18.3 20.7999 18.4 20.6999 18.7C20.5999 18.9 20.6999 19.1 20.8999 19.2C21.0999 19.2 21.2999 19.1 21.3999 18.9Z" stroke="#1B3C87" stroke-width="0.3" stroke-miterlimit="10" stroke-linecap="round" stroke-linejoin="round"/>
<path d="M23.1001 20.7001C23.2001 20.5001 23.1001 20.3001 22.9001 20.2001C22.7001 20.1001 22.5001 20.2001 22.4001 20.5001C22.3001 20.7001 22.4001 20.9001 22.6001 21.0001C22.8001 21.0001 23.1001 20.9001 23.1001 20.7001Z" stroke="#1B3C87" stroke-width="0.3" stroke-miterlimit="10" stroke-linecap="round" stroke-linejoin="round"/>
<path d="M24.8999 22.5001C24.9999 22.3001 24.8999 22.1001 24.6999 22.0001C24.4999 21.9001 24.2999 22.0001 24.1999 22.3001C24.0999 22.5001 24.1999 22.7001 24.3999 22.8001C24.5999 22.8001 24.7999 22.7001 24.8999 22.5001Z" stroke="#1B3C87" stroke-width="0.3" stroke-miterlimit="10" stroke-linecap="round" stroke-linejoin="round"/>
<path d="M7.60004 19.5C6.60004 21 7.00004 23 8.50004 24L22.4 33.7C23 34.1 23.6 34.3 24.2 34.3C25.9 34.3 27.6 35 29.1 35.9L38.2 42.2C38.8 42.6 39.6 42.5 40 42C40.5 41.4 40.3 40.5 39.7 40.1L30.5 33.7C29.1 32.7 27.9 31.3 27.3 29.7C27.1 29.1 26.7 28.6 26.1 28.2L12.1 18.5C10.7 17.5 8.60004 17.9 7.60004 19.5Z" fill="white" stroke="#1B3C87" stroke-width="0.3" stroke-miterlimit="10" stroke-linecap="round" stroke-linejoin="round"/>
<path d="M28.4001 35.5001C27.2001 34.6001 26.3001 33.4001 25.8001 32.0001C25.6001 31.4001 25.2001 30.9001 24.6001 30.5001L10.6001 20.8001C9.6001 20.0001 8.2001 20.0001 7.1001 20.7001" stroke="#1B3C87" stroke-width="0.3" stroke-miterlimit="10" stroke-linecap="round" stroke-linejoin="round"/>
<path d="M24.7001 34.3001C24.6001 34.2001 24.6001 34.0001 24.5001 33.9001C24.3001 33.3001 23.9001 32.8001 23.3001 32.4001L9.3001 22.7001C8.6001 22.2001 7.9001 22.1001 7.1001 22.1001" stroke="#1B3C87" stroke-width="0.3" stroke-miterlimit="10" stroke-linecap="round" stroke-linejoin="round"/>
<path d="M40.1 42C39.7 42.6 38.9 42.7 38.3 42.3L37.5 41.8C36.9 41.4 36.8 40.6 37.2 40C37.6 39.4 38.4 39.3 39 39.7L39.8 40.2C40.4 40.6 40.5 41.4 40.1 42Z" fill="#EDE9F7" stroke="#1B3C87" stroke-width="0.3" stroke-miterlimit="10" stroke-linecap="round" stroke-linejoin="round"/>
<path d="M21.5001 28.2001L20.8001 29.2001C20.5001 29.7001 19.8001 29.8001 19.3001 29.5001L14.1001 25.9001C13.6001 25.6001 13.5001 24.9001 13.8001 24.4001L14.5001 23.4001C14.8001 22.9001 15.5001 22.8001 16.0001 23.1001L21.2001 26.7001C21.7001 27.1001 21.8001 27.8001 21.5001 28.2001Z" fill="#EDE9F7" stroke="#1B3C87" stroke-width="0.3" stroke-miterlimit="10" stroke-linecap="round" stroke-linejoin="round"/>
<path d="M16.2998 23.4001L17.0998 28.1001" stroke="#1B3C87" stroke-width="0.3" stroke-miterlimit="10" stroke-linecap="round" stroke-linejoin="round"/>
<path d="M17.7998 24.4001L18.0998 26.3001" stroke="#1B3C87" stroke-width="0.3" stroke-miterlimit="10" stroke-linecap="round" stroke-linejoin="round"/>
<path d="M11.7 20.9001C11.2 20.4001 10.5 20.4001 10 20.9001C9.5 21.4001 9.5 22.1001 10 22.6001C10.5 23.1001 11.2 23.1001 11.7 22.6001C12.2 22.1001 12.2 21.3001 11.7 20.9001Z" fill="#EDE9F7" stroke="#1B3C87" stroke-width="0.3" stroke-miterlimit="10" stroke-linecap="round" stroke-linejoin="round"/>
<path d="M11.3 21.3001C11.1 21.1001 10.7 21.1001 10.4 21.3001C10.2 21.5001 10.2 21.9001 10.4 22.2001C10.6 22.4001 11 22.4001 11.3 22.2001C11.6 21.9001 11.6 21.5001 11.3 21.3001Z" fill="#F7F6FB" stroke="#1B3C87" stroke-width="0.3" stroke-miterlimit="10" stroke-linecap="round" stroke-linejoin="round"/>
</svg>
