<svg width="103" height="26" viewBox="0 0 103 26" fill="none" xmlns="http://www.w3.org/2000/svg">
<path fill-rule="evenodd" clip-rule="evenodd" d="M62.7423 7.48757C61.0887 7.48757 59.7797 7.83213 58.4707 8.54422C58.4707 4.75407 58.4707 1.33144 58.5855 0.136963L50.6624 1.56114V2.27323L51.4891 2.38809C52.5455 2.61779 52.913 3.21503 53.1426 4.63921C53.3723 7.48757 53.2575 22.6482 53.1426 25.129C55.2784 25.6114 57.5291 25.956 59.7797 25.956C66.0493 25.956 69.8386 22.051 69.8386 15.8948C69.8616 11.0251 66.7842 7.48757 62.7423 7.48757ZM60.0323 24.6467C59.55 24.6467 58.9759 24.6467 58.6085 24.5318C58.4936 22.8779 58.3788 15.8948 58.4936 9.7387C59.2056 9.50899 59.6878 9.39414 60.262 9.39414C62.8571 9.39414 64.281 12.4722 64.281 16.2624C64.281 20.9714 62.5126 24.6467 60.0323 24.6467Z" fill="#1B3C87"/>
<path fill-rule="evenodd" clip-rule="evenodd" d="M20.8528 0.618988H0V1.67564L1.19421 1.79049C2.73291 2.0202 3.33001 2.98497 3.55967 5.21312C3.90415 9.48566 3.78932 17.1808 3.55967 20.8332C3.33001 23.0843 2.73291 24.1409 1.19421 24.2558L0 24.4855V25.4273H13.366V24.4855L11.9421 24.2558C10.4034 24.1409 9.80631 23.0613 9.57666 20.8332C9.46183 19.2941 9.347 16.8133 9.347 13.7352L12.1947 13.8501C13.9631 13.8501 14.7899 15.2743 15.1573 17.2727H16.2137V8.9114H15.1573C14.8128 10.9328 13.9631 12.334 12.1947 12.334L9.347 12.4489C9.347 8.42901 9.46183 4.63885 9.57666 2.38773H13.7105C16.9027 2.38773 18.5562 4.40915 19.7504 7.94663L20.9446 7.60207L20.8528 0.618988Z" fill="#1B3C87"/>
<path fill-rule="evenodd" clip-rule="evenodd" d="M27.5817 7.25726C33.5068 7.25726 36.4693 11.2771 36.4693 16.6063C36.4693 21.7058 33.1623 25.9554 27.2372 25.9554C21.312 25.9554 18.3495 21.9355 18.3495 16.6063C18.3495 11.5068 21.6795 7.25726 27.5817 7.25726ZM27.2372 8.42877C24.6421 8.42877 23.9301 11.9892 23.9301 16.6063C23.9301 21.1086 25.1243 24.7839 27.4898 24.7839C30.2227 24.7839 30.9117 21.2234 30.9117 16.6063C30.9117 12.1041 29.7175 8.42877 27.2372 8.42877Z" fill="#1B3C87"/>
<path fill-rule="evenodd" clip-rule="evenodd" d="M71.4001 16.7212C71.4001 11.8744 74.4775 7.25726 80.5175 7.25726C85.4781 7.25726 87.8665 10.9326 87.8665 15.7794H76.866C76.7511 20.1668 78.8869 23.3597 83.1356 23.3597C85.0188 23.3597 85.9833 22.8773 87.1546 22.0504L87.6368 22.6476C86.4426 24.3015 83.8475 25.9554 80.5405 25.9554C75.1895 25.9554 71.4001 22.1652 71.4001 16.7212ZM76.843 14.4701L82.4007 14.3552C82.4007 11.9892 82.0562 8.42877 80.0352 8.42877C78.0142 8.42877 76.9578 11.7365 76.843 14.4701Z" fill="#1B3C87"/>
<path fill-rule="evenodd" clip-rule="evenodd" d="M101.944 8.19906C100.52 7.60182 98.6366 7.25726 96.5008 7.25726C92.1144 7.25726 89.4044 9.85295 89.4044 12.931C89.4044 16.0091 91.4254 17.3184 94.2502 18.2602C97.2127 19.3169 98.0395 20.1438 98.0395 21.568C98.0395 22.9922 96.9831 24.3015 95.0769 24.3015C92.8263 24.3015 91.1728 22.9922 89.8638 19.4547L89.037 19.6844L89.1518 24.8987C90.5757 25.496 93.1708 25.9554 95.4214 25.9554C100.038 25.9554 103 23.5894 103 19.9141C103 17.4333 101.691 16.0091 98.6136 14.8146C95.3066 13.5053 94.1124 12.6783 94.1124 11.1393C94.1124 9.60027 95.1688 8.54362 96.5927 8.54362C98.7285 8.54362 100.152 9.85295 101.209 13.0459L102.036 12.8162L101.944 8.19906Z" fill="#1B3C87"/>
<path fill-rule="evenodd" clip-rule="evenodd" d="M51.8571 7.71745C49.8361 6.52297 46.2994 7.12021 44.3933 11.3928L44.5081 7.25803L36.585 8.79707V9.50916L37.4117 9.62401C38.4681 9.73887 38.9504 10.3361 39.0652 11.8751C39.2949 14.7235 39.1801 19.6852 39.0652 22.166C38.9504 23.5902 38.4681 24.3023 37.4117 24.4171L36.585 24.532V25.4738H47.5855V24.532L46.1616 24.4171C44.9674 24.3023 44.6229 23.5902 44.5081 22.166C44.2784 19.9149 44.2784 15.4126 44.3933 12.5643C44.9904 11.7373 47.5855 11.0252 49.9509 12.5643L51.8571 7.71745Z" fill="#1B3C87"/>
<path d="M77.0506 1.47049H78.107L79.2782 4.5945L80.4495 1.47049H81.5059V5.35253H80.8628V2.13664H80.771L79.5997 5.21471H78.9337L77.7625 2.13664H77.6706V5.3755H77.0276V1.47049H77.0506Z" fill="#1B3C87"/>
<path d="M83.3207 1.47012H86.0995V1.99845H83.9408V3.16995H85.7091V3.67531H83.9408V4.84681H86.0995V5.37514H83.3207V1.47012ZM85.4335 0L85.6402 0.482384L84.1245 0.941797L83.9178 0.505355L85.4335 0Z" fill="#1B3C87"/>
<path d="M89.1079 3.03195L90.1184 1.49292H90.8304L89.5213 3.44543L90.8304 5.37496H90.1184L89.1079 3.8589L88.0745 5.37496H87.3625L88.6716 3.44543L87.3625 1.49292H88.0745L89.1079 3.03195Z" fill="#1B3C87"/>
<path d="M92.2542 1.47049H92.8972V5.35253H92.2542V1.47049Z" fill="#1B3C87"/>
<path d="M97.3517 5.30648C97.3517 5.30648 96.6168 5.4443 96.0886 5.4443C94.7336 5.4443 94.4121 4.75518 94.4121 3.44586C94.4121 2.09059 94.7796 1.42444 96.0886 1.42444C96.6627 1.42444 97.3517 1.56226 97.3517 1.56226L97.3287 2.04465C97.3287 2.04465 96.5938 1.95276 96.1575 1.95276C95.2618 1.95276 95.0781 2.38921 95.0781 3.42289C95.0781 4.45657 95.2389 4.89301 96.1805 4.89301C96.5709 4.89301 97.3287 4.80113 97.3287 4.80113L97.3517 5.30648Z" fill="#1B3C87"/>
<path d="M98.6613 3.44586C98.6613 2.1595 99.0746 1.42444 100.453 1.42444C101.853 1.42444 102.267 2.1595 102.267 3.44586C102.267 4.77815 101.853 5.42133 100.453 5.42133C99.0517 5.42133 98.6613 4.75518 98.6613 3.44586ZM101.601 3.44586C101.601 2.48109 101.394 1.95276 100.453 1.95276C99.511 1.95276 99.3043 2.48109 99.3043 3.44586C99.3043 4.41062 99.511 4.89301 100.453 4.89301C101.394 4.91598 101.601 4.45656 101.601 3.44586Z" fill="#1B3C87"/>
</svg>
