<svg width="176" height="37" viewBox="0 0 176 37" fill="none" xmlns="http://www.w3.org/2000/svg">
<path fill-rule="evenodd" clip-rule="evenodd" d="M26.9492 7.00537H46.3392V15.3854H42.4492L41.5192 11.4754H37.5292V14.8254H41.4792V19.5954H37.5292V22.9354H41.4992L42.4292 19.0354H46.6392V27.4154H26.9492V22.9354H29.3792V11.4754H26.9492V7.00537Z" fill="#1B3C87"/>
<path fill-rule="evenodd" clip-rule="evenodd" d="M61.48 27.4154H47.8496V22.9354H50.28V11.4754H47.8496V7.00537H67.25V15.3854H63.36L62.43 11.4754H58.44V15.1254H62.39V19.8954H58.44V22.9354H61.5L61.48 27.4154Z" fill="#1B3C87"/>
<path fill-rule="evenodd" clip-rule="evenodd" d="M139.85 7.00536L136.82 14.8254L133.6 7.00536H121.65V11.4754H124.08V22.3154C124.08 22.7154 123.98 22.9354 123.43 22.9354H121.65V27.4054H131.33V22.9354H129.53C129.23 22.9354 128.9 22.6354 128.9 22.3154L128.92 14.6654L134.08 27.4054H136.21L141.41 14.0254V22.3154C141.41 22.7154 141.19 22.9354 140.78 22.9354H139.28V27.4054H150.93V22.9354C150.93 22.9354 149.43 22.9354 149.13 22.9354C148.83 22.9354 148.5 22.6154 148.5 22.3154C148.5 22.0854 148.5 15.6454 148.5 11.4654H148.42H150.92V6.99536L139.85 7.00536Z" fill="#1B3C87"/>
<path fill-rule="evenodd" clip-rule="evenodd" d="M162.47 11.3254H162.69L164.05 17.6854H161.35L160.7 21.3254H164.72L165.01 22.9354H163.34V27.4154H175.75V22.9354H173.62L170.44 11.4754H172.56V7.00537H154.88V11.4754H157L154.57 22.9354H152.15V27.4154H161.97V22.9354H160.46L162.47 11.3254Z" fill="#1B3C87"/>
<path fill-rule="evenodd" clip-rule="evenodd" d="M81.459 6.10547C73.239 6.10547 68.119 10.6355 68.119 16.8555C68.119 23.2055 73.299 27.7355 81.459 27.7355C89.639 27.7355 94.799 23.2055 94.799 16.9155C94.799 10.6355 89.689 6.10547 81.459 6.10547Z" fill="#1B3C87"/>
<path fill-rule="evenodd" clip-rule="evenodd" d="M105.11 11.4754C105.11 11.4754 108.77 11.4754 109.38 11.4754C109.98 11.4754 111.26 11.6354 111.26 13.1654C111.26 14.5954 110.01 15.0454 109 15.0454C108.7 15.0454 105.09 15.0454 105.09 15.0454V19.5954H106.87C106.87 19.5954 112.6 26.2254 112.81 26.4754C113.02 26.7154 113.69 27.4154 114.69 27.4154H120.55V22.9454C120.55 22.9454 120 22.9454 119.7 22.9454C119.4 22.9454 118.91 22.7454 118.79 22.6454C118.4 22.3154 114.71 18.8754 114.73 18.8654C117.76 18.2854 119.38 16.3254 119.38 13.0054C119.38 7.93538 114.8 7.01538 112.17 7.01538C110.03 7.01538 94.52 7.01538 94.52 7.01538V11.4854H96.95V22.9454H94.52V27.4154H107.54V22.9454H105.11V11.4754Z" fill="#1B3C87"/>
<path fill-rule="evenodd" clip-rule="evenodd" d="M10.59 11.4754C10.59 11.4754 14.25 11.4754 14.86 11.4754C15.46 11.4754 16.74 11.6354 16.74 13.1654C16.74 14.5954 15.48 15.0454 14.48 15.0454C14.18 15.0454 10.57 15.0454 10.57 15.0454V19.5954H12.35C12.35 19.5954 18.08 26.2254 18.29 26.4754C18.5 26.7154 19.17 27.4154 20.17 27.4154H25.73V22.9454C25.73 22.9454 25.49 22.9454 25.18 22.9454C24.88 22.9454 24.39 22.7454 24.27 22.6454C23.88 22.3154 20.19 18.8754 20.21 18.8654C23.24 18.2854 24.86 16.3254 24.86 13.0054C24.86 7.93538 20.28 7.01538 17.65 7.01538C15.51 7.01538 0 7.01538 0 7.01538V11.4854H2.43V22.9454H0V27.4154H13.02V22.9454H10.59V11.4754Z" fill="#1B3C87"/>
<path fill-rule="evenodd" clip-rule="evenodd" d="M42.4896 33.7555C42.4196 33.9455 42.3196 34.1055 42.1696 34.2355C42.0296 34.3555 41.7896 34.4155 41.4596 34.4155C40.9696 34.4155 40.6196 34.2655 40.4096 33.9755C40.1996 33.6855 40.0996 33.2055 40.0996 32.5155C40.0996 31.7555 40.1996 31.2155 40.3996 30.8655C40.5996 30.5255 40.8696 30.3655 41.2296 30.3655C41.3896 30.3655 41.5196 30.3955 41.5996 30.4755C41.7096 30.5855 41.7796 30.8055 41.8096 30.8855L41.8696 30.4155L42.5196 30.4255L42.4696 31.9755L41.7096 31.9555C41.7096 31.7455 41.6996 31.5655 41.6796 31.4055C41.6596 31.2455 41.5996 31.1655 41.4796 31.1655C41.3596 31.1655 41.2796 31.2755 41.2096 31.4855C41.1496 31.6955 41.1196 32.0155 41.1196 32.4455C41.1196 32.9155 41.1396 33.2455 41.1896 33.4455C41.2296 33.6255 41.3396 33.7255 41.5196 33.7255C41.6696 33.7255 41.7696 33.6455 41.8296 33.4755C41.8796 33.3155 41.8796 33.0655 41.8296 32.7455L42.4896 32.6855C42.5296 32.8155 42.5596 32.9755 42.5696 33.1855C42.5796 33.3755 42.5596 33.5655 42.4896 33.7555Z" fill="#1B3C87"/>
<path fill-rule="evenodd" clip-rule="evenodd" d="M47.4706 33.9354C47.2806 34.2554 46.9406 34.4155 46.4506 34.4155C45.9906 34.4155 45.6506 34.2455 45.4406 33.9155C45.2406 33.5755 45.1506 33.0854 45.1406 32.4354C45.1406 31.7154 45.2306 31.1754 45.4306 30.8354C45.6306 30.4954 45.9706 30.3354 46.4506 30.3354C46.9406 30.3354 47.2806 30.5054 47.4706 30.8554C47.6606 31.1954 47.7506 31.7254 47.7606 32.4354C47.7606 33.1154 47.6706 33.6154 47.4706 33.9354ZM46.6906 31.2954C46.6506 31.1054 46.5606 31.0154 46.4406 31.0054C46.3106 31.0054 46.2306 31.0854 46.1906 31.2554C46.1506 31.4154 46.1406 31.8054 46.1306 32.4254C46.1306 33.0554 46.1506 33.4255 46.2106 33.5555C46.2606 33.6755 46.3406 33.7355 46.4406 33.7355C46.5206 33.7355 46.5706 33.7254 46.6106 33.6954C46.6506 33.6654 46.6806 33.6054 46.7006 33.4954C46.7206 33.3854 46.7306 33.2655 46.7406 33.1255C46.7506 32.9855 46.7506 32.7554 46.7506 32.4354C46.7606 31.8754 46.7406 31.4954 46.6906 31.2954Z" fill="#1B3C87"/>
<path fill-rule="evenodd" clip-rule="evenodd" d="M53.09 34.1053C53 34.2853 52.75 34.3853 52.46 34.3853C52.19 34.3853 52.06 34.3053 51.95 34.1553C51.84 33.9953 51.78 33.7053 51.76 33.2553C51.75 33.0553 51.74 32.9053 51.72 32.8153C51.7 32.7253 51.61 32.6853 51.54 32.6853H51.35V33.7053H51.61C51.61 33.7053 51.61 33.7253 51.62 33.7553C51.63 33.7853 51.61 33.8553 51.61 33.9653C51.61 34.0253 51.61 34.1153 51.61 34.2153C51.61 34.3153 51.61 34.3653 51.61 34.3653H50.24V33.7053H50.5V31.0653H50.24V30.4053H51.67C52.04 30.4053 52.33 30.5053 52.52 30.6953C52.72 30.8853 52.81 31.1453 52.82 31.5053C52.82 31.7953 52.77 32.0153 52.63 32.1353C52.36 32.3653 52.15 32.3553 51.99 32.3753C52.14 32.4053 52.48 32.4353 52.62 32.7753C52.69 32.9453 52.69 33.1253 52.71 33.5353C52.71 33.6053 52.72 33.6453 52.74 33.6853C52.76 33.7053 52.79 33.7153 52.83 33.7253C52.91 33.7253 52.95 33.6653 52.96 33.5453C52.97 33.4253 52.97 33.3153 52.96 33.1953C52.96 33.1953 52.99 33.1853 53.06 33.1753C53.13 33.1653 53.17 33.1553 53.2 33.1553C53.21 33.1853 53.21 33.2453 53.22 33.3153C53.23 33.3853 53.24 33.4553 53.24 33.5253C53.23 33.7253 53.18 33.9153 53.09 34.1053ZM51.79 31.2253C51.75 31.1353 51.69 31.0853 51.62 31.0853H51.35V32.0453H51.62C51.69 32.0453 51.74 32.0253 51.79 31.9853C51.84 31.9453 51.86 31.8353 51.87 31.6453C51.86 31.4653 51.84 31.3253 51.79 31.2253Z" fill="#1B3C87"/>
<path fill-rule="evenodd" clip-rule="evenodd" d="M57.14 34.3555V33.6955H57.39L57.3 33.1755H56.6L56.52 33.6955H56.76V34.3555H55.59V33.6955H55.76L56.56 30.3855H57.59L58.4 33.6955H58.61V34.3555H57.14ZM56.95 31.3555L56.71 32.5655H57.18L56.95 31.3555Z" fill="#1B3C87"/>
<path fill-rule="evenodd" clip-rule="evenodd" d="M62.03 33.6853H62.83V33.0553H63.51V34.3553H61.09V33.6653L62.65 31.0453H61.93V31.6953H61.2C61.2 31.6953 61.2 31.7053 61.2 31.4553C61.2 31.2053 61.2 30.9753 61.2 30.7453C61.2 30.6853 61.2 30.6153 61.21 30.5353C61.22 30.4553 61.22 30.4253 61.22 30.4153C61.22 30.4153 61.28 30.4153 61.4 30.4053C61.52 30.3953 61.62 30.3953 61.71 30.3953C62.02 30.3953 62.4 30.3953 62.86 30.3953C63.31 30.3953 63.53 30.3953 63.54 30.3953V31.2253L62.03 33.6853Z" fill="#1B3C87"/>
<path fill-rule="evenodd" clip-rule="evenodd" d="M68.439 33.9354C68.249 34.2554 67.909 34.4155 67.419 34.4155C66.959 34.4155 66.619 34.2455 66.409 33.9155C66.209 33.5755 66.119 33.0854 66.109 32.4354C66.109 31.7154 66.199 31.1754 66.399 30.8354C66.599 30.4954 66.939 30.3354 67.419 30.3354C67.909 30.3354 68.249 30.5054 68.439 30.8554C68.629 31.1954 68.719 31.7254 68.729 32.4354C68.729 33.1154 68.639 33.6154 68.439 33.9354ZM67.659 31.2954C67.619 31.1054 67.529 31.0154 67.409 31.0054C67.279 31.0054 67.199 31.0854 67.159 31.2554C67.119 31.4154 67.099 31.8054 67.099 32.4254C67.099 33.0554 67.119 33.4255 67.179 33.5555C67.229 33.6755 67.309 33.7355 67.409 33.7355C67.489 33.7355 67.539 33.7254 67.589 33.6954C67.629 33.6654 67.659 33.6054 67.679 33.4954C67.699 33.3854 67.709 33.2655 67.719 33.1255C67.729 32.9855 67.729 32.7554 67.729 32.4354C67.729 31.8754 67.709 31.4954 67.659 31.2954Z" fill="#1B3C87"/>
<path fill-rule="evenodd" clip-rule="evenodd" d="M73.95 31.0553V34.3553H73.17L72.24 32.1953V33.6953H72.53V34.3553H71.26V33.6953H71.52V31.0553H71.26V30.3953H72.35L73.25 32.5053V31.0553H72.96V30.3953H74.2V31.0553H73.95Z" fill="#1B3C87"/>
<path fill-rule="evenodd" clip-rule="evenodd" d="M91.291 33.8953C91.061 34.1953 90.701 34.3453 90.211 34.3553H88.891V33.6953H89.191V31.0553H88.891V30.3953H90.141C90.361 30.3953 90.561 30.4253 90.741 30.4753C90.911 30.5253 91.071 30.6353 91.211 30.7853C91.351 30.9453 91.461 31.1453 91.541 31.3953C91.621 31.6353 91.651 31.9753 91.651 32.4253C91.641 33.1053 91.531 33.5853 91.291 33.8953ZM90.551 31.4953C90.481 31.2353 90.361 31.1053 90.181 31.0953H90.101V33.6953H90.181C90.341 33.6953 90.461 33.5953 90.541 33.3953C90.621 33.1953 90.651 32.8853 90.661 32.4253C90.661 32.0753 90.631 31.7653 90.551 31.4953Z" fill="#1B3C87"/>
<path fill-rule="evenodd" clip-rule="evenodd" d="M105.941 34.3553V33.6953H106.241V31.7653L105.621 34.3553H105.091L104.451 31.6753V33.6953H104.691V34.3553H103.391V33.6953H103.671V31.0553H103.391V30.3953C103.391 30.3953 103.531 30.3953 103.811 30.3953C104.091 30.3953 104.291 30.3953 104.611 30.3953C104.691 30.3953 104.771 30.3953 104.881 30.4053C104.991 30.4053 105.041 30.4053 105.041 30.4153L105.431 32.2453L105.811 30.4153C105.811 30.4153 105.851 30.4153 105.921 30.4053C105.991 30.4053 106.061 30.4053 106.121 30.3953C106.411 30.3953 106.691 30.3953 107.001 30.3953C107.301 30.3953 107.451 30.3953 107.451 30.3953V31.0553H107.171V33.6953H107.451V34.3553H105.941Z" fill="#1B3C87"/>
<path fill-rule="evenodd" clip-rule="evenodd" d="M116.129 34.3553V33.6953H116.319L115.969 32.9753L115.629 33.6953H115.869V34.3553H114.699V33.6953H114.989L115.679 32.3853L115.019 31.0553H114.749V30.3953H116.229V31.0553H116.069L116.379 31.6653L116.699 31.0553H116.459V30.3953H117.579V31.0553H117.329L116.659 32.2153L117.419 33.6953H117.689V34.3553H116.129Z" fill="#1B3C87"/>
<path fill-rule="evenodd" clip-rule="evenodd" d="M120.051 34.3553V33.6953H120.371V31.0553H120.051V30.3953H121.591V31.0553H121.261V33.6953H121.591V34.3553H120.051Z" fill="#1B3C87"/>
<path fill-rule="evenodd" clip-rule="evenodd" d="M131.49 33.9354C131.3 34.2554 130.96 34.4155 130.47 34.4155C130.01 34.4155 129.67 34.2455 129.46 33.9155C129.26 33.5755 129.16 33.0854 129.16 32.4354C129.16 31.7154 129.25 31.1754 129.45 30.8354C129.65 30.4954 129.99 30.3354 130.47 30.3354C130.96 30.3354 131.3 30.5054 131.49 30.8554C131.68 31.1954 131.77 31.7254 131.78 32.4354C131.77 33.1154 131.68 33.6154 131.49 33.9354ZM130.71 31.2954C130.67 31.1054 130.59 31.0154 130.46 31.0054C130.33 31.0054 130.25 31.0854 130.21 31.2554C130.17 31.4154 130.15 31.8054 130.15 32.4254C130.15 33.0554 130.17 33.4255 130.23 33.5555C130.28 33.6755 130.36 33.7355 130.46 33.7355C130.54 33.7355 130.59 33.7254 130.63 33.6954C130.67 33.6654 130.7 33.6054 130.72 33.4954C130.74 33.3854 130.75 33.2655 130.76 33.1255C130.77 32.9855 130.77 32.7554 130.77 32.4354C130.78 31.8754 130.76 31.4954 130.71 31.2954Z" fill="#1B3C87"/>
<path fill-rule="evenodd" clip-rule="evenodd" d="M94.119 34.3553V33.6953H94.439V31.0553H94.119V30.3953H96.709L96.699 31.7353H95.929V31.1053H95.369V32.0153H95.909V32.6853H95.369V33.6553H95.909V32.9453H96.719V34.3553H94.119Z" fill="#1B3C87"/>
<path fill-rule="evenodd" clip-rule="evenodd" d="M109.59 34.3553V33.6953H109.91V31.0553H109.59V30.3953H112.18L112.17 31.7353H111.4V31.1053H110.84V32.0153H111.38V32.6853H110.84V33.6553H111.38V32.9453H112.19V34.3553H109.59Z" fill="#1B3C87"/>
<path fill-rule="evenodd" clip-rule="evenodd" d="M126.509 33.7555C126.439 33.9455 126.339 34.1055 126.189 34.2355C126.049 34.3555 125.809 34.4155 125.479 34.4155C124.989 34.4155 124.639 34.2655 124.419 33.9755C124.209 33.6855 124.109 33.2055 124.109 32.5155C124.109 31.7555 124.209 31.2155 124.399 30.8655C124.599 30.5255 124.869 30.3655 125.229 30.3655C125.389 30.3655 125.519 30.3955 125.599 30.4755C125.699 30.5655 125.779 30.8055 125.809 30.8855L125.869 30.4155L126.519 30.4255L126.489 31.9755L125.729 31.9555C125.729 31.7455 125.729 31.5655 125.699 31.4055C125.679 31.2455 125.619 31.1655 125.499 31.1655C125.379 31.1655 125.299 31.2755 125.229 31.4855C125.169 31.6955 125.139 32.0155 125.139 32.4455C125.139 32.9155 125.159 33.2455 125.209 33.4455C125.249 33.6255 125.359 33.7255 125.539 33.7255C125.689 33.7255 125.789 33.6455 125.849 33.4755C125.899 33.3155 125.899 33.0655 125.849 32.7455L126.509 32.6855C126.549 32.8155 126.569 32.9755 126.589 33.1855C126.599 33.3755 126.569 33.5655 126.509 33.7555Z" fill="#1B3C87"/>
<path fill-rule="evenodd" clip-rule="evenodd" d="M27.4102 6.09546H46.8002V14.4755H42.9102L41.9802 10.5655H37.9902V13.9055H41.9402V18.6855H37.9902V22.0255H41.9602L42.8902 18.1155H47.1002V26.4955H27.4102V22.0255H29.8402V10.5655H27.4102V6.09546Z" fill="#1B3C87"/>
<path fill-rule="evenodd" clip-rule="evenodd" d="M61.63 26.4955H48.0098V22.0255H50.44V10.5655H48.0098V6.09546H67.4V14.4755H63.51L62.58 10.5655H58.6V14.2155H62.54V18.9855H58.6V22.0255H61.65L61.63 26.4955Z" fill="#1B3C87"/>
<path fill-rule="evenodd" clip-rule="evenodd" d="M139.39 6.09545L136.35 13.9155L133.13 6.09545H121.18V10.5654H123.61V21.4054C123.61 21.8054 123.51 22.0255 122.97 22.0255H121.19V26.4954H130.87V22.0255H129.07C128.77 22.0255 128.44 21.7254 128.44 21.4054L128.46 13.7554L133.62 26.4954H135.75L140.95 13.1154V21.4054C140.95 21.8054 140.73 22.0255 140.32 22.0255H138.82V26.4954H150.47V22.0255C150.47 22.0255 148.97 22.0255 148.67 22.0255C148.37 22.0255 148.04 21.7054 148.04 21.4054C148.04 21.1754 148.04 14.7355 148.04 10.5555H147.96H150.46V6.08545L139.39 6.09545Z" fill="#1B3C87"/>
<path fill-rule="evenodd" clip-rule="evenodd" d="M161.55 10.4155H161.77L163.13 16.7655L160.43 16.7755L159.77 20.4155H163.8L164.09 22.0255H162.42V26.4955H174.83V22.0255H172.7L169.52 10.5655H171.64V6.09546H153.96V10.5655H156.08L153.65 22.0255H151.23V26.4955H161.05V22.0255H159.53L161.55 10.4155Z" fill="#1B3C87"/>
<path fill-rule="evenodd" clip-rule="evenodd" d="M81.459 5.19556C73.239 5.19556 68.119 9.72556 68.119 15.9456C68.119 22.2956 73.299 26.8256 81.459 26.8256C89.639 26.8256 94.799 22.2956 94.799 16.0056C94.799 9.71555 89.689 5.19556 81.459 5.19556Z" fill="#1B3C87"/>
<path fill-rule="evenodd" clip-rule="evenodd" d="M104.949 10.5655C104.949 10.5655 108.609 10.5655 109.219 10.5655C109.819 10.5655 111.099 10.7255 111.099 12.2555C111.099 13.6855 109.839 14.1355 108.839 14.1355C108.539 14.1355 104.929 14.1355 104.929 14.1355V18.6855H106.709C106.709 18.6855 112.439 25.3155 112.649 25.5655C112.859 25.8055 113.529 26.5055 114.529 26.5055H120.389V22.0355C120.389 22.0355 119.839 22.0355 119.539 22.0355C119.239 22.0355 118.749 21.8355 118.629 21.7355C118.239 21.4055 114.549 17.9655 114.569 17.9555C117.599 17.3755 119.219 15.4155 119.219 12.0955C119.219 7.02547 114.639 6.10547 112.009 6.10547C109.869 6.10547 94.359 6.10547 94.359 6.10547V10.5755H96.789V22.0355H94.359V26.5055H107.379V22.0355H104.949V10.5655Z" fill="#1B3C87"/>
<path fill-rule="evenodd" clip-rule="evenodd" d="M11.5099 10.5655C11.5099 10.5655 15.1699 10.5655 15.7799 10.5655C16.3799 10.5655 17.6599 10.7255 17.6599 12.2555C17.6599 13.6855 16.3999 14.1355 15.3999 14.1355C15.0999 14.1355 11.4899 14.1355 11.4899 14.1355V18.6855H13.2699C13.2699 18.6855 18.9999 25.3155 19.2099 25.5655C19.4199 25.8055 20.0899 26.5055 21.0899 26.5055H26.6499V22.0355C26.6499 22.0355 26.4099 22.0355 26.0999 22.0355C25.7999 22.0355 25.3099 21.8355 25.1899 21.7355C24.7999 21.4055 21.1099 17.9655 21.1299 17.9555C24.1599 17.3755 25.7799 15.4155 25.7799 12.0955C25.7799 7.02547 21.1999 6.10547 18.5699 6.10547C16.4299 6.10547 0.919891 6.10547 0.919891 6.10547V10.5755H3.34989V22.0355H0.919891V26.5055H13.9399V22.0355H11.5099V10.5655Z" fill="#1B3C87"/>
<path fill-rule="evenodd" clip-rule="evenodd" d="M80.619 11.4755L81.409 8.10547L82.199 11.4755H82.209L84.109 8.58547L83.689 12.0155L86.469 9.93547L84.899 13.0155L88.239 12.0055L85.689 14.3755L89.179 14.5455L85.969 15.9055V15.9155L89.189 17.2555L85.699 17.4555L88.269 19.8055L84.919 18.8155L86.509 21.8955L83.709 19.8255L84.159 23.2555L82.229 20.3655V20.3755L81.459 23.7455L80.649 20.3855L78.769 23.2955L79.169 19.8555H79.159L76.389 21.9555L77.939 18.8655L74.609 19.9055L77.139 17.5155L73.649 17.3555L76.849 15.9755L73.619 14.6555L77.109 14.4355V14.4255L74.529 12.0955L77.879 13.0655L76.339 9.93547L79.129 12.0155L78.709 8.58547L80.619 11.4755Z" fill="white"/>
<path fill-rule="evenodd" clip-rule="evenodd" d="M86.44 36.3554C86.44 36.3554 85.08 36.3054 84.58 35.3254C84.08 34.3454 83.29 34.2354 83.29 34.2354C83.29 34.2354 83.36 34.0154 82.92 33.7154C82.92 33.7154 82.9 33.2154 82.55 32.5854C82.55 32.5854 82.57 31.9754 82.44 31.6054C82.31 31.2354 82.46 30.1754 82.68 29.7554H82.77C82.77 29.7554 82.84 30.0854 82.9 30.2554C82.9 30.2554 83.01 30.6254 82.86 31.1654C82.77 31.4854 82.79 32.2454 82.98 32.4154C83.04 32.4654 83.2 32.4654 83.25 32.4354C83.28 32.4154 83.32 32.2854 83.32 32.2854L83.55 32.2554C83.55 32.2554 83.89 31.8854 83.96 31.5854C84.03 31.2854 83.78 30.6154 83.94 30.1254C84.05 29.7854 84.6 28.7754 84.6 28.7754C84.6 28.7754 84.91 28.9054 85.21 28.9054C85.52 28.9054 87.13 28.8354 87.07 27.3754C87.01 26.3654 86 25.4654 86 25.4654C86 25.4654 86.57 23.4254 85.39 21.5754L85.41 21.4054C85.41 21.4054 85.89 21.0754 85.96 20.9254C86.02 20.7954 86.1 20.3654 86.03 20.1854C85.96 20.0354 85.35 19.3354 85.33 19.1854C85.31 19.0354 85.31 18.8154 85.18 18.7254L85.2 18.5754L85.42 18.7954C85.42 18.7954 86.03 19.0754 87.02 19.0154C88.01 18.9554 88.23 18.7154 88.23 18.7154L88.47 18.6754C88.47 18.6754 88.78 18.7354 88.97 18.6154C89.14 18.5054 89.46 18.5854 89.46 18.5854C89.51 18.5354 89.65 18.3654 89.72 18.1954C89.79 18.0254 89.79 17.8454 89.85 17.7554L89.78 17.5854C89.78 17.5854 89.34 17.4754 89.16 17.7154C89.16 17.7154 89.05 17.8254 88.94 17.8954L89.14 17.7454L89.05 17.5454C89.05 17.5454 88.7 17.8054 88.55 17.9154C88.4 18.0254 88.22 18.1554 88.05 18.1754C87.87 18.1954 86.71 17.7854 86.45 17.7654C86.19 17.7454 85.97 17.7654 85.97 17.7654L85.8 17.6154C85.8 17.6154 85.6 16.8154 85.3 16.2654C85.3 16.2654 85.67 15.8754 85.76 15.3054L85.83 15.1754C85.83 15.1754 85.52 14.6754 85.17 14.5454L84.16 13.4454C84.16 13.4454 85.18 13.4554 85.31 13.0854L85.21 12.6654C85.21 12.6654 86.2 12.8254 86.66 12.3054C86.94 11.9854 86.57 11.7454 86.57 11.7454C86.57 11.7454 87.13 11.6854 87.13 10.8754C87.13 10.6954 86.96 10.7054 86.96 10.7054C86.96 10.7054 87.71 10.0054 87.74 9.55544C87.76 9.34544 87.69 9.16544 87.69 9.16544C87.69 9.16544 88.71 8.86544 88.85 7.63544C88.89 7.28544 88.61 7.43544 88.61 7.43544L88.57 7.32544C88.57 7.32544 89.49 5.79544 89.27 4.68544C89.16 4.13544 88.88 4.27544 88.88 4.27544L88.8 4.48544C88.8 4.48544 88.39 5.23544 87.46 6.26544C86.54 7.30544 85.99 7.06544 85.28 8.08544C85.28 8.08544 84.99 9.04544 84.78 9.30544C84.78 9.30544 84.56 9.00544 84.32 8.95544C84.32 8.95544 84.17 8.39544 83.42 8.39544C82.15 8.39544 81.95 9.15544 81.95 9.15544C81.95 9.15544 81.45 9.43544 81.45 9.82544C81.45 10.2154 81.56 10.3654 81.56 10.3654C81.56 10.3654 81.47 10.6054 81.67 10.7754L81.69 10.9054C81.69 10.9054 81.27 11.2354 81.98 11.7354L82 11.9054L81.87 12.2954C81.87 12.2954 81.45 11.3654 81.23 11.0354L81.21 10.7754C81.21 10.7754 81.41 10.1054 81.5 9.25544C81.5 9.25544 81.69 7.59543 81.8 7.42543C81.91 7.25543 82.26 7.20544 82.41 7.05544C82.56 6.90544 82.64 6.78544 82.73 6.65544C82.82 6.52544 82.85 6.38544 82.87 6.18544L82.76 6.05544C82.76 6.05544 82.7 6.10543 82.56 6.10543C82.51 6.10543 82.43 6.09544 82.43 6.09544C82.43 6.09544 82.28 6.22544 82.26 6.01544L81.67 5.87544C81.67 5.87544 81.34 5.96544 81.32 6.57544C81.32 6.57544 81.19 6.70543 81.1 6.81543C81.01 6.92543 81.1 7.05544 81.06 7.16544C81.02 7.27544 80.19 9.49544 80.11 9.68544C80.02 9.88544 79.98 10.1154 79.93 10.2254C79.89 10.3354 79.9 10.7154 79.9 10.7154C79.9 10.7154 79.93 10.8654 79.98 11.2954C80.01 11.5854 79.94 12.2654 79.97 12.3754C79.97 12.3754 79.31 12.2054 78.93 11.4954C78.56 10.7754 78.04 7.96544 77.16 6.88544C76.66 6.26544 70.92 1.13544 69.73 0.205436C69.59 0.0954363 69.25 -0.0945614 69.14 0.0554386C69.03 0.195439 68.54 0.615436 69.38 1.79544L69.3 1.87544C69.3 1.87544 68.82 1.65543 68.77 1.89543C68.73 2.13543 68.74 2.88544 69.23 3.62544L69.21 3.75544L68.88 3.92543C68.88 3.92543 68.89 5.19543 70.3 6.21543V6.34544L70.04 6.51544C70.04 6.51544 68.91 6.70544 71.55 8.18544C71.55 8.18544 71.37 8.38544 71.44 8.55544C71.56 8.85544 71.98 9.29544 72.68 9.66544C72.68 9.66544 72.46 9.88544 72.51 10.0854C72.56 10.2854 72.63 10.5554 73.56 10.9654V11.4854C73.56 11.4854 73.65 12.1954 74.99 12.6554L74.61 13.2554C74.61 13.2554 74.55 14.3254 75.69 14.3454L75.43 14.8454C75.43 14.8454 75.5 15.4354 76.42 15.2554L76.49 15.3454L76.34 15.8254C76.34 15.8254 76.47 16.3854 77.22 16.1754L77.33 16.2454L77.22 16.7254C77.22 16.7254 77.46 17.3754 78.36 17.3354L78.51 17.3954L78.42 17.6954C78.42 17.6954 79.12 18.1754 79.65 17.8654L79.85 17.9054C79.85 17.9054 80.16 18.1154 80.29 18.2554C80.29 18.2554 80.93 18.1754 81.21 17.9754L81.32 18.0354C81.32 18.0354 81.28 18.0854 81.2 18.1554C81.01 18.3454 80.84 18.6854 80.76 18.8854C80.65 19.1654 80.46 19.7254 80.46 19.7254C80.46 19.7254 79.08 20.3154 79.08 20.8954C79.08 21.3754 79.34 21.5654 79.34 21.5654C79.34 21.5654 79.16 22.2354 78.88 22.4554C77.98 23.1354 77.37 22.8254 77.67 23.6254C77.67 23.6254 74.9 24.1454 74.87 24.9054C74.82 26.4054 75.85 27.1054 75.85 27.1054L75.92 27.2154C75.92 27.2154 75.75 27.6454 75.9 27.8054C76.25 28.2054 77.04 28.4054 77.04 28.4054L77.06 28.5354C77.06 28.5354 76.64 29.1254 76.84 29.5354C77.2 30.2854 78.15 30.6554 78.15 30.6554C78.15 30.6554 77.7 31.1054 78.79 32.1754C78.79 32.1754 78.7 32.3054 78.76 32.5354C78.76 32.5354 77.76 33.1054 78.03 33.6954C78.56 34.8654 79.43 35.2954 81.29 33.1854L81.4 33.2054C81.4 33.2054 81.47 33.4654 81.51 33.5354C81.55 33.5954 81.4 33.7554 81.47 34.1654C81.47 34.1654 80.76 34.2754 80.24 35.3354C79.74 36.3654 78.18 36.3254 78.18 36.3254L86.44 36.3554Z" fill="#1B3C87"/>
<path fill-rule="evenodd" clip-rule="evenodd" d="M77.81 23.8254C77.81 23.8254 75.48 24.4654 75.42 24.8354C75.38 25.0654 76.1 25.0654 76.1 25.0654C76.1 25.0654 76.75 24.9254 78.02 23.9354L77.81 23.8254Z" fill="#1B3C87"/>
<path fill-rule="evenodd" clip-rule="evenodd" d="M84.71 12.7355C84.78 12.4755 84.43 12.4755 84.43 12.4755V12.3455C84.43 12.3455 84.82 12.2755 85.35 11.7555C85.88 11.2355 85.42 11.0855 85.42 11.0855L85.39 10.9755C86.16 10.6055 86.41 10.0655 86.41 10.0655L86.51 9.39547C86.05 9.72547 85.41 9.89547 85.41 9.89547L85.37 9.78547C85.93 9.07547 85.57 8.35547 85.57 8.35547C85.46 8.87547 84.89 9.59547 84.89 9.59547C85.08 9.86547 84.89 10.2055 84.89 10.2055C85 10.7655 84.52 10.9455 84.52 10.9455C84.43 11.4255 84.24 11.4855 84.15 11.6855C84.01 11.9755 83.82 12.0255 83.76 12.0255C83.76 12.0255 83.61 12.3655 83.67 12.5955C83.74 12.8255 84.02 13.1055 84.02 13.1055C84.46 12.9855 84.64 12.9955 84.71 12.7355Z" fill="#1B3C87"/>
<path fill-rule="evenodd" clip-rule="evenodd" d="M83.921 9.1355C83.921 9.1355 83.651 9.3455 83.371 9.3055C83.131 9.2755 82.821 9.3455 82.821 9.3455C82.551 9.2255 82.241 9.33549 82.241 9.33549C82.241 9.33549 82.691 9.32549 82.781 9.49549C82.791 9.51549 82.561 9.52549 82.371 9.65549C82.301 9.70549 82.241 9.8155 82.181 9.8455C82.111 9.8855 82.071 9.9155 82.071 9.9155L81.891 9.9855C81.891 9.9855 82.171 10.0355 82.411 9.92549C82.651 9.81549 82.211 9.69549 82.751 9.58549C83.131 9.50549 83.681 9.65549 83.981 9.22549L83.921 9.1355Z" fill="#1B3C87"/>
<path fill-rule="evenodd" clip-rule="evenodd" d="M84.25 9.11548C84.25 9.11548 84.05 9.46548 84.43 9.87548L84.54 9.89548C84.54 9.89548 84.65 9.61548 84.54 9.41548C84.42 9.22548 84.25 9.11548 84.25 9.11548Z" fill="#1B3C87"/>
<path fill-rule="evenodd" clip-rule="evenodd" d="M83.12 13.1053C83.12 13.1053 82.84 12.8053 82.59 12.5053C82.34 12.2053 82.43 11.8453 82.39 11.7153C82.39 11.7153 82.29 11.9753 82.17 12.5253C82.17 12.5253 82.57 12.8153 82.76 13.1153L83.12 13.1053Z" fill="#1B3C87"/>
<path fill-rule="evenodd" clip-rule="evenodd" d="M69.89 4.77528C69.89 4.77528 69.7 4.83529 69.76 4.97529C69.81 5.11529 70.32 5.92529 70.85 6.33529C70.85 6.33529 70.47 6.56529 70.48 6.65529C70.49 6.74529 70.04 7.26529 73.14 8.47529C73.14 8.47529 73.18 8.57529 73.05 8.59529C72.93 8.61529 72.41 8.44529 72.27 8.48529C72.13 8.52529 72.1 8.60529 72.16 8.83529C72.21 9.01529 72.76 9.46529 73.57 9.87529L73.46 9.97529L73.17 9.87529C73.17 9.87529 72.97 10.0253 73.1 10.2853C73.22 10.5253 73.54 10.7153 74.12 10.8853L74.01 11.1453C74.01 11.1453 73.92 11.4553 74.03 11.6553C74.14 11.8553 74.7 12.2553 75.45 12.6253L75.41 12.7253C75.41 12.7253 74.14 13.7553 76.85 14.3453C76.85 14.3453 75.69 13.6053 75.65 13.2853C75.59 12.8053 76.11 12.6653 76.11 12.6653C76.11 12.6653 74.69 12.0253 75.13 11.5153C75.13 11.5153 73.89 10.8253 74.29 10.4153L74.27 10.2453C74.27 10.2453 73.44 9.61528 73.66 8.92528C73.75 8.64528 73.97 8.64529 73.97 8.64529L73.93 8.47529C73.93 8.47529 73.29 8.06529 73.56 7.25529L73.52 7.08529C73.52 7.08529 73.26 6.40529 73.84 6.51529L74.07 6.34529C74.07 6.34529 73.24 4.90529 74.18 4.87529C74.18 4.87529 70.63 1.42529 69.81 0.785285C69.81 0.785285 69.42 0.485287 69.32 0.545287C69.22 0.595287 69.26 0.785285 69.26 0.785285C69.26 0.785285 69.28 1.68528 70.57 2.88528L70.55 3.01529C70.55 3.01529 69.7 2.15529 69.16 2.18529L69.1 2.33529C69.1 2.33529 69.18 3.50529 70.64 4.72529L70.58 4.81528C70.58 4.81528 70.24 4.70528 69.89 4.77528Z" fill="#1B3C87"/>
<path fill-rule="evenodd" clip-rule="evenodd" d="M84.969 15.2854C85.169 15.5454 85.169 15.9254 85.169 15.9254C85.389 15.8854 85.549 15.3454 85.549 15.3454L85.609 15.1054C85.169 15.3554 84.789 15.0054 84.789 15.0054L84.969 15.2854Z" fill="#1B3C87"/>
<path fill-rule="evenodd" clip-rule="evenodd" d="M81.4 32.9354C81.4 32.9354 81.51 33.1454 81.64 33.4054C81.77 33.6654 81.49 34.1254 81.71 34.2754C81.93 34.4254 82.22 34.5154 82.44 34.3454L82.59 34.2754C82.59 34.2754 82.66 34.3954 82.88 34.3754C83.1 34.3554 83.15 34.2654 82.96 33.9954C82.86 33.8554 82.72 33.8454 82.72 33.8454C82.72 33.8454 82.68 33.3954 82.28 33.3954L82.21 33.2254C82.21 33.2254 82.61 32.7654 82.17 32.2454C82.17 32.2454 81.8 30.5054 82.08 29.2954C82.08 29.2954 81.88 28.9354 81.67 28.9254C81.46 28.9154 81.31 29.1454 81.2 29.8754C81.2 29.8754 81.01 29.9354 81.55 31.7954C81.55 31.7954 81.31 31.7954 81.59 32.3554L81.4 32.9354Z" fill="#1B3C87"/>
<path fill-rule="evenodd" clip-rule="evenodd" d="M80.79 36.3554C80.99 36.1354 81.1 35.8154 81.22 35.4154C81.42 34.7454 81.79 34.5054 81.79 34.5054C81.59 34.4454 81.48 34.3154 81.48 34.3154C81.12 34.4554 80.63 34.8354 80.33 35.4854C80.13 35.9254 79.76 36.2054 79.41 36.3654L80.79 36.3554Z" fill="#1B3C87"/>
<path fill-rule="evenodd" clip-rule="evenodd" d="M82.519 9.45555C82.519 9.45555 82.229 9.37554 82.009 9.53554C81.839 9.66554 81.949 9.76555 82.069 9.70555C82.229 9.63555 82.259 9.53555 82.519 9.45555Z" fill="#1B3C87"/>
<path fill-rule="evenodd" clip-rule="evenodd" d="M83.971 10.5054C83.971 10.5054 83.991 10.7054 84.091 10.6854C84.201 10.6654 84.141 10.6154 84.141 10.6154C84.141 10.6154 84.051 10.5554 83.971 10.5054Z" fill="#1B3C87"/>
<path fill-rule="evenodd" clip-rule="evenodd" d="M85.199 18.3254C85.199 18.3254 85.169 17.9554 85.109 17.7654C85.109 17.7654 85.209 16.8754 85.189 16.5554C85.189 16.5554 85.449 17.2054 85.479 17.4554C85.509 17.7054 85.339 18.3154 85.369 18.3454C85.399 18.3754 85.749 18.1554 85.879 18.2454C86.119 18.3954 86.839 18.2854 87.129 18.3954C87.419 18.5054 87.969 18.3754 88.079 18.3454C88.179 18.3154 88.459 18.1154 88.519 18.1054C88.579 18.0954 88.779 18.2454 88.779 18.2454C88.779 18.2454 88.689 18.4154 88.419 18.3154C88.389 18.3054 88.479 18.4454 88.349 18.4854C88.229 18.5254 88.219 18.5354 88.219 18.5354C88.219 18.5354 87.749 18.7554 87.569 18.7754C87.329 18.8154 86.539 18.9154 86.209 18.8354C85.869 18.7454 85.449 18.6454 85.199 18.3254Z" fill="#1B3C87"/>
<path fill-rule="evenodd" clip-rule="evenodd" d="M83.869 21.4654C83.869 21.4654 83.919 21.3654 83.859 21.0554C83.859 21.0554 83.769 20.5554 83.309 20.3254C82.569 19.9454 82.169 20.2254 82.089 20.3454C81.879 20.6554 83.069 20.2454 83.119 20.4954C83.159 20.6654 82.649 20.7454 81.679 20.6354C80.259 20.4754 79.439 21.4154 79.439 21.4154C79.439 21.4154 79.109 21.2854 79.239 20.8954C79.429 20.3354 80.559 20.0954 81.429 20.0054C82.309 19.9154 83.649 19.3054 83.649 19.3054L83.739 19.3954C83.739 19.3954 83.379 19.8754 83.729 20.3454C84.079 20.8154 84.479 21.5354 83.869 21.4654Z" fill="#1B3C87"/>
<path fill-rule="evenodd" clip-rule="evenodd" d="M83.18 18.7654C83.45 18.6554 84.12 18.2554 84.12 18.2554C84.05 17.9154 83.68 17.9554 83.68 17.9554L83.66 17.7354C83.66 17.7354 83.58 17.0554 84.3 16.6954C84.63 16.5254 84.15 15.9354 83.49 16.0254C82.83 16.1154 82.66 15.9154 82.66 15.9154L82.74 15.7554C82.74 15.7554 82.74 15.8654 83.18 15.8154C83.62 15.7754 84.23 15.4554 84.04 15.0454C83.93 14.8054 83.78 14.7054 83.64 14.6654C83.59 14.6554 83.52 14.5554 83.48 14.5854C83.3 14.7154 83.19 14.6654 83.1 14.6354C82.91 14.5654 82.89 14.5554 82.73 14.3554C82.57 14.1554 82.42 13.8154 82.19 13.5754C81.57 12.9154 82.1 14.3754 82.08 14.4854C82.06 14.5954 81.73 14.5554 81.73 14.5554C81.73 14.5554 81.22 14.3754 81.2 14.2654C81.18 14.1554 80.94 13.1254 80.94 13.1254C80.94 13.1254 81.18 12.5754 81.16 12.4054C81.05 11.3654 80.88 10.9154 80.88 10.9154L80.86 10.6154C80.86 10.6154 81.34 8.81539 81.39 8.43539C81.42 8.22539 81.35 8.24538 81.31 8.24538C81.26 8.24538 80.94 8.96539 80.91 9.04539C80.58 9.67539 80.37 10.1254 80.37 10.1254L80.23 10.7654C80.54 11.3954 80.29 12.0554 80.28 12.8354C80.27 13.4454 80.95 13.6854 80.95 14.4654C80.95 15.0954 81.78 16.5154 82.12 16.9354C82.24 17.0854 82.12 17.5054 81.93 17.6854C81.74 17.8554 81.53 18.0854 81.4 18.2354C81.27 18.3854 81.13 18.6354 81.03 18.8754C80.92 19.1354 80.74 19.6754 80.74 19.6754C80.74 19.6754 82.91 18.8754 83.18 18.7654Z" fill="#1B3C87"/>
<path fill-rule="evenodd" clip-rule="evenodd" d="M83.711 10.9453C83.711 10.9453 83.621 10.9453 83.561 10.9753C83.501 10.9953 83.491 11.0553 83.351 11.0853C83.261 11.1053 83.691 11.1653 83.691 11.1653C83.691 11.1653 83.841 11.2353 83.681 11.2453C83.651 11.2453 83.631 11.2453 83.601 11.2553C83.211 11.2853 83.321 11.3753 83.321 11.3753C83.321 11.3753 83.741 11.3953 83.641 11.6253C83.541 11.8553 82.931 11.7053 82.791 11.5653C82.661 11.4353 82.261 11.0853 82.541 10.8053C82.661 10.6853 82.611 10.5753 82.561 10.4953C82.391 10.2553 82.761 9.76527 82.821 9.72527C82.981 9.62527 83.391 9.81527 83.581 9.75527C83.771 9.69527 84.061 9.40527 84.061 9.40527C84.011 9.87527 84.191 10.1953 84.191 10.1953C84.191 10.1953 83.981 10.0953 83.861 10.0753C83.811 10.0653 83.661 10.4153 83.781 10.6453C83.771 10.6253 83.641 10.6153 83.561 10.6853C83.451 10.7753 83.391 10.8453 83.391 10.8453C83.391 10.8453 83.591 10.8253 83.631 10.8253L83.711 10.9453Z" fill="#1B3C87"/>
<path fill-rule="evenodd" clip-rule="evenodd" d="M83.099 24.2853C82.679 23.2453 82.029 23.4153 82.319 23.5653C82.599 23.7153 82.779 24.1453 82.829 24.6353C82.889 25.1253 82.319 24.6353 82.239 24.7253C82.159 24.8153 82.429 25.0253 82.559 25.2353C82.689 25.4453 82.539 25.7353 82.539 25.7353C82.109 26.1653 81.649 26.4753 81.469 26.8853C81.189 27.5053 80.689 27.8053 80.689 27.8053C80.959 27.9353 81.269 27.4853 81.809 27.4653C82.169 27.4453 82.439 27.8653 82.779 27.8653C82.789 27.8653 83.239 28.3553 83.229 28.6253C83.169 30.0153 82.769 29.5553 82.769 29.5553L82.679 29.4953C82.919 28.5553 82.199 28.0853 81.409 28.3653C80.619 28.6453 79.529 30.0353 79.019 29.8253C78.509 29.6053 78.289 28.8753 78.289 28.8753C78.289 28.8753 78.639 28.8053 78.849 28.6753C79.619 28.1953 79.819 26.8553 80.139 25.6353C80.469 24.4153 81.519 22.7053 82.599 23.3353C82.939 23.5153 83.069 23.8653 83.099 24.2853Z" fill="#1B3C87"/>
<path fill-rule="evenodd" clip-rule="evenodd" d="M82.531 22.6853C82.531 22.6853 83.231 23.0353 83.411 23.6253C83.411 23.6253 83.031 23.0753 82.461 22.8953C81.091 22.4653 80.321 24.0753 79.601 25.9653C78.881 27.8553 78.421 27.7653 78.021 28.1753C78.021 28.1753 77.821 27.5553 77.631 27.4253C77.631 27.4253 77.221 27.5353 76.841 27.4753C76.251 27.3853 76.241 27.4253 76.331 26.8153C76.381 26.4853 76.811 26.9853 77.331 27.0153C77.971 27.0553 78.411 26.3453 78.731 25.6653C79.001 25.0953 79.221 23.9553 79.961 23.0353C80.711 22.1053 81.261 21.8753 81.531 21.8653C81.871 21.8553 82.061 22.1053 82.501 22.2453C82.491 22.2453 82.781 22.6153 82.531 22.6853Z" fill="#1B3C87"/>
<path fill-rule="evenodd" clip-rule="evenodd" d="M82.201 21.8655C82.011 21.8255 81.761 21.7055 81.481 21.7355C80.881 21.7955 80.131 22.4355 79.451 23.0455C78.771 23.6555 77.971 23.7955 77.971 23.4055C77.971 23.0055 78.631 23.1655 79.421 22.4255C80.321 21.5755 81.121 21.2555 81.781 21.3955C82.081 21.4555 82.431 21.6655 82.431 21.6655C82.431 21.6655 82.681 21.8755 82.601 21.9755C82.521 22.0655 82.331 21.8955 82.201 21.8655Z" fill="#1B3C87"/>
<path fill-rule="evenodd" clip-rule="evenodd" d="M84.02 24.4653L84.07 24.4053C84.49 26.5253 84.93 27.0353 85.81 26.0053C85.81 26.0053 85.45 26.9653 85.47 27.2653C85.53 28.0453 85.08 28.3453 84.95 28.3453C84.82 28.3453 84.63 28.6153 84.63 28.6153C84.63 28.6153 84.25 28.6653 84.37 28.4253C84.67 27.8653 84.49 26.8653 84.02 24.4653Z" fill="#1B3C87"/>
<path fill-rule="evenodd" clip-rule="evenodd" d="M75.32 25.6455C75.32 25.6455 75.3 26.1855 75.74 26.2855C76.18 26.3755 76.56 25.9255 76.71 25.6855C76.85 25.4455 75.75 26.1155 75.32 25.6455Z" fill="#1B3C87"/>
<path fill-rule="evenodd" clip-rule="evenodd" d="M81.14 29.0754C81.14 29.0754 80.57 29.7554 80.04 30.6054C79.73 31.1054 79.07 31.0754 79.07 31.0754C79.07 31.0754 79.48 31.3254 79.94 31.1554C80.94 30.7654 80.88 29.4354 81.14 29.0754Z" fill="#1B3C87"/>
<path fill-rule="evenodd" clip-rule="evenodd" d="M74.431 6.91528C74.621 8.01528 76.141 8.78528 76.141 8.78528C75.771 9.02528 75.991 9.56528 75.991 9.56528L75.951 9.69528C75.531 9.75528 76.241 10.6653 76.241 10.6653L76.121 10.8753C76.121 10.8753 75.881 10.8053 75.821 11.0253C75.651 11.5653 76.861 12.5453 76.861 12.5453L76.751 12.5753C75.281 12.1553 75.651 11.5653 75.651 11.5653V11.4553C75.651 11.4553 74.851 11.0253 74.701 10.6453C74.551 10.2653 74.931 10.2653 74.931 10.2653V10.1553C74.201 9.68528 74.251 9.35528 74.251 9.35528C74.251 8.76528 74.931 9.09528 74.931 9.09528L74.961 8.90528C73.751 7.87528 74.231 7.00528 74.231 7.00528L74.431 6.91528Z" fill="#1B3C87"/>
<path fill-rule="evenodd" clip-rule="evenodd" d="M81.86 6.30548C81.86 6.30548 81.13 5.90548 81.28 5.57548L81.52 5.11548C81.52 5.11548 81.73 5.26548 81.72 5.31548C81.71 5.36548 81.69 5.50548 81.69 5.50548C81.69 5.50548 81.8 4.96548 81.91 4.87548C82.02 4.78548 82.56 4.52548 82.59 4.46548C82.62 4.40548 82.66 4.36548 82.66 4.36548C82.66 4.36548 82.62 4.72548 82.54 4.77548C82.46 4.82548 82.44 4.87548 82.44 4.87548C82.44 4.87548 82.84 4.72548 82.99 4.67548C83.13 4.62548 83.21 4.51548 83.21 4.51548L83.1 4.90548C83.1 4.90548 83.44 4.44548 83.67 4.45548C83.9 4.46548 84.24 4.39548 84.24 4.39548C84.24 4.39548 84.03 4.75548 83.9 4.83548C83.77 4.91548 83.31 4.98548 83.31 4.98548C83.31 4.98548 83.61 5.02548 83.67 5.07548C83.74 5.13548 84.07 5.22548 84.07 5.22548C84.07 5.22548 83.66 5.50548 83.55 5.47548C83.44 5.43548 83.06 5.42548 82.91 5.35548C82.86 5.32548 82.74 5.38548 82.74 5.38548C82.74 5.38548 82.59 5.59548 82.72 5.64548C82.85 5.69548 82.94 5.73548 82.94 5.73548C82.94 5.73548 82.49 5.71548 82.4 5.74548C82.31 5.77548 82.05 6.03548 82.05 6.03548L82.54 6.52548C82.54 6.52548 82.8 6.61548 82.9 6.58548C83 6.55548 83.19 6.25548 83.42 6.23548C83.58 6.22548 83.89 6.09548 83.89 6.09548L83.7 6.48548C83.7 6.48548 83.94 6.39548 84.04 6.34548C84.15 6.28548 84.47 6.06548 84.6 5.96548C84.6 5.96548 84.74 6.35548 84.53 6.48548C84.53 6.48548 84.92 6.09548 85.33 6.24548C85.33 6.24548 85.19 6.79548 84.85 6.80548C84.51 6.81548 84.35 6.71548 84.35 6.71548L84.24 6.77548C84.24 6.77548 84.6 7.00548 84.64 7.04548C84.68 7.08548 84.31 7.19548 84.1 7.15548C83.89 7.11548 83.51 6.90548 83.51 6.90548L83.63 7.13548L83.85 7.30548C83.85 7.30548 83.51 7.46548 83.3 7.36548C83.1 7.26548 82.83 6.83548 82.83 6.83548L82.77 6.84548L82.89 7.35548C82.89 7.35548 82.5 7.25548 82.42 7.21548C82.38 7.18548 81.94 6.67548 81.96 6.56548C81.98 6.45548 81.86 6.30548 81.86 6.30548Z" fill="#1B3C87"/>
<path fill-rule="evenodd" clip-rule="evenodd" d="M88.81 17.8353C88.81 17.8353 88.82 17.4753 89.01 17.4153C89.2 17.3553 89.51 17.5453 89.51 17.5453L89.58 17.6553C89.58 17.6553 90.08 17.5953 90.19 17.8453C90.3 18.0953 90.32 18.2953 90.32 18.2953L90.23 18.3953C90.23 18.3953 90.32 18.3953 90.34 18.4453C90.36 18.4953 90.53 18.9053 90.49 19.0053C90.45 19.1053 90.39 19.1053 90.39 19.1053C90.39 19.1053 90.46 19.0153 90.51 19.2653C90.57 19.5253 90.5 19.8053 90.5 19.8053L90.41 19.7853C90.41 19.7853 90.41 19.3053 90.37 19.2853C90.33 19.2653 90.27 19.2653 90.27 19.2653C90.27 19.2653 90.28 19.3553 90.21 19.3653C90.14 19.3753 90.09 19.3253 90.09 19.3253C90.09 19.3253 90 19.3953 90.01 19.4253C90.02 19.4653 90.11 19.7553 90.11 19.7553H90.01C90.01 19.7553 89.87 19.2953 89.99 19.2253C90.11 19.1453 90.12 19.1353 90.12 19.1353C90.12 19.1353 90.01 19.1553 89.99 19.1153C89.97 19.0753 89.85 18.6653 89.9 18.5753C89.96 18.4753 90.01 18.4553 90.01 18.4553C90.01 18.4553 89.88 18.3953 89.86 18.2953C89.84 18.1953 89.72 18.0753 89.76 17.9753C89.8 17.8753 89.81 17.9153 89.81 17.9153C89.81 17.9153 89.49 17.9553 89.45 17.9353C89.4 17.9153 89.47 18.2353 89.47 18.2353L89.18 18.3753C89.18 18.3753 89.23 18.9053 88.96 18.9353L88.95 19.0253C88.95 19.0253 89.36 19.1953 89.4 19.5653L89.25 19.6953C89.25 19.6953 89.39 19.6953 89.42 19.7253C89.46 19.7553 89.66 20.0853 89.66 20.0853L89.52 20.1353C89.52 20.1353 89.41 19.8053 89.29 19.8553C89.29 19.8553 89.3 19.9753 89.25 19.9953C89.19 20.0153 89.14 19.9453 89.14 19.9453C89.14 19.9453 89 20.0053 89.21 20.2353L89.07 20.2753C89.07 20.2753 88.96 20.1053 88.96 20.0353C88.96 19.9653 88.96 19.8753 89 19.8653L88.99 19.8253C88.99 19.8253 88.68 19.7753 88.62 19.4253C88.56 19.0753 88.72 19.0453 88.72 19.0453L88.71 18.9653C88.71 18.9653 88.52 18.8553 88.61 18.6153C88.72 18.3953 88.81 17.8353 88.81 17.8353Z" fill="#1B3C87"/>
<path fill-rule="evenodd" clip-rule="evenodd" d="M88.94 18.8155C88.94 18.8155 89.04 18.7556 89.05 18.5956C89.06 18.4456 89.01 18.4856 89.01 18.4856L88.87 18.5655V18.7056C88.86 18.7056 88.94 18.6555 88.94 18.8155Z" fill="#1B3C87"/>
<path fill-rule="evenodd" clip-rule="evenodd" d="M88.86 19.2354C88.86 19.2354 88.73 19.4453 88.98 19.6753L89.03 19.6654C89.03 19.6654 88.87 19.4954 88.96 19.4154C89.05 19.3354 89.2 19.5653 89.2 19.5653L89.23 19.4953C89.23 19.4953 89.02 19.3553 88.98 19.2453L88.86 19.2354Z" fill="#1B3C87"/>
<path fill-rule="evenodd" clip-rule="evenodd" d="M90.179 19.0355C90.179 19.0355 90.109 19.0255 90.079 18.9355C90.049 18.8455 90.039 18.6655 90.039 18.6655L90.069 18.6155C90.069 18.6155 90.109 18.6655 90.149 18.6655C90.209 18.6655 90.209 18.5955 90.209 18.5955C90.209 18.5955 90.279 18.6055 90.289 18.6455C90.299 18.6855 90.359 18.9555 90.359 18.9555L90.309 19.0255C90.309 19.0255 90.259 18.9055 90.229 18.9155C90.199 18.9255 90.129 18.9255 90.179 19.0355Z" fill="#1B3C87"/>
<path fill-rule="evenodd" clip-rule="evenodd" d="M84.461 27.6455C84.461 27.6455 85.001 27.3455 85.231 27.1155C85.231 27.1155 84.811 27.5855 84.501 27.7755L84.461 27.6455Z" fill="#1B3C87"/>
<path fill-rule="evenodd" clip-rule="evenodd" d="M84.4 27.9756C84.4 27.9756 84.94 27.6756 85.17 27.4456C85.17 27.4456 84.75 27.9156 84.44 28.1056L84.4 27.9756Z" fill="#1B3C87"/>
<path fill-rule="evenodd" clip-rule="evenodd" d="M84.34 28.2954C84.34 28.2954 84.88 27.9954 85.11 27.7654C85.11 27.7654 84.69 28.2454 84.38 28.4254L84.34 28.2954Z" fill="#1B3C87"/>
<path fill-rule="evenodd" clip-rule="evenodd" d="M84.289 28.6154C84.289 28.6154 84.829 28.3154 85.059 28.0854C85.059 28.0854 84.639 28.5554 84.329 28.7454L84.289 28.6154Z" fill="#1B3C87"/>
<path fill-rule="evenodd" clip-rule="evenodd" d="M83.42 12.2855C83.42 12.2855 83.99 12.0455 84.24 11.8455C84.24 11.8455 83.77 12.2655 83.44 12.4255L83.42 12.2855Z" fill="#1B3C87"/>
<path fill-rule="evenodd" clip-rule="evenodd" d="M83.5 12.4654C83.5 12.4654 84.07 12.2254 84.32 12.0254C84.32 12.0254 83.85 12.4454 83.52 12.6054L83.5 12.4654Z" fill="#1B3C87"/>
<path fill-rule="evenodd" clip-rule="evenodd" d="M83.57 12.6356C83.57 12.6356 84.14 12.3956 84.39 12.1956C84.39 12.1956 83.92 12.6256 83.59 12.7756L83.57 12.6356Z" fill="#1B3C87"/>
<path fill-rule="evenodd" clip-rule="evenodd" d="M83.65 12.8055C83.65 12.8055 84.22 12.5655 84.47 12.3655C84.47 12.3655 84 12.7855 83.67 12.9455L83.65 12.8055Z" fill="#1B3C87"/>
<path fill-rule="evenodd" clip-rule="evenodd" d="M83.73 12.9754C83.73 12.9754 84.3 12.7354 84.55 12.5354C84.55 12.5354 84.08 12.9654 83.75 13.1154L83.73 12.9754Z" fill="#1B3C87"/>
<path fill-rule="evenodd" clip-rule="evenodd" d="M83.801 13.1453C83.801 13.1453 84.371 12.9053 84.621 12.7053C84.621 12.7053 84.151 13.1253 83.821 13.2853L83.801 13.1453Z" fill="#1B3C87"/>
<path fill-rule="evenodd" clip-rule="evenodd" d="M83.6 10.0554C83.6 10.0554 83.36 9.88544 82.82 10.2254L82.86 10.2754C82.86 10.2754 83.24 10.2054 83.31 10.3854L83.42 10.3654C83.42 10.3654 83.56 10.2154 83.6 10.0554Z" fill="#1B3C87"/>
</svg>
