<svg width="237" height="29" viewBox="0 0 237 29" fill="none" xmlns="http://www.w3.org/2000/svg">
<path d="M223.951 9.286L226.464 17.3158H221.36L223.835 9.286H223.951ZM219.62 23.2877L221.283 17.8404H226.696L228.784 24.3369L226.89 24.5386V24.8614H235.242V24.5386L234.082 24.3369L226.658 5.00879L224.144 6.82459L219.002 23.2877L216.102 24.5386V24.8211H222.482V24.4983L219.62 23.2877Z" fill="#1B3C87"/>
<path d="M52.232 24.3368V5.65427L53.856 5.49287V5.04907H46.2773V5.49287L47.9013 5.65427V24.135L46.2773 24.3368V24.821H60.584L60.8547 19.8982H60.584L57.4907 24.135L52.232 24.3368Z" fill="#1B3C87"/>
<path d="M74.1578 5.49287L79.1071 5.65427L82.084 9.89117H82.355L82.239 5.04907H68.2031V5.49287L69.8271 5.65427V24.135L68.2031 24.3368V24.821H82.51L82.78 19.8982H82.51L79.3778 24.135L74.1578 24.3368V15.1771L77.9084 15.3385L79.3778 18.4456H79.6484V11.2631H79.3778L77.9084 14.5315L74.1578 14.6526V5.49287Z" fill="#1B3C87"/>
<path d="M180.607 24.2964V24.821H188.109V24.2964L186.485 24.0947V5.69467L188.109 5.49287V5.04907H180.607V5.49287L182.193 5.69467V24.0947L180.607 24.2964Z" fill="#1B3C87"/>
<path d="M36.1851 5.49287L41.1731 5.65427L44.1118 9.89117H44.3825L44.2665 5.04907H30.2305V5.49287L31.8545 5.65427V24.135L30.2305 24.3368V24.821H44.5371L44.8078 19.8982H44.5371L41.4438 24.135L36.1851 24.3368V15.1771L39.9358 15.3385L41.4438 18.4456H41.6758V11.2631H41.4438L39.9358 14.5315L36.1851 14.6526V5.49287Z" fill="#1B3C87"/>
<path d="M104.741 14.9352C104.741 8.6001 106.326 5.45271 109.767 5.45271C113.209 5.45271 114.794 8.6001 114.794 14.9352C114.794 21.2702 113.209 24.4176 109.767 24.4176C106.326 24.4176 104.741 21.2702 104.741 14.9352ZM100.217 14.9352C100.217 20.7053 104.779 24.9018 109.729 24.9018C114.717 24.9018 119.241 20.7053 119.241 14.9352C119.241 9.165 114.678 4.96851 109.729 4.96851C104.779 4.96851 100.217 9.165 100.217 14.9352Z" fill="#1B3C87"/>
<path d="M98.825 23.1264L99.096 18.4457H98.825L96.969 21.6737C96.428 22.6825 94.997 24.3773 93.257 24.3773C89.545 24.3773 87.96 21.2299 87.96 14.8948C87.96 8.55971 89.816 5.41231 93.257 5.41231C94.959 5.41231 96.312 7.10711 96.815 8.11591L98.671 11.3439H98.941L98.825 6.66321C97.781 5.97731 95.384 4.96851 92.755 4.96851C87.187 4.96851 83.475 9.165 83.475 14.9352C83.475 20.7053 87.187 24.9018 92.755 24.9018C95.384 24.8211 97.781 23.8123 98.825 23.1264Z" fill="#1B3C87"/>
<path d="M134.014 17.1544L126.048 5.00879H119.32V5.41229L122.182 5.57369V23.1263L119.32 24.3772V24.7404H125.778V24.3772L122.762 23.1263L122.684 8.11579H122.839L134.052 24.8211H134.71V6.58249L137.532 5.33159V5.0491H131.114V5.33159L134.091 6.58249L134.168 17.1544H134.014Z" fill="#1B3C87"/>
<path d="M142.288 14.9352C142.288 8.6001 143.873 5.45271 147.315 5.45271C150.756 5.45271 152.341 8.6001 152.341 14.9352C152.341 21.2702 150.756 24.4176 147.315 24.4176C143.873 24.4176 142.288 21.2702 142.288 14.9352ZM137.803 14.9352C137.803 20.7053 142.365 24.9018 147.315 24.9018C152.303 24.9018 156.827 20.7053 156.827 14.9352C156.827 9.165 152.264 4.96851 147.315 4.96851C142.365 4.96851 137.803 9.165 137.803 14.9352Z" fill="#1B3C87"/>
<path d="M169.354 17.4771L164.25 5.04907H157.174V5.49287L159.996 5.69467V23.207L157.174 24.4175V24.7403H163.592V24.4175L160.615 23.207L160.46 8.19637H160.654L167.343 24.7403H167.923L173.027 7.02627H173.22V24.0947L171.635 24.3368V24.821H179.136V24.3368L177.512 24.0947V5.61397L179.136 5.41217V5.04907H173.143L169.508 17.4771H169.354Z" fill="#1B3C87"/>
<path d="M190.583 23.1667C192.052 24.1351 193.753 24.8614 195.687 24.8614C199.244 24.8614 202.376 22.9246 202.376 18.7684C202.376 15.1772 199.321 13.4018 196.692 12.3123C194.797 11.5053 192.98 10.5369 192.98 8.43859C192.98 5.81579 195.377 5.41229 196.228 5.41229C198.007 5.41229 199.205 6.5018 200.404 9.1246C200.675 9.7298 200.945 10.2948 201.216 10.9H201.487L201.371 5.12979H201.1L200.829 6.34039C199.747 5.61409 197.852 5.00879 196.228 5.00879C192.593 5.00879 189.693 7.0263 189.693 10.5369C189.693 13.886 192.4 15.4193 195.068 16.5895C197.04 17.4772 199.089 18.6474 199.089 20.9877C199.089 23.6105 197.349 24.4176 195.725 24.4176C193.521 24.4176 192.052 23.0053 191.008 20.4228C190.737 19.7772 190.467 19.1316 190.196 18.486H189.925L190.041 24.6597H190.312L190.583 23.1667Z" fill="#1B3C87"/>
<path d="M203.342 9.851H203.612L206.551 5.7352L208.716 5.6141V24.1755L207.092 24.3773V24.7808H214.594V24.3773L213.008 24.1755V5.6141L215.135 5.7352L218.074 9.851H218.344L218.228 5.0896H203.496L203.342 9.851Z" fill="#1B3C87"/>
<path d="M25.7841 12.9982C25.7841 12.9579 25.7841 12.9579 25.7841 12.9982C25.7841 12.9579 25.7841 12.9579 25.7841 12.9982C25.7841 12.9579 25.7454 12.9175 25.7067 12.9175C25.6681 12.9175 25.6294 12.9579 25.6294 12.9982C24.6627 16.7912 21.7241 19.9789 17.7801 20.9877C11.9414 22.4807 6.02542 17.4368 4.90412 12.8368C4.71072 11.6263 4.78812 11.586 4.82672 11.1421C4.82672 11.2228 4.86542 11.3439 4.86542 11.4649C5.05872 12.6754 5.60012 13.8456 6.52812 14.9351C9.46672 18.4053 15.3827 19.4947 19.6361 17.0333C23.8507 14.6123 24.8174 9.8105 21.7627 6.2193C20.9894 5.2912 20.0227 4.5649 18.9787 4H18.9401C18.9014 4 18.8627 4.0404 18.8627 4.0807C18.8627 4.1211 18.8627 4.1211 18.9014 4.1211C21.4534 7.3895 20.9121 11.9491 17.5867 14.4105C14.1454 16.993 9.04142 16.2667 6.29612 13.0386C5.71612 12.3526 5.25212 11.5053 5.09742 10.9807C5.05872 10.8596 5.02012 10.7386 5.02012 10.6175C5.02012 10.6175 5.02012 10.6175 5.02012 10.5772C5.67742 11.1018 7.61072 12.5544 10.1241 12.5544C18.3214 12.5947 17.5094 4.5246 12.0961 4.4842C10.5881 4.4842 8.84812 5.0895 7.14672 6.6632C6.18012 7.7123 5.44542 8.6404 4.78812 10.2947C4.78812 10.2947 4.40142 11.3439 4.24672 12.1912C4.20812 12.393 4.16942 12.6754 4.13072 12.9175C4.09212 13.2807 4.05342 13.6035 4.01472 13.9667C3.70542 20.1 8.30672 25.6684 14.4161 25.9912C18.3214 26.193 21.8401 24.2158 23.9281 21.1088L23.8894 21.0684C21.5307 23.8526 17.7801 25.386 13.8361 24.7403C8.38412 23.8123 4.55612 19.0105 4.32412 13.8053C4.32412 13.5228 4.32412 13.2 4.47872 12.4333C4.47872 12.393 4.47872 12.393 4.47872 12.3526C4.47872 12.7158 4.51742 13.1193 4.59472 13.5228C5.56142 19.5351 11.0521 23.9737 16.9681 23.086C21.9174 22.3193 25.4747 18.0421 25.7841 12.9982Z" fill="#1B3C87"/>
</svg>
