<svg width="187" height="40" viewBox="0 0 187 40" fill="none" xmlns="http://www.w3.org/2000/svg">
<path d="M17.1116 29.726C18.2297 29.726 19.2054 29.4205 19.9983 28.8094C20.7911 28.1983 21.279 27.3834 21.4619 26.3853H28.455C28.1908 29.2574 26.971 31.5797 24.8365 33.352C22.763 35.1241 20.1812 36.0001 17.0709 36.0001C13.5744 36.0001 10.6674 34.9206 8.39058 32.7409C6.11378 30.6019 4.95508 27.8111 4.95508 24.3686C4.95508 20.9871 6.09348 18.2167 8.39058 16.0778C10.7081 13.8778 13.5947 12.7778 17.0709 12.7778C20.1202 12.7778 22.702 13.6742 24.8365 15.4871C26.971 17.2594 28.1704 19.5612 28.455 22.3927H21.4619C21.279 21.3945 20.7911 20.5797 19.9983 19.9686C19.2054 19.3575 18.25 19.052 17.1116 19.052C15.587 19.052 14.3673 19.5408 13.4322 20.5186C12.497 21.4964 12.0295 22.7797 12.0295 24.3686C12.0295 25.9576 12.497 27.2409 13.4322 28.2389C14.3469 29.2372 15.587 29.726 17.1116 29.726Z" fill="#1B3C87"/>
<path d="M47.1359 12.9202V19.9683C43.8223 20.0905 41.2609 21.0276 39.5127 22.759V35.4905H32.0723V13.2868H39.5127V15.6702C41.6268 13.8369 44.1678 12.9202 47.1359 12.9202Z" fill="#1B3C87"/>
<path d="M72.222 23.9204C72.222 25.1018 72.181 25.9982 72.08 26.5687H56.3048C56.9959 28.9519 58.663 30.1335 61.285 30.1335C62.83 30.1335 63.969 29.6039 64.66 28.5241H72.019C71.47 30.8057 70.21 32.639 68.258 33.9834C66.286 35.3279 63.948 36.0001 61.204 36.0001C57.606 36.0001 54.6785 34.9206 52.4219 32.7409C50.2062 30.6019 49.0879 27.8111 49.0879 24.3686C49.0879 20.9871 50.1653 18.1964 52.3407 16.0371C54.5564 13.8778 57.423 12.7778 60.94 12.7778C64.172 12.7778 66.876 13.8167 69.03 15.8945C71.165 17.9519 72.222 20.6204 72.222 23.9204ZM60.899 18.5019C58.439 18.5019 56.8942 19.7445 56.2844 22.2093H65.29C64.883 19.7445 63.42 18.5019 60.899 18.5019Z" fill="#1B3C87"/>
<path d="M89.825 12.5944C92.63 12.5944 94.907 13.5315 96.635 15.3852C98.363 17.2185 99.237 19.6833 99.237 22.8V35.4908H91.838V24.0018C91.838 22.4741 91.472 21.313 90.76 20.5185C90.049 19.7241 89.053 19.337 87.772 19.337C86.369 19.337 85.028 20.0704 83.747 21.5371V35.5112H76.307V3H83.747V14.7741C85.638 13.3074 87.65 12.5944 89.825 12.5944Z" fill="#1B3C87"/>
<path d="M127.477 13.2874V35.4911H120.077V34.2485C118.308 35.3688 116.276 35.9393 113.999 35.9393C110.949 35.9393 108.368 34.819 106.233 32.5985C104.078 30.3374 102.98 27.5874 102.98 24.3485C102.98 21.1096 104.058 18.3596 106.233 16.0985C108.368 13.8781 110.949 12.7578 113.999 12.7578C116.276 12.7578 118.308 13.3281 120.077 14.4485V13.267H127.477V13.2874ZM115.503 29.869C117.292 29.869 118.817 29.1762 120.077 27.8114V20.8855C118.837 19.5207 117.312 18.8281 115.503 18.8281C114.019 18.8281 112.759 19.3578 111.762 20.4374C110.766 21.4967 110.258 22.8207 110.258 24.3689C110.258 25.917 110.766 27.2207 111.762 28.28C112.759 29.3393 114.019 29.869 115.503 29.869Z" fill="#1B3C87"/>
<path d="M146.034 12.5945C148.839 12.5945 151.116 13.5315 152.844 15.3852C154.572 17.2185 155.446 19.6834 155.446 22.8V35.4908H148.047V24.0018C148.047 22.4741 147.681 21.313 146.969 20.5186C146.258 19.7241 145.262 19.337 143.981 19.337C142.578 19.337 141.237 20.0704 139.956 21.5371V35.5112H132.516V13.3074H139.956V14.7741C141.847 13.3074 143.879 12.5945 146.034 12.5945Z" fill="#1B3C87"/>
<path d="M183.451 13.1548V35.3586H176.052V34.116C174.283 35.2363 172.25 35.8066 169.973 35.8066C166.924 35.8066 164.342 34.6862 162.208 32.466C160.053 30.2049 158.955 27.4549 158.955 24.216C158.955 20.977 160.033 18.2271 162.208 15.966C164.342 13.7456 166.924 12.6252 169.973 12.6252C172.25 12.6252 174.283 13.1956 176.052 14.316V13.1345H183.451V13.1548ZM171.478 29.7363C173.267 29.7363 174.791 29.0437 176.052 27.6789V20.753C174.812 19.3882 173.287 18.6956 171.478 18.6956C169.994 18.6956 168.733 19.2252 167.737 20.3049C166.741 21.3641 166.233 22.6882 166.233 24.2364C166.233 25.7845 166.741 27.0882 167.737 28.1475C168.733 29.2068 169.973 29.7363 171.478 29.7363Z" fill="#1B3C87"/>
</svg>
