<svg width="336" height="69" viewBox="0 0 336 69" fill="none" xmlns="http://www.w3.org/2000/svg">
<path d="M3.88061 38.0415L0.163973 47.9215C1.06404 48.481 1.05875 49.0318 1.05347 49.5827L0.132246 51.2265L1.03231 51.786L0.111094 53.4297L1.00587 54.5401L1.00059 55.0909L3.66909 60.0744L4.57974 59.5322L6.37461 61.2021C13.6175 61.2716 15.3965 64.5939 21.7341 64.6548L25.3555 64.6896C26.2556 65.2491 26.2556 65.2491 27.161 65.2578L65.1862 65.6228C66.0916 65.6315 73.3398 65.1502 76.0559 65.1763L83.3041 64.695C84.2094 64.7037 91.4576 64.2224 94.1737 64.2485L95.9845 64.2658C98.7006 64.2919 106.854 63.8193 109.57 63.8454L112.286 63.8715C113.192 63.8802 125.872 63.451 126.777 63.4597L189.248 64.0594C190.153 64.0681 200.117 63.6129 201.023 63.6216L210.982 63.7172C213.698 63.7433 220.935 64.3636 223.651 64.3897L236.326 64.5114C239.948 64.5462 242.675 63.4706 247.201 63.514L261.687 63.6531C264.403 63.6792 265.298 64.7895 266.203 64.7982L279.8 63.2761C281.61 63.2935 284.332 62.7688 287.058 61.6932L293.412 60.1016C294.317 60.1102 296.133 59.5768 297.044 59.0347L299.771 57.9591C303.392 57.9939 307.04 55.2745 307.945 55.2832L310.672 54.2077C313.404 52.5813 323.395 49.3719 323.411 47.7195L330.717 41.1792C330.722 40.6283 332.543 39.544 332.549 38.9932L335.323 32.9603C333.518 32.3921 332.623 31.2817 332.644 29.0784C332.66 27.426 333.565 27.4347 333.581 25.7822L333.645 19.1723L331.855 16.9516L327.365 13.0525C326.46 13.0438 326.46 13.0438 325.56 12.4843L321.059 9.68667C320.17 8.02552 317.443 9.10108 313.838 7.41385L310.227 6.27743C310.232 5.72662 304.81 4.57283 303.905 4.56414L300.289 3.97854C297.573 3.95247 291.24 3.34081 291.246 2.78999L218.817 2.09467C210.668 2.01644 197.988 2.44558 189.84 2.36735L162.674 2.65742L146.377 2.50098C139.134 2.43144 129.17 2.88667 121.022 2.80845L63.9836 2.26088C60.3622 2.22611 58.5409 3.31036 55.8248 3.28429L48.5766 3.76557C47.6712 3.75688 39.5176 4.22949 36.7963 4.75423L33.1748 4.71947C30.4428 6.34585 28.6586 3.57436 21.3786 7.36058L15.0199 9.50305C14.1093 10.0452 14.1093 10.0452 14.104 10.596L8.63481 14.3996L6.76063 20.9921C5.82882 23.7375 4.90759 25.3813 4.9023 25.9321L5.79709 27.0424L5.77594 29.2457C5.77065 29.7965 5.77066 29.7965 6.67073 30.356L5.7495 31.9998C6.65487 32.0085 6.64958 32.5593 6.64429 33.1102L5.71248 35.8556L3.88061 38.0415Z" fill="#110042"/>
</svg>
