<svg width="576" height="576" viewBox="0 0 576 576" fill="none" xmlns="http://www.w3.org/2000/svg">
<path fill-rule="evenodd" clip-rule="evenodd" d="M169.334 1.89363C200.028 0.480626 209.814 0.166626 288 0.166626C366.186 0.166626 375.972 0.506792 406.64 1.89363C437.307 3.28046 458.24 8.17363 476.557 15.2648C495.737 22.513 513.138 33.8431 527.53 48.4965C542.183 62.862 553.487 80.2366 560.709 99.443C567.826 117.76 572.693 138.693 574.106 169.308C575.519 200.054 575.833 209.84 575.833 288C575.833 366.186 575.493 375.972 574.106 406.666C572.72 437.281 567.826 458.214 560.709 476.531C553.487 495.74 542.164 513.143 527.53 527.53C513.138 542.183 495.737 553.487 476.557 560.709C458.24 567.826 437.307 572.693 406.692 574.106C375.972 575.519 366.186 575.833 288 575.833C209.814 575.833 200.028 575.493 169.334 574.106C138.719 572.719 117.786 567.826 99.4692 560.709C80.2608 553.486 62.8574 542.163 48.4704 527.53C33.827 513.155 22.4951 495.76 15.2649 476.557C8.17375 458.24 3.30675 437.307 1.89375 406.692C0.480748 375.946 0.166748 366.16 0.166748 288C0.166748 209.814 0.506914 200.028 1.89375 169.36C3.28058 138.693 8.17375 117.76 15.2649 99.443C22.5058 80.2388 33.8464 62.844 48.4966 48.4703C62.8631 33.8301 80.2491 22.4984 99.4431 15.2648C117.76 8.17363 138.693 3.30663 169.308 1.89363H169.334ZM404.311 53.7036C373.958 52.3168 364.852 52.029 288 52.029C211.149 52.029 202.043 52.3168 171.689 53.7036C143.612 54.9858 128.383 59.6696 118.231 63.6208C104.807 68.8541 95.2041 75.0556 85.1299 85.1298C75.5803 94.4203 68.231 105.73 63.6209 118.231C59.6697 128.383 54.9859 143.612 53.7037 171.689C52.3169 202.042 52.0291 211.148 52.0291 288C52.0291 364.851 52.3169 373.957 53.7037 404.311C54.9859 432.388 59.6697 447.617 63.6209 457.769C68.2262 470.251 75.5791 481.581 85.1299 490.87C94.4191 500.421 105.749 507.774 118.231 512.379C128.383 516.33 143.612 521.014 171.689 522.296C202.043 523.683 211.122 523.971 288 523.971C364.878 523.971 373.958 523.683 404.311 522.296C432.388 521.014 447.617 516.33 457.769 512.379C471.193 507.146 480.796 500.944 490.87 490.87C500.421 481.581 507.774 470.251 512.379 457.769C516.33 447.617 521.014 432.388 522.296 404.311C523.683 373.957 523.971 364.851 523.971 288C523.971 211.148 523.683 202.042 522.296 171.689C521.014 143.612 516.33 128.383 512.379 118.231C507.146 104.807 500.944 95.204 490.87 85.1298C481.579 75.5808 470.269 68.2316 457.769 63.6208C447.617 59.6696 432.388 54.9858 404.311 53.7036V53.7036ZM251.236 376.731C271.768 385.278 294.63 386.431 315.918 379.995C337.206 373.558 355.599 359.93 367.955 341.439C380.312 322.947 385.865 300.74 383.667 278.609C381.468 256.478 371.655 235.797 355.903 220.097C345.861 210.062 333.719 202.378 320.351 197.598C306.983 192.818 292.721 191.062 278.593 192.455C264.465 193.849 250.821 198.358 238.645 205.657C226.468 212.956 216.061 222.864 208.173 234.668C200.286 246.472 195.113 259.878 193.029 273.921C190.944 287.964 191.999 302.295 196.117 315.881C200.235 329.467 207.315 341.972 216.846 352.493C226.377 363.015 238.122 371.293 251.236 376.731ZM183.386 183.386C197.124 169.647 213.433 158.75 231.383 151.315C249.333 143.88 268.571 140.053 288 140.053C307.429 140.053 326.667 143.88 344.617 151.315C362.567 158.75 378.876 169.647 392.614 183.386C406.353 197.124 417.25 213.433 424.685 231.383C432.12 249.333 435.947 268.571 435.947 288C435.947 307.429 432.12 326.667 424.685 344.617C417.25 362.567 406.353 378.876 392.614 392.614C364.869 420.36 327.238 435.947 288 435.947C248.762 435.947 211.131 420.36 183.386 392.614C155.64 364.869 140.053 327.238 140.053 288C140.053 248.762 155.64 211.131 183.386 183.386V183.386ZM468.759 162.086C472.164 158.874 474.889 155.013 476.774 150.729C478.659 146.445 479.666 141.827 479.734 137.147C479.802 132.468 478.931 127.822 477.171 123.485C475.412 119.148 472.8 115.209 469.491 111.899C466.182 108.59 462.242 105.978 457.905 104.219C453.568 102.459 448.923 101.588 444.243 101.656C439.563 101.724 434.945 102.731 430.661 104.616C426.378 106.501 422.516 109.227 419.304 112.631C413.059 119.252 409.639 128.046 409.772 137.147C409.905 146.248 413.579 154.939 420.015 161.375C426.451 167.811 435.142 171.486 444.243 171.618C453.344 171.751 462.138 168.332 468.759 162.086V162.086Z" fill="black"/>
</svg>
