<svg width="44" height="44" viewBox="0 0 44 44" fill="none" xmlns="http://www.w3.org/2000/svg">
<rect width="44" height="44" rx="8" fill="#D7E0FF"/>
<path d="M30.861 15.9765H30.7954L30.7508 16.0247L28.974 17.9497V16.1265V15.9765H28.824H28.111C27.2016 15.9765 26.1684 15.7087 25.3656 15.0486C24.5679 14.3926 23.9833 13.3376 23.9833 11.7299C23.9833 10.1111 24.4525 9.05839 25.1858 8.40763C25.9223 7.75388 26.9502 7.48337 28.111 7.48337H32.3888C33.542 7.48337 34.5715 7.81878 35.3114 8.5083C36.0493 9.19601 36.5166 10.2522 36.5166 11.7299C36.5166 13.3411 35.9319 14.396 35.1343 15.0511C34.3316 15.7103 33.2984 15.9765 32.3888 15.9765H30.861Z" fill="#B2C3FB" stroke="#1B3C87" stroke-width="0.3"/>
<path d="M24.5666 16.8666L17.0866 24.1633L24.5666 35.2H19.3966L13.9333 27.2433L12.0266 29.0766V35.2H7.33325V9.16663H12.0266V23.21H12.3199L18.9199 16.8666H24.5666Z" fill="#1B3C87"/>
</svg>
