<svg width="241" height="80" viewBox="0 0 241 80" fill="none" xmlns="http://www.w3.org/2000/svg">
<path d="M24.3543 50.5L13.7835 60.45L24.3543 75.5H17.048L9.32719 64.65L6.63267 67.15V75.5H0V40H6.63267V59.15H7.04721L16.3744 50.5H24.3543Z" fill="#1B3C87"/>
<path d="M37.41 76C33.5064 76 30.2418 74.7833 27.6164 72.35C25.0255 69.8833 23.7301 66.75 23.7301 62.95C23.7301 59.15 25.0255 56.05 27.6164 53.65C30.2073 51.2167 33.4718 50 37.41 50C41.3481 50 44.6126 51.2167 47.2035 53.65C49.7944 56.05 51.0898 59.15 51.0898 62.95C51.0898 66.7833 49.7944 69.9167 47.2035 72.35C44.6126 74.7833 41.3481 76 37.41 76ZM37.41 70.45C39.5172 70.45 41.2272 69.7333 42.5399 68.3C43.8526 66.8667 44.509 65.0833 44.509 62.95C44.509 60.85 43.8526 59.1 42.5399 57.7C41.2272 56.2667 39.5172 55.55 37.41 55.55C35.3027 55.55 33.5927 56.2667 32.28 57.7C31.0018 59.1 30.3628 60.85 30.3628 62.95C30.3628 65.0833 31.0191 66.8667 32.3318 68.3C33.6445 69.7333 35.3372 70.45 37.41 70.45Z" fill="#1B3C87"/>
<path d="M54.3256 75.5V50.5H60.3883L60.9583 53.45H61.3728C63.2037 51.15 65.7428 50 68.99 50C72.0991 50 74.5518 50.9167 76.3481 52.75C78.179 54.5833 79.0945 57.1167 79.0945 60.35V75.5H72.4618V61.65C72.4618 59.6833 71.9436 58.1833 70.9073 57.15C69.8709 56.0833 68.5409 55.55 66.9173 55.55C65.2246 55.55 63.8082 56.1 62.6683 57.2C61.5283 58.2667 60.9583 59.85 60.9583 61.95V75.5H54.3256Z" fill="#1B3C87"/>
<path d="M93.6075 76C90.0493 76 87.2857 75.25 85.3166 73.75C83.3476 72.2167 82.2767 70.1333 82.104 67.5H88.4775C88.823 70 90.5157 71.25 93.5557 71.25C94.6611 71.25 95.5593 71.05 96.2502 70.65C96.9756 70.2167 97.3384 69.5667 97.3384 68.7C97.3384 67.8 96.9584 67.1167 96.1984 66.65C95.4729 66.15 94.3329 65.7 92.7784 65.3L90.343 64.7C89.3066 64.4667 88.4084 64.2167 87.6484 63.95C86.923 63.65 86.163 63.25 85.3685 62.75C84.5739 62.2167 83.9694 61.5333 83.5548 60.7C83.1403 59.8333 82.933 58.8167 82.933 57.65C82.933 55.25 83.8658 53.3833 85.7312 52.05C87.5966 50.6833 89.8939 50 92.6229 50C95.9393 50 98.4783 50.7167 100.24 52.15C102.002 53.5833 102.986 55.4167 103.194 57.65H96.8202C96.5438 55.7167 95.162 54.75 92.6748 54.75C91.6384 54.75 90.8093 54.9833 90.1875 55.45C89.5657 55.8833 89.2548 56.5 89.2548 57.3C89.2548 58.1 89.5657 58.6833 90.1875 59.05C90.8439 59.3833 91.9493 59.75 93.5038 60.15L95.9393 60.75C98.4265 61.35 100.327 62.25 101.639 63.45C102.986 64.65 103.66 66.35 103.66 68.55C103.66 71.0167 102.71 72.8833 100.81 74.15C98.9447 75.3833 96.5438 76 93.6075 76Z" fill="#1B3C87"/>
<path d="M131.447 50.5V75.5H125.384L124.814 72.55H124.399C122.568 74.85 120.029 76 116.782 76C113.673 76 111.203 75.0833 109.372 73.25C107.576 71.4167 106.678 68.8833 106.678 65.65V50.5H113.31V64.35C113.31 66.3167 113.829 67.8333 114.865 68.9C115.901 69.9333 117.248 70.45 118.907 70.45C120.599 70.45 121.998 69.9167 123.104 68.85C124.244 67.75 124.814 66.15 124.814 64.05V50.5H131.447Z" fill="#1B3C87"/>
<path d="M135.688 75.5V40H142.32V75.5H135.688Z" fill="#1B3C87"/>
<path d="M157.885 76C152.496 76 149.801 73.5667 149.801 68.7V55.55H144.257V50.5H146.019C147.608 50.5 148.73 50.2167 149.387 49.65C150.078 49.05 150.423 48.0667 150.423 46.7V43.7H156.434V50.5H163.222V55.55H156.434V67.85C156.434 68.4167 156.486 68.9 156.589 69.3C156.728 69.7 157.073 70.0833 157.626 70.45C158.179 70.7833 158.939 70.95 159.906 70.95C160.7 70.95 161.547 70.8333 162.445 70.6V75.45C160.787 75.8167 159.267 76 157.885 76Z" fill="#1B3C87"/>
<path d="M190.238 71.1C190.791 71.1 191.378 71 192 70.8V75.2C190.964 75.5667 189.806 75.75 188.528 75.75C185.35 75.75 183.243 74.6167 182.206 72.35C180.341 74.7833 177.456 76 173.553 76C170.789 76 168.561 75.3833 166.868 74.15C165.21 72.8833 164.381 71.05 164.381 68.65C164.381 66.3833 165.158 64.6167 166.713 63.35C168.302 62.05 170.375 61.2833 172.931 61.05L181.015 60.25V59.2C181.015 57.8667 180.617 56.85 179.823 56.15C179.028 55.45 177.975 55.1 176.662 55.1C174.002 55.1 172.447 56.35 171.998 58.85H165.366C165.642 56.1833 166.782 54.05 168.786 52.45C170.789 50.8167 173.415 50 176.662 50C179.909 50 182.552 50.8167 184.59 52.45C186.628 54.05 187.647 56.45 187.647 59.65V68.5C187.647 70.2333 188.511 71.1 190.238 71.1ZM181.015 65.85V64.65L175.211 65.25C172.413 65.55 171.014 66.6 171.014 68.4C171.014 70.2 172.24 71.1 174.693 71.1C176.351 71.1 177.819 70.6833 179.097 69.85C180.376 68.9833 181.015 67.65 181.015 65.85Z" fill="#1B3C87"/>
<path d="M202.667 7H221.333C231.643 7 240 12.8333 240 25.652C240 39.6667 229.5 44.3041 221.333 44.3041H214.667L205.778 53.6667V44.3041H202.667C194.5 44.3041 184 39.6374 184 25.652C184 11.6667 192.357 7 202.667 7Z" fill="#B2C3FB" stroke="#1B3C87"/>
</svg>
