<?xml version="1.0" encoding="utf-8"?>
<!-- Generator: Adobe Illustrator 24.0.0, SVG Export Plug-In . SVG Version: 6.00 Build 0)  -->
<svg version="1.1" id="Capa_1" xmlns="http://www.w3.org/2000/svg" xmlns:xlink="http://www.w3.org/1999/xlink" x="0px" y="0px"
	 viewBox="0 0 1061 1048.2" style="enable-background:new 0 0 1061 1048.2;" xml:space="preserve">
<style type="text/css">
	.st0{fill:#1B3C87;}
	.st1{fill:#FEFEFE;}
	.st2{fill:#4B26AA;}
	.st3{fill:#4C27AA;}
	.st4{fill:#4B27AA;}
	.st5{fill:#4D29AB;}
	.st6{fill:#4D28AB;}
	.st7{fill:#502DAC;}
	.st8{fill:#4E2AAB;}
	.st9{fill:#522EAD;}
	.st10{fill:#5735AF;}
	.st11{fill:#5533AF;}
	.st12{fill:#5634AF;}
	.st13{fill:#B2C3FB;}
	.st14{fill:#D7E0FF;}
	.st15{fill:#8088DC;}
</style>
<g>
	<path class="st0" d="M735.7,1042.4c-237.8,0-172.1,0-409.8,0c-34.1,0-59.6-25.6-59.6-59.8c0-64.5,0-129,0.1-193.5
		c0-4.3-0.8-5.5-5.4-5.5c-64.5,0.2-129,0.1-193.5,0.1c-34.4,0-59.9-25.5-59.9-60c0-133.1,0-266.3,0-399.4
		c0-34.8,25.4-60.2,60.2-60.2c64.3,0,128.6-0.1,193,0.1c4.7,0,5.6-1.4,5.6-5.8c-0.1-64.5-0.1-129-0.1-193.5
		c0-33.8,25.6-59.5,59.4-59.5c47.5,0,95,0,142.5,0c33.2,0,58.9,25.8,58.9,58.9c0,64.8,0.1,129.6-0.1,194.5c0,4.4,1,5.4,5.4,5.4
		c150.6-0.1,301.3-0.1,451.9-0.1c34.8,0,60.2,25.4,60.2,60.2c0,133.1,0,266.3,0,399.4c0,34.5-25.5,60-59.9,60
		c-64.5,0-129,0.1-193.5-0.1c-4.5,0-5.4,1.2-5.4,5.5c0.1,64.2,0.2,128.3,0.1,192.5c0,27.1-12.6,46.2-37.5,57.1
		C747.7,1038.9,735.7,1042.4,735.7,1042.4z"/>
	<path class="st1" d="M527,653.2c0-41.1,0.1-82.3-0.1-123.4c0-4,1.1-4.9,4.9-4.9c82.3,0.1,164.6,0.1,246.9,0c4.1,0,5.2,1,5.2,5.2
		c-0.1,82.1-0.1,164.2,0,246.4c0,4.5-1.2,5.5-5.5,5.5c-82.1-0.1-164.2-0.1-246.4,0c-4.2,0-5.1-1.2-5.1-5.3
		C527.1,735.5,527,694.3,527,653.2z"/>
	<path class="st1" d="M913.8,523c-41,0-82-0.1-122.9,0.1c-4.3,0-5.1-1.2-5.1-5.2c0.1-82.1,0.1-164.2,0-246.4c0-4.5,1.3-5.4,5.6-5.4
		c64.6,0.1,129.3,0.1,193.9,0.1c32.3,0,57.2,25,57.2,57.4c0,64.6,0,129.3,0.1,193.9c0,4.7-1.4,5.6-5.8,5.6
		C995.7,522.9,954.7,523,913.8,523z"/>
	<path class="st1" d="M266.2,395c0,41-0.1,82,0.1,122.9c0,4.2-1.1,5.2-5.2,5.1c-82.1-0.1-164.2-0.1-246.4,0c-4.2,0-5.2-1-5.2-5.2
		C9.7,452.9,9.6,388,9.7,323c0-31.7,25.1-56.8,56.8-56.8c64.8,0,129.6,0,194.4-0.1c4.4,0,5.5,1.1,5.5,5.5
		C266.1,312.7,266.2,353.9,266.2,395z"/>
	<path class="st1" d="M527,911.7c0-40.8,0.1-81.6-0.1-122.4c0-4.1,0.5-5.6,5.3-5.6c82.1,0.2,164.2,0.2,246.4,0
		c4.7,0,5.3,1.5,5.3,5.6c-0.1,64.6-0.1,129.3-0.1,193.9c0,32.1-25,57.1-56.9,57.2c-64.8,0-129.6,0-194.4,0.1c-4.8,0-5.6-1.5-5.6-5.8
		C527.1,993.7,527,952.7,527,911.7z"/>
	<path class="st1" d="M785.8,653.3c0-41.1,0.1-82.3-0.1-123.4c0-3.8,0.9-5,4.9-5c82.3,0.1,164.6,0.1,246.9,0c3.8,0,5,0.9,5,4.9
		c-0.1,65.3,0,130.6-0.1,195.9c-0.1,31.1-25.3,56.1-56.4,56.1c-65,0.1-129.9,0-194.9,0.1c-4.1,0-5.3-0.9-5.3-5.2
		C785.9,735.6,785.8,694.4,785.8,653.3z"/>
	<path class="st1" d="M396.5,525c41.1,0,82.3,0.1,123.4-0.1c4.1,0,5.2,0.9,5.2,5.1c-0.1,82.1-0.1,164.2,0,246.4
		c0,4.3-0.8,5.5-5.4,5.5c-82.1-0.2-164.2-0.1-246.4,0c-4.1,0-5.3-1-5.3-5.2c0.1-82.3,0.1-164.6,0-246.9c0-4,1-4.9,4.9-4.9
		C314.2,525.1,355.4,525,396.5,525z"/>
	<path class="st1" d="M655.2,523c-41.1,0-82.3-0.1-123.4,0.1c-3.9,0-4.9-1-4.9-4.9c0.1-82.3,0.1-164.6,0-246.9c0-4.1,1-5.2,5.2-5.2
		c82.1,0.1,164.2,0.1,246.4,0c4.4,0,5.5,1.1,5.5,5.5c-0.1,82.1-0.1,164.2,0,246.4c0,4.2-1.2,5.2-5.2,5.1
		C737.5,522.9,696.4,523,655.2,523z"/>
	<path class="st1" d="M397,783.8c41,0,82,0.1,122.9-0.1c4.1,0,5.2,1,5.2,5.2c-0.1,82.1-0.1,164.2,0,246.4c0,4.1-0.9,5.2-5.2,5.2
		c-65-0.1-129.9-0.1-194.9-0.1c-31.7,0-56.8-25.1-56.8-56.7c0-65,0-129.9-0.1-194.9c0-3.9,0.9-5,4.9-5
		C314.4,783.9,355.7,783.8,397,783.8z"/>
	<path class="st1" d="M396.5,264.2c-41,0-82-0.1-123,0.1c-4.4,0-5.5-1.1-5.5-5.5c0.2-64.8,0.1-129.6,0.1-194.4
		c0-31.7,25.1-56.7,56.8-56.7c47.6-0.1,95.3,0,142.9,0c32.1,0,57,24.9,57,57c0,64.8,0,129.6,0.1,194.4c0,4.1-0.9,5.2-5.1,5.2
		C478.8,264.1,437.7,264.2,396.5,264.2z"/>
	<path class="st1" d="M525,394.7c0,41.1-0.1,82.3,0.1,123.4c0,3.9-0.9,4.9-4.9,4.9c-82.3-0.1-164.6-0.1-246.9,0
		c-4.1,0-5.3-0.9-5.3-5.1c0.1-82.1,0.1-164.2,0-246.4c0-4.4,1-5.5,5.5-5.5c82.1,0.2,164.2,0.1,246.4,0c4.2,0,5.2,1.1,5.2,5.2
		C524.9,312.5,525,353.6,525,394.7z"/>
	<path class="st1" d="M138.2,525c41,0,82,0.1,122.9-0.1c4.2,0,5.1,1.1,5.1,5.2c-0.1,82.1-0.1,164.2,0,246.4c0,4.5-1.2,5.4-5.5,5.4
		c-64.6-0.1-129.3-0.1-193.9-0.1c-32.3,0-57.2-25-57.2-57.4c0-64.6,0-129.3-0.1-193.9c0-4.7,1.3-5.7,5.8-5.6
		C56.3,525.1,97.3,525,138.2,525z"/>
	<path class="st2" d="M656.6,703c-19.8,0-39.6,0.1-59.3-1.9c-25.9-2.6-43.7-24.5-41.8-50.6c1.8-24.1,15.2-40.3,37.4-45
		c6.4-1.3,12.9-1.3,19.4-1.5c23.6-0.8,47.2-1.4,70.9-0.5c12.6,0.5,25.3-0.3,37.8,2.3c23.1,4.7,37.7,24.8,36.6,50.1
		c-1,24.4-17.5,42.8-41,45.2C696.6,703.1,676.6,702.9,656.6,703z"/>
	<path class="st2" d="M969.8,394.2c0.8,19,0.7,37.9-0.7,56.9c-2,28-24.2,46.9-52.1,44.3c-26.8-2.4-43.5-19.6-44.8-46.5
		c-1.8-36.3-1.8-72.5,0-108.8c1.1-23.1,13.7-39.3,34.4-44.9c21.8-5.8,44.4,2.2,55.5,19.4c6.1,9.5,7.4,20.2,7.6,31.1
		C970,362,969.8,378.1,969.8,394.2z"/>
	<path class="st3" d="M138,476c-22.3,0.1-44.6-0.4-66.8-1.8c-18.1-1.2-28.1-18-20.3-34.5c8-16.8,17.4-32.9,26.6-49.1
		c12.6-22.3,26.1-44,39.9-65.6c10.3-16.1,31-15.9,41.1,0.1c23.3,36.8,46,73.9,65.5,113c8.7,17.5-0.6,34.8-20.1,36.2
		C181.9,475.7,160,476.1,138,476z"/>
	<path class="st4" d="M738,903.3c0.1,19.4-0.1,44.7-1.8,69.9c-1.3,18.5-18.5,28.4-35.2,20c-38-18.9-74.2-41-110.1-63.5
		c-6.4-4-12.5-8.2-14.8-16.1c-3-10.6,0.6-21,10.1-26.9c31.5-19.5,62.3-40.2,95.7-56.6c6.7-3.3,13.2-7,19.9-10.4
		c15.7-7.9,33.3,2.2,34.4,19.8C737.4,858.8,738,878.1,738,903.3z"/>
	<path class="st5" d="M914.2,734.5c-21.8,0.1-43.6-0.4-65.4-1.6c-19.4-1.1-29.6-17.6-21.3-35.3c7.6-16.3,16.7-31.7,25.6-47.4
		c13-23,26.8-45.5,41.2-67.7c8.3-12.9,25.7-14.8,36.3-4.3c1.6,1.6,3,3.6,4.2,5.5c23.6,36.8,46.2,74.2,65.7,113.4
		c8.4,16.8-1.3,34.5-20,35.7C958.5,734.2,936.4,734.6,914.2,734.5z"/>
	<path class="st6" d="M428,730c-5.1,5.5-10.8,10.4-16.8,14.8c-8,5.9-18.8,5.5-26.9-0.9c-10.5-8.2-20.2-17.3-29.7-26.6
		c-15.2-14.9-30.3-30-44-46.3c-10.8-12.8-11.1-22.9-0.2-35.5c22.5-25.9,46.7-50.2,72.8-72.5c9.4-8.1,21.1-8,30.5,0
		c26.4,22.7,51,47.3,73.8,73.6c9.2,10.6,9.2,21.7,0.1,32.4c-8.2,9.6-16.6,19.1-25.8,27.7c-1,0.2-1.2-0.4-1.4-1.2
		c2-4.5,5.5-7.9,8.9-11.3c6-6,11.8-12.2,16.9-19c6.4-8.5,6.3-17.4-0.7-25.6c-15.8-18.5-32.3-36.2-50.3-52.6
		c-7.9-7.1-15.4-14.7-23.7-21.4c-8.5-6.9-16.7-7-25.5-0.7c-4.2,3-8,6.5-11.7,10c-12.6,11.8-25.5,23.4-37.2,36.2
		c-0.7,0.9-1.7,1.6-2.4,2.4c-5.4,6.8-12.2,12.2-17.7,18.9c-1.2,1-2.3,2.1-3.2,3.4c-1,1.8-2.3,3.3-3.5,4.9c-5.7,7.5-5.8,16.6-0.2,24
		c5.6,7.4,11.8,14.5,18.3,21c15.5,15.5,30.5,31.5,47,46.1c3.1,2.8,6.2,5.5,9.5,8.1c9,7.2,17.9,7,26.8-0.1c1.4-1.1,2.9-2.2,4.1-3.6
		c0.5-0.5,1-1,1.5-1.5c3.2-2.3,5.6-5.7,9.8-6.6C427.9,728.8,428.5,729.1,428,730z"/>
	<path class="st7" d="M428,730c-0.4-0.4-0.9-0.8-1.3-1.2c0.6-3.9,4-5.6,6.4-8c4.2-4.4,4.4-4.3-0.1-8.7c-9.1-9.1-18.1-18.1-27.2-27.2
		c-23.5-23.4-46.8-47-70.4-70.2c-0.6-0.6-1.2-1.1-1.4-2c0.7-0.7,1.5-1.3,2.2-2c2.8,0.2,4.2,2.6,5.9,4.3
		c30.4,30.3,60.8,60.7,91.1,91.1c7.8,7.8,7.8,7.8,15.3,0.2c2.6-2.6,5.1-5.2,7.8-7.8c1.3-1.2,2.4-2.9,4.5-2.8c0.3,0.4,0.7,0.9,1,1.3
		C451.3,708.7,440,719.6,428,730z"/>
	<path class="st8" d="M591,325c3.4-3.3,7.7-4.5,12.3-4.8c35.4-2.5,70.8-2.6,106.3,0c11.8,0.9,20.4,9.5,21.3,21.3
		c2.9,35.4,3,70.8,0,106.3c-1,12-9.8,20.4-21.9,21.3c-35.1,2.5-70.2,2.5-105.3,0c-2.7-0.2-5.3-0.5-7.6-2c-0.1-1.2,0.8-1.6,1.7-1.9
		c15.4,1.1,30.9,1.1,46.3,2.1c6.7,0.4,13.3,0.3,20,0.2c2.9,0,4.2-1.5,4.3-4.3c0-1.5,0.1-3,0.1-4.5c0-42.5,0-85,0-127.4
		c0-1.2-0.1-2.3,0-3.5c0.2-4.1-2-5.7-5.7-5.9c-3.8-0.2-7.7-0.5-11.5,0c-14.1,1.9-28.3,0.1-42.4,1.6c-5.5,0.6-10.7,2-16,3.4
		C591.8,326.6,590.9,326.3,591,325z"/>
	<path class="st9" d="M584.9,457c-4.1-5.9-3.4-12.8-3.7-19.2c-1.6-32-1.9-64,0.7-96c0.3-3.5,0.8-6.9,3-9.8c1.3-0.1,1.6,0.7,1.8,1.7
		c-4.4,40.6-4.3,81.1,0,121.7C586.5,456.3,586.2,457.2,584.9,457z"/>
	<path class="st10" d="M584.9,457c0.4-0.4,0.8-0.8,1.2-1.3c4.2,2.8,7.7,6.4,11.3,10c-0.5,0.4-0.9,0.8-1.4,1.2
		C590.9,465.3,587.2,461.9,584.9,457z"/>
	<path class="st11" d="M586.1,333.3c-0.4-0.4-0.8-0.8-1.1-1.3c1.1-3.1,3.2-5.3,6-7c0.4,0.4,0.8,0.8,1.2,1.1
		C591.5,329.6,589.2,331.8,586.1,333.3z"/>
	<path class="st3" d="M476.9,906.6c-0.4,18-0.6,35.9-2,53.9c-1,12.8-9.5,21.5-22.4,22.5c-36.4,3-72.8,3-109.2-0.1
		c-11.1-0.9-20.1-9.5-21.1-20.6c-2.2-25.2-2.4-50.5-1.8-75.8c0.2-11.3,1-22.6,1.7-33.9c0.7-12.4,9.4-21.6,21.8-22.5
		c36.4-2.7,72.8-2.7,109.2,0c12.3,0.9,20.8,10,21.8,22.6C476.3,870.7,476.5,888.7,476.9,906.6z"/>
	<path class="st0" d="M396.7,222.5c-47.5,0.1-86.6-38.5-86.7-85.5c-0.1-48.8,38.4-87.8,86.6-87.7c46.8,0.1,85.6,38.6,86.6,84.4
		C484.2,180.4,447,222.3,396.7,222.5z"/>
	<path class="st2" d="M343.1,471c-5.4-7.6-9.6-15.9-14.3-24c-7.6-12.9-15-25.9-22.5-38.8c-5.3-9.2-5.2-18.2,0.1-27.4
		c10.9-18.8,22-37.6,32.6-56.7c6.2-11.2,14.8-16.5,27.9-16.2c21.8,0.6,43.6,0.2,65.5,0.1c10.8-0.1,18.8,4.5,24.1,13.9
		c11.3,19.8,22.8,39.5,34.2,59.2c5.1,8.8,5.3,17.7,0.2,26.5c-11.6,20.2-23.2,40.4-34.9,60.5c-5,8.6-12.6,12.9-22.7,12.9
		c-23.3-0.1-46.6,0-70,0c-5.7,0-10.8-1.3-15.2-5.1c-0.1-1.3,0.8-1.5,1.8-1.7c5.2,0.8,9.9,3.6,15.5,3.3c6.7-0.4,7.1-0.4,7.1-7.1
		c0-23.6,0-47.3,0-70.9c0-26.6,0-53.3,0-79.9c0-8.1-0.1-8.1-8.5-8.1c-8,0-14,3.5-18.7,9.7c-2.4,3.2-3.7,6.6-3.7,10.6
		c0,41.8,0,83.5-0.1,125.3c0,4.4,2.8,7.8,3.3,11.9C344.6,470.1,344.4,471,343.1,471z"/>
	<path class="st12" d="M343.1,471c0.4-0.4,0.7-0.8,1.1-1.3c2.9,0.5,4.6,2.2,5.2,5.1c-0.4,0.4-0.9,0.8-1.3,1.1
		C345.9,474.9,344.2,473.2,343.1,471z"/>
	<path class="st3" d="M224.2,653.5c0,11.7-0.1,23.3,0,35c0.1,9.5-3.9,16.8-12,21.6c-20.7,12.1-41.4,24.1-62.2,35.9
		c-7.9,4.5-16.3,4.5-24.3,0c-20.7-11.8-41.3-23.7-61.8-35.7c-8.2-4.8-12.6-12.2-12.6-21.8c0-23.5-0.1-47,0-70.5
		c0.1-9.7,4.3-17.3,12.8-22.2c20-11.6,40.1-23.1,60-34.7c9.4-5.5,18.5-5.2,27.9,0.2c19.5,11.4,39.2,22.7,58.8,34
		c9,5.2,13.6,12.7,13.5,23.3C224.1,630.2,224.2,641.8,224.2,653.5z"/>
	<path class="st13" d="M617,653c0-14.3,0.1-28.7-0.1-43c0-3.3,0.9-4.1,4.2-4.2c27-1.2,53.9-0.5,80.9,0.3c7.3,0.2,14.7,0.3,21.8,2.4
		c17,5.2,26.9,17.1,30.7,34.2c4.4,19.7-3.9,40.4-20.3,50.5c-7.9,4.9-16.8,6.2-25.8,6.6c-26.3,1.2-52.6,1.4-78.9,1
		c-1.7,0-3.3-0.3-5-0.5c-7.5-0.6-7.5-0.6-7.5-8.4C617,679,617,666,617,653z"/>
	<path class="st1" d="M615,653.4c0,14.1-0.1,28.3,0.1,42.4c0,3.5-0.9,4.5-4.5,4.2c-6.6-0.4-13.3-0.7-19.8-2.1
		c-2.7-0.6-3.7-1.8-3.7-4.7c0.1-26.8,0.1-53.6,0-80.4c0-3.2,1.1-4.3,4-4.9c7-1.6,14.2-1.4,21.3-2c3.5-0.3,2.5,2.3,2.6,4
		C615,624.5,615,639,615,653.4z"/>
	<path class="st13" d="M585.1,610.6c0,2.6,0,5,0,7.5c0,24.3,0,48.6,0,72.8c0,5.7-0.1,5.8-5.2,2.9c-12.1-6.9-18.6-17.6-21.4-30.9
		c-4-19.1,4.2-39.7,19.6-49.3C580.1,612.2,582.1,610.6,585.1,610.6z"/>
	<path class="st14" d="M920.8,355c14.3,0,28.6,0.1,43-0.1c3,0,4.3,0.5,4.4,4c1,27.6,0.6,55.2-0.5,82.8c-0.2,6.6-0.4,13.3-2.2,19.8
		c-5.9,20.6-25.3,33.4-48.5,31.7c-25.1-1.8-41.7-19-42.9-45.1c-1.4-29.6-1.8-59.2-0.7-88.8c0.1-3.4,0.9-4.5,4.4-4.4
		C892.2,355.1,906.5,355,920.8,355z"/>
	<path class="st1" d="M920.8,353c-14.3,0-28.6-0.1-42.9,0.1c-3.4,0-4.3-1-4.1-4.2c0.4-6.8,0.7-13.6,2.2-20.3
		c0.6-2.5,1.7-3.5,4.4-3.5c27.1,0.1,54.3,0.1,81.4,0c2.6,0,3.5,1.1,4,3.2c1.8,7.3,1.6,14.9,2.2,22.3c0.3,3.2-2.1,2.3-3.7,2.3
		C949.7,353,935.2,353,920.8,353z"/>
	<path class="st14" d="M878.1,322.8c5.9-16.5,23.2-27.3,43-27.2c19.6,0.1,36.7,10.9,42.5,27.2C935.1,322.8,906.7,322.8,878.1,322.8z
		"/>
	<path class="st15" d="M138.5,383.9c16.5,0,33,0.1,49.5-0.1c3.5,0,5.5,1.2,7.1,4.1c9.4,17.8,19.1,35.4,28.1,53.4
		c7.1,14.1-3,29.8-18.8,30.8c-30.6,1.9-61.2,2.2-91.8,1.7c-14.3-0.2-28.6-1-42.8-1.9C55.4,471,46,455.4,52.1,442.3
		c9-19.3,19.8-37.7,30.4-56.2c1.4-2.5,3.4-2.2,5.6-2.2C104.9,383.9,121.7,383.9,138.5,383.9z"/>
	<path class="st1" d="M85,381.6c6.3-10.4,12.4-20.5,18.4-30.5c0.9-1.6,2.5-1.5,4-1.5c20.3,0,40.6,0,60.9,0c1.5,0,2.9,0,3.9,1.6
		c6.2,10,12.5,19.9,19.1,30.4C155.6,381.6,120.7,381.6,85,381.6z"/>
	<path class="st15" d="M105.8,347.2c5.8-8.9,10-17.5,16-24.8c9-10.9,26.1-9.6,33.9,2.3c4.1,6.3,7.9,12.7,11.8,19.1
		c1.1,1.7,2.3,3.4-1.3,3.4C146.5,347.2,126.7,347.2,105.8,347.2z"/>
	<path class="st14" d="M646,906.6c0-16.8,0.1-33.6-0.1-50.5c0-3.1,1-4.9,3.6-6.3c18.1-9.5,36-19.4,54.3-28.6
		c13.4-6.7,29.3,2.9,30.2,17.9c2.8,45.1,2.8,90.1,0,135.2c-0.9,14.8-16.3,24.3-29.8,18.1c-19.4-8.9-37.7-19.8-56.1-30.4
		c-2.3-1.3-2.1-3.1-2.1-5C646,940.2,646,923.4,646,906.6z"/>
	<path class="st1" d="M643.8,853.2c0,35.8,0,70.8,0,106.6c-10.6-6.4-20.8-12.6-31-18.8c-1.6-1-1.2-2.6-1.2-4c0-20,0-40,0-60
		c0-1.6-0.3-3.3,1.5-4.5C623.1,866.2,633.2,859.8,643.8,853.2z"/>
	<path class="st14" d="M609.4,874.7c0,19,0,36.9-0.1,54.9c0,2.7,1.4,6.5-0.9,7.8c-1.9,1.1-4.5-2-6.7-3.4c-5.2-3.2-10.5-6.4-15.6-9.9
		c-12.1-8.5-12.4-25.9-0.5-34.5C593,884.5,600.8,880.1,609.4,874.7z"/>
	<path class="st14" d="M914.5,642.6c16.5,0,33,0.1,49.4-0.1c3.6,0,5.9,0.9,7.6,4.1c9.3,17.8,19.1,35.4,28.1,53.4
		c7,13.8-2.5,29.6-18.3,30.7c-30.9,2.1-61.9,1.9-92.8,1.5c-13.3-0.2-26.6-0.7-39.9-1.4c-14-0.7-22.7-10.4-21.8-23.8
		c0.2-3.1,1.4-5.8,2.7-8.5c8.8-17.9,18.7-35.2,28.6-52.5c1.6-2.8,3.5-3.4,6.4-3.4C881.2,642.6,897.8,642.6,914.5,642.6z"/>
	<path class="st1" d="M967.8,640.4c-2.8,0-4.4,0-6,0c-31.5,0-62.9,0-94.4,0c-1.7,0-4.2,1-5-0.8c-0.8-1.6,1.3-3.2,2.2-4.7
		c4.7-7.9,9.5-15.6,14.2-23.5c1.4-2.4,2.9-3.5,5.8-3.5c19.8,0.1,39.6,0.1,59.4,0.1c1.8,0,3.5-0.3,4.7,1.8
		C954.7,619.7,960.9,629.5,967.8,640.4z"/>
	<path class="st14" d="M946,605.7c-21.6,0-42.3,0-64.1,0c5.6-8.6,10.3-17.1,16.2-24.6c9.1-11.2,25.8-9.9,33.8,2.1
		C936.8,590.4,941.2,597.9,946,605.7z"/>
	<path class="st13" d="M460.9,695.6c-5.7,5.6-11.4,11.1-16.9,16.9c-2.1,2.2-3.4,2.6-5.9,0.2c-33.9-34.1-67.9-68-101.8-102
		c15.4-16.1,31.4-31.6,48.5-46c8.8-7.4,19-7.4,27.6,0c26.7,22.9,51.5,47.6,74.4,74.3c7.4,8.7,7.6,19,0.2,27.6
		C478.4,676.5,469.6,686,460.9,695.6z"/>
	<path class="st1" d="M334,612.7c1.9,0.1,2.8,1.7,3.9,2.9c32.7,32.7,65.4,65.4,98.1,98c2.5,2.5,3.3,3.9,0,6.4
		c-3.4,2.6-6.2,5.9-9.3,8.9c-2.8,2.3-5.6,4.7-8.5,7c-1.9-0.3-3.2-1.7-4.5-3c-31.8-31.8-63.6-63.6-95.4-95.4
		c-1.5-1.5-3.5-2.8-2.4-5.5C322,625.5,328,619.1,334,612.7z"/>
	<path class="st13" d="M416.9,737.2c-11.8,12.4-22.6,13-35.2,2c-24.4-21.2-47.3-44-68.5-68.4c-11.4-13.1-11.5-20.4-0.9-34.3
		c0.3-0.4,0.5-0.8,0.8-1.3c1-1.3,2.1-0.6,3,0c1.2,0.9,2.2,2,3.2,3.1c31.2,31.2,62.5,62.5,93.7,93.7
		C414.6,733.6,416.4,734.9,416.9,737.2z"/>
	<path class="st7" d="M416.9,737.2c-33-33-66-66-99.1-98.9c-1.3-1.3-2.2-3.6-4.7-3c0.9-1.1,1.9-2.2,2.8-3.3c0.1,2.3,2.1,3.3,3.4,4.7
		c31.8,31.9,63.7,63.7,95.5,95.6c1.2,1.2,2.2,2.4,3.4,3.6C417.8,736.3,417.4,736.7,416.9,737.2z"/>
	<path class="st13" d="M586.1,333.3c2-2.4,4.1-4.8,6.1-7.1c7.5-5.2,16.3-4.3,24.6-4.8c14.9-0.9,29.9-0.9,44.9-1.1
		c8.6-0.1,8.6,0,8.6,8.3c0,44.6-0.1,89.3,0.1,133.9c0,4.9-1.1,6.7-6.3,6.6c-20-0.3-39.9-0.7-59.8-2c-2.3-0.2-4.6-0.7-6.9-1.1
		c-4.7-2.3-8.4-5.7-11.3-10c-3.7-11.6-2.7-23.7-3.4-35.6c-1.2-21.5-0.5-42.9,0.4-64.3C583.4,348.3,583.2,340.5,586.1,333.3z"/>
	<path class="st1" d="M672.6,394c0-22.8,0.1-45.7-0.1-68.5c0-3.9,0.8-5.2,5-4.8c5.8,0.6,11.6,0.5,17.5,0.5c4.3,0,6.1,1.3,6,6.3
		c-0.3,29.3-0.2,58.6-0.2,88c0,16-0.1,32,0.1,48c0,3.5-1,4.5-4.5,4.5c-6.5-0.1-13,0.1-19.5,0.6c-3.6,0.2-4.5-1-4.5-4.5
		C672.6,440.7,672.6,417.3,672.6,394z"/>
	<path class="st13" d="M702.9,394c0-22.5,0.1-44.9-0.1-67.4c0-3.7,0.9-4.8,4.7-4.6c12.1,0.7,20.5,8.7,21.4,20.8
		c1.8,23.6,2.5,47.2,1.8,70.8c-0.3,11.3-1.1,22.6-2,33.8c-0.9,11.8-10.1,19.6-22.3,19.7c-3,0-3.7-0.9-3.6-3.7c0.1-10.3,0-20.6,0-31
		C702.9,419.7,702.9,406.8,702.9,394z"/>
	<path class="st13" d="M398.2,921.1c-23.5,0-47-0.1-70.5,0.1c-4.2,0-5.7-0.8-5.6-5.4c0.1-21,0.5-41.9,2-62.9
		c0.8-11.4,8.9-20,20.5-20.8c35.9-2.5,71.8-2.6,107.7,0c11.6,0.8,19.8,9,20.6,20.6c1.4,20.6,1.9,41.2,2,61.9c0,6.5-0.1,6.5-6.7,6.5
		C444.8,921.1,421.5,921.1,398.2,921.1z"/>
	<path class="st1" d="M398.4,923.1c23.8,0,47.7,0.1,71.5-0.1c3.8,0,4.8,1,4.5,4.8c-0.6,6.3-0.6,12.6-0.6,19c0,4.2-1.4,5.4-5.8,5.4
		c-38.8-0.2-77.7-0.1-116.5-0.1c-8,0-16-0.2-24,0.1c-3.6,0.1-4.5-1.2-4.5-4.5c0-6.3,0-12.7-0.6-19c-0.4-4.4,0.7-5.8,5.4-5.7
		C351.4,923.2,374.9,923.1,398.4,923.1z"/>
	<path class="st13" d="M398.5,954.1c23.3,0,46.6,0.1,69.9-0.1c3.7,0,4.8,0.9,4.6,4.7c-0.7,13.1-8.7,21.2-21.6,22.4
		c-27.2,2.5-54.5,2.2-81.8,1.6c-9.1-0.2-18.3-1-27.4-1.9c-11.3-1.2-20.4-13.7-18.5-24.6c0.6-3.3,3-2,4.7-2
		C351.9,954,375.2,954.1,398.5,954.1z"/>
	<path class="st15" d="M375.9,394.2c0-26.3,0.1-52.6-0.1-78.9c0-4.1,1-5.4,5.2-5.3c17.5,0.2,35,0,52.4,0.1c9,0,15.9,4,20.5,11.9
		c11.6,20,23.2,40,34.8,60c4.9,8.3,5,16.6,0.1,25c-11.7,20.1-23.3,40.3-35,60.4c-4.5,7.7-11.2,11.6-20.1,11.6
		c-17.6,0.1-35.3-0.1-52.9,0.1c-3.9,0-5-1.1-5-5C376,447.4,375.9,420.8,375.9,394.2z"/>
	<path class="st1" d="M349.4,474.8c-1.7-1.7-3.5-3.4-5.2-5.1c-4.1-5.3-4.2-11.5-4.2-17.9c0.1-40.1,0.1-80.2,0.1-120.3
		c0-10.1,10.5-21,20.6-21.3c13.3-0.4,13.3-0.4,13.3,12.7c0,50.3-0.1,100.5,0.1,150.8c0,4.5-1.2,5.4-5.5,5.4
		C361.7,479.1,355.2,478.6,349.4,474.8z"/>
	<path class="st15" d="M337.7,458.3c-7.7-13.3-14.8-25.5-21.8-37.7c-2.9-5-5.8-10.1-8.7-15.1c-3.7-6.4-4.3-13.3-0.9-19.6
		c9.9-18.2,20.4-36.1,31.4-55.3C337.7,373.7,337.7,415.3,337.7,458.3z"/>
	<path class="st15" d="M137.3,676c-26.3,0-52.6-0.1-78.9,0.1c-4.1,0-5.4-1-5.3-5.2c0.2-17,0.1-34,0.1-50.9c0-10.3,4.2-18,13.5-23.3
		c18.8-10.6,37.6-21.4,56.1-32.5c10.4-6.2,19.9-6.3,30.3,0.1c17.7,10.9,35.8,21.1,54,31.2c10.4,5.7,15.6,13.6,15.2,25.7
		c-0.5,16.6-0.3,33.3,0,49.9c0.1,4-1.1,5-5,5C190.6,675.9,163.9,676,137.3,676z"/>
	<path class="st1" d="M138,678c26.5,0,52.9,0.1,79.4-0.1c3.9,0,4.8,1,5,4.9c0.6,11.6-2.5,21-13.3,26.8c-2.4,1.3-4.8,1.9-7.6,1.9
		c-42.4,0-84.9,0-127.3,0c-9.3,0-20.1-10.3-20.5-19.7c-0.2-4.4-1.7-10.2,0.5-12.9c2-2.6,8.1-0.7,12.4-0.8
		C90.4,677.9,114.2,678,138,678z"/>
	<path class="st15" d="M76,714c41.2,0,82.3,0,123.4,0c0.1,0.3,0.2,0.6,0.3,0.8c-6.1,3.5-12.2,7-18.3,10.6
		c-10.5,6.1-21,12.2-31.5,18.2c-8.4,4.8-16.7,4.4-25-0.5c-15.5-9.2-31.1-18-46.6-27.1C77.4,715.6,76.3,715.5,76,714z"/>
</g>
</svg>
