<svg width="46" height="32" viewBox="0 0 46 32" fill="none" xmlns="http://www.w3.org/2000/svg">
<path d="M0 3.9322L0.490089 3.11864L0.735135 2.93785L0.857657 2.71186C0.857657 2.6516 0.816816 2.62147 0.735135 2.62147L0.857657 2.48587C0.775975 2.45574 0.735135 2.42561 0.735135 2.39548V2.21469C0.653453 2.18456 0.694293 2.01883 0.857657 1.71751L1.1027 1.17514L1.83784 0.858757C1.83784 0.828625 1.87868 0.798492 1.96036 0.768361L2.81802 0.587571C3.22643 0.467044 3.55315 0.406781 3.7982 0.406781C4.12492 0.406781 4.32913 0.391714 4.41081 0.361582H4.9009C5.39099 0.301318 5.92192 0.271186 6.49369 0.271186L7.47387 0.225989C7.55556 0.225989 7.71892 0.210922 7.96396 0.18079C8.20901 0.150658 8.41321 0.135593 8.57657 0.135593H16.2955C16.7039 0.135593 17.2757 0.135593 18.0108 0.135593C18.8276 0.105461 19.3994 0.0903961 19.7261 0.0903961H21.9315L22.4216 0.0451968H25.6072C26.0156 0.0451968 26.6691 0.0451968 27.5676 0.0451968C28.4661 0.0150654 29.1195 0 29.5279 0H39.3297C39.3297 0.0602629 39.7381 0.0903961 40.555 0.0903961L41.045 0.135593C41.6168 0.135593 41.9027 0.180791 41.9027 0.271186L42.3928 0.361582C42.5562 0.391714 42.7604 0.421847 43.0054 0.451978C43.0871 0.451978 43.1688 0.467043 43.2505 0.497175C43.3321 0.497175 43.373 0.512242 43.373 0.542374L43.618 0.632768L43.8631 0.723164L43.9856 0.768361C44.0673 0.798492 44.1489 0.813558 44.2306 0.813558L44.8432 1.12994L45.0883 1.31073V1.85311C45.0066 2.18456 45.0883 2.38041 45.3333 2.44068L45.2108 2.53107L44.9658 2.93785L44.8432 3.02825L44.7207 3.11864L44.5982 3.25424L43.7405 3.66102C43.7405 3.69115 43.618 3.75141 43.373 3.84181C43.1279 3.90207 42.842 3.9774 42.5153 4.0678C42.2703 4.12806 42.1069 4.17326 42.0252 4.20339L41.6577 4.29378L41.1676 4.38418C40.9225 4.47458 40.7183 4.51977 40.555 4.51977L40.1874 4.61017C40.024 4.67043 39.8607 4.70057 39.6973 4.70057L38.8396 4.83616C38.4312 4.92655 38.1045 4.97175 37.8595 4.97175L36.0216 5.10734L35.7766 5.06215C35.6949 5.03201 35.5724 5.01695 35.409 5.01695H33.4486C33.2036 5.01695 32.9177 5.03201 32.591 5.06215C32.3459 5.09228 32.1417 5.10734 31.9784 5.10734H30.2631C30.1814 5.10734 29.8955 5.10734 29.4054 5.10734C28.9153 5.07721 28.6294 5.06215 28.5477 5.06215H27.2L26.4649 5.10734C25.9748 5.10734 25.6889 5.10734 25.6072 5.10734H17.1532H16.173L15.1928 5.15254H14.8252C14.7435 5.15254 14.4577 5.16761 13.9676 5.19774C13.4775 5.19774 13.1507 5.19774 12.9874 5.19774H12.7423C12.579 5.19774 12.2931 5.19774 11.8847 5.19774L11.2721 5.24294L10.2919 5.28813C10.1285 5.28813 9.84264 5.28813 9.43423 5.28813L8.82162 5.33333H3.67568C3.59399 5.33333 3.51231 5.31827 3.43063 5.28813H2.94054C2.69549 5.28813 2.36877 5.24294 1.96036 5.15254C1.55195 5.06215 1.18438 5.01695 0.857657 5.01695L0.612612 4.88136L0.490089 4.92655L0.245044 4.65537L0.122522 4.61017C0.0408405 4.54991 0.0408405 4.50471 0.122522 4.47458L0 4.38418C0.0816812 4.26365 0.0816812 4.20339 0 4.20339L0.122522 4.0678C0.122522 4.00753 0.0816812 3.96233 0 3.9322Z" fill="#110042"/>
<path d="M0 17.2656L0.490089 16.452L0.735135 16.2712L0.857657 16.0452C0.857657 15.985 0.816816 15.9548 0.735135 15.9548L0.857657 15.8192C0.775975 15.7891 0.735135 15.759 0.735135 15.7289V15.5481C0.653453 15.5179 0.694293 15.3522 0.857657 15.0509L1.1027 14.5085L1.83784 14.1921C1.83784 14.162 1.87868 14.1319 1.96036 14.1017L2.81802 13.9209C3.22643 13.8004 3.55315 13.7402 3.7982 13.7402C4.12492 13.7402 4.32913 13.7251 4.41081 13.695H4.9009C5.39099 13.6347 5.92192 13.6046 6.49369 13.6046L7.47387 13.5594C7.55556 13.5594 7.71892 13.5443 7.96396 13.5142C8.20901 13.484 8.41321 13.469 8.57657 13.469H16.2955C16.7039 13.469 17.2757 13.469 18.0108 13.469C18.8276 13.4388 19.3994 13.4238 19.7261 13.4238H21.9315L22.4216 13.3786H25.6072C26.0156 13.3786 26.6691 13.3786 27.5676 13.3786C28.4661 13.3484 29.1195 13.3334 29.5279 13.3334H39.3297C39.3297 13.3936 39.7381 13.4238 40.555 13.4238L41.045 13.469C41.6168 13.469 41.9027 13.5142 41.9027 13.6046L42.3928 13.695C42.5562 13.7251 42.7604 13.7552 43.0054 13.7854C43.0871 13.7854 43.1688 13.8004 43.2505 13.8305C43.3321 13.8305 43.373 13.8456 43.373 13.8757L43.618 13.9661L43.8631 14.0565L43.9856 14.1017C44.0673 14.1319 44.1489 14.1469 44.2306 14.1469L44.8432 14.4633L45.0883 14.6441V15.1865C45.0066 15.5179 45.0883 15.7138 45.3333 15.7741L45.2108 15.8644L44.9658 16.2712L44.8432 16.3616L44.7207 16.452L44.5982 16.5876L43.7405 16.9944C43.7405 17.0245 43.618 17.0848 43.373 17.1752C43.1279 17.2354 42.842 17.3108 42.5153 17.4012C42.2703 17.4614 42.1069 17.5066 42.0252 17.5368L41.6577 17.6272L41.1676 17.7176C40.9225 17.8079 40.7183 17.8531 40.555 17.8531L40.1874 17.9435C40.024 18.0038 39.8607 18.0339 39.6973 18.0339L38.8396 18.1695C38.4312 18.2599 38.1045 18.3051 37.8595 18.3051L36.0216 18.4407L35.7766 18.3955C35.6949 18.3654 35.5724 18.3503 35.409 18.3503H33.4486C33.2036 18.3503 32.9177 18.3654 32.591 18.3955C32.3459 18.4257 32.1417 18.4407 31.9784 18.4407H30.2631C30.1814 18.4407 29.8955 18.4407 29.4054 18.4407C28.9153 18.4106 28.6294 18.3955 28.5477 18.3955H27.2L26.4649 18.4407C25.9748 18.4407 25.6889 18.4407 25.6072 18.4407H17.1532H16.173L15.1928 18.4859H14.8252C14.7435 18.4859 14.4577 18.501 13.9676 18.5311C13.4775 18.5311 13.1507 18.5311 12.9874 18.5311H12.7423C12.579 18.5311 12.2931 18.5311 11.8847 18.5311L11.2721 18.5763L10.2919 18.6215C10.1285 18.6215 9.84264 18.6215 9.43423 18.6215L8.82162 18.6667H3.67568C3.59399 18.6667 3.51231 18.6516 3.43063 18.6215H2.94054C2.69549 18.6215 2.36877 18.5763 1.96036 18.4859C1.55195 18.3955 1.18438 18.3503 0.857657 18.3503L0.612612 18.2147L0.490089 18.2599L0.245044 17.9887L0.122522 17.9435C0.0408405 17.8833 0.0408405 17.8381 0.122522 17.808L0 17.7176C0.0816812 17.597 0.0816812 17.5368 0 17.5368L0.122522 17.4012C0.122522 17.3409 0.0816812 17.2957 0 17.2656Z" fill="#110042"/>
<path d="M0 30.5988L0.490089 29.7853L0.735135 29.6045L0.857657 29.3785C0.857657 29.3182 0.816816 29.2881 0.735135 29.2881L0.857657 29.1525C0.775975 29.1224 0.735135 29.0922 0.735135 29.0621V28.8813C0.653453 28.8512 0.694293 28.6855 0.857657 28.3841L1.1027 27.8418L1.83784 27.5254C1.83784 27.4953 1.87868 27.4651 1.96036 27.435L2.81802 27.2542C3.22643 27.1337 3.55315 27.0734 3.7982 27.0734C4.12492 27.0734 4.32913 27.0583 4.41081 27.0282H4.9009C5.39099 26.9679 5.92192 26.9378 6.49369 26.9378L7.47387 26.8926C7.55556 26.8926 7.71892 26.8775 7.96396 26.8474C8.20901 26.8173 8.41321 26.8022 8.57657 26.8022H16.2955C16.7039 26.8022 17.2757 26.8022 18.0108 26.8022C18.8276 26.7721 19.3994 26.757 19.7261 26.757H21.9315L22.4216 26.7118H25.6072C26.0156 26.7118 26.6691 26.7118 27.5676 26.7118C28.4661 26.6817 29.1195 26.6666 29.5279 26.6666H39.3297C39.3297 26.7269 39.7381 26.757 40.555 26.757L41.045 26.8022C41.6168 26.8022 41.9027 26.8474 41.9027 26.9378L42.3928 27.0282C42.5562 27.0583 42.7604 27.0885 43.0054 27.1186C43.0871 27.1186 43.1688 27.1337 43.2505 27.1638C43.3321 27.1638 43.373 27.1789 43.373 27.209L43.618 27.2994L43.8631 27.3898L43.9856 27.435C44.0673 27.4651 44.1489 27.4802 44.2306 27.4802L44.8432 27.7966L45.0883 27.9774V28.5197C45.0066 28.8512 45.0883 29.047 45.3333 29.1073L45.2108 29.1977L44.9658 29.6045L44.8432 29.6949L44.7207 29.7853L44.5982 29.9209L43.7405 30.3276C43.7405 30.3578 43.618 30.418 43.373 30.5084C43.1279 30.5687 42.842 30.644 42.5153 30.7344C42.2703 30.7947 42.1069 30.8399 42.0252 30.87L41.6577 30.9604L41.1676 31.0508C40.9225 31.1412 40.7183 31.1864 40.555 31.1864L40.1874 31.2768C40.024 31.3371 39.8607 31.3672 39.6973 31.3672L38.8396 31.5028C38.4312 31.5932 38.1045 31.6384 37.8595 31.6384L36.0216 31.774L35.7766 31.7288C35.6949 31.6986 35.5724 31.6836 35.409 31.6836H33.4486C33.2036 31.6836 32.9177 31.6986 32.591 31.7288C32.3459 31.7589 32.1417 31.774 31.9784 31.774H30.2631C30.1814 31.774 29.8955 31.774 29.4054 31.774C28.9153 31.7438 28.6294 31.7288 28.5477 31.7288H27.2L26.4649 31.774C25.9748 31.774 25.6889 31.774 25.6072 31.774H17.1532H16.173L15.1928 31.8192H14.8252C14.7435 31.8192 14.4577 31.8342 13.9676 31.8644C13.4775 31.8644 13.1507 31.8644 12.9874 31.8644H12.7423C12.579 31.8644 12.2931 31.8644 11.8847 31.8644L11.2721 31.9096L10.2919 31.9548C10.1285 31.9548 9.84264 31.9548 9.43423 31.9548L8.82162 32H3.67568C3.59399 32 3.51231 31.9849 3.43063 31.9548H2.94054C2.69549 31.9548 2.36877 31.9096 1.96036 31.8192C1.55195 31.7288 1.18438 31.6836 0.857657 31.6836L0.612612 31.548L0.490089 31.5932L0.245044 31.322L0.122522 31.2768C0.0408405 31.2165 0.0408405 31.1713 0.122522 31.1412L0 31.0508C0.0816812 30.9303 0.0816812 30.87 0 30.87L0.122522 30.7344C0.122522 30.6742 0.0816812 30.629 0 30.5988Z" fill="#110042"/>
</svg>
