<svg width="15" height="16" viewBox="0 0 15 16" fill="none" xmlns="http://www.w3.org/2000/svg">
<path d="M1.16412 15.1087L1.06836 14.734L1.08738 14.6117L1.05675 14.5115C1.03891 14.4942 1.0179 14.4972 0.993714 14.5207L0.989844 14.4465C0.956742 14.4614 0.935731 14.4644 0.926811 14.4558L0.873288 14.4038C0.840185 14.4186 0.803214 14.3593 0.762373 14.2257L0.67435 13.9994L0.79832 13.6972C0.7894 13.6885 0.79257 13.6681 0.807831 13.636L1.00822 13.3375C1.09344 13.1855 1.17233 13.0743 1.24487 13.0039C1.3416 12.91 1.39759 12.8469 1.41286 12.8148L1.55794 12.6739C1.68519 12.5158 1.83345 12.3545 2.00273 12.1902L2.27953 11.8955C2.30371 11.872 2.34761 11.8207 2.41123 11.7416C2.47486 11.6625 2.53085 11.5995 2.57922 11.5526L4.86438 9.33409C4.98529 9.21671 5.15456 9.05238 5.3722 8.8411C5.60509 8.59768 5.76991 8.42901 5.86663 8.33511L6.51954 7.70126L6.65125 7.54741L7.59433 6.63185C7.71524 6.51447 7.90869 6.32666 8.17469 6.06843C8.43177 5.80153 8.62076 5.60939 8.74167 5.49201L11.6435 2.6749C11.6613 2.69222 11.7911 2.5835 12.033 2.34874L12.1914 2.22087C12.3607 2.05654 12.4587 1.98737 12.4855 2.01335L12.6573 1.89847C12.7146 1.86018 12.784 1.81015 12.8655 1.74838C12.8896 1.7249 12.9183 1.70576 12.9514 1.69094C12.9756 1.66747 12.9921 1.66006 13.001 1.66872L13.1003 1.62427L13.1996 1.57982L13.2493 1.5576C13.2824 1.54278 13.311 1.52364 13.3352 1.50016L13.6102 1.41502L13.7363 1.39656L13.8969 1.55244C13.9708 1.67118 14.053 1.70399 14.1434 1.65088L14.1339 1.71208L14.1817 1.89942L14.1722 1.96061L14.1627 2.02181L14.1666 2.09599L14.0331 2.4594C14.042 2.46806 14.0236 2.52059 13.9778 2.617C13.9231 2.70475 13.8608 2.80857 13.7908 2.92845C13.7361 3.0162 13.7011 3.07614 13.6859 3.10828L13.6038 3.2399L13.4855 3.40674C13.4397 3.50314 13.3926 3.57482 13.3443 3.62178L13.2622 3.7534C13.2317 3.81767 13.1922 3.87328 13.1439 3.92024L12.9301 4.2057C12.836 4.34906 12.7526 4.45596 12.6801 4.52638L12.1761 5.09357L12.0902 5.151C12.0571 5.16582 12.0164 5.1967 11.968 5.24366L11.3876 5.80708C11.3151 5.87751 11.2349 5.964 11.1471 6.06657C11.0835 6.14565 11.0275 6.20867 10.9791 6.25563L10.4713 6.74862C10.4471 6.7721 10.3625 6.85426 10.2174 6.99512C10.0634 7.12732 9.97431 7.20515 9.95013 7.22863L9.55113 7.61598L9.34688 7.84025C9.20179 7.98111 9.11715 8.06327 9.09297 8.08675L6.59017 10.5165L6.29999 10.7982L6.02319 11.0929L5.91437 11.1986C5.89019 11.222 5.81001 11.3085 5.67384 11.4581C5.52875 11.5989 5.43203 11.6928 5.38366 11.7398L5.31112 11.8102C5.26275 11.8571 5.17812 11.9393 5.05721 12.0567L4.88923 12.2458L4.61243 12.5405C4.56406 12.5874 4.47943 12.6696 4.35852 12.787L4.19054 12.976L2.66709 14.455C2.64291 14.4785 2.61427 14.4976 2.58117 14.5124L2.43608 14.6533C2.36353 14.7237 2.25343 14.8046 2.10576 14.896C1.95809 14.9874 1.83589 15.0801 1.73916 15.174L1.62648 15.2054L1.60358 15.2537L1.45075 15.2461L1.4011 15.2684C1.35908 15.2745 1.3457 15.2615 1.36096 15.2294L1.29793 15.2386C1.28643 15.1805 1.26858 15.1632 1.2444 15.1867L1.24053 15.1125C1.22269 15.0952 1.19722 15.0939 1.16412 15.1087Z" fill="#110042"/>
<path d="M0.414922 2.07961L0.800863 1.98664L0.926932 2.00511L1.03011 1.97537C1.04795 1.95805 1.04478 1.93765 1.0206 1.91418L1.09701 1.91042C1.08175 1.87828 1.07858 1.85789 1.0875 1.84923L1.14102 1.79727C1.12576 1.76513 1.18691 1.72924 1.32448 1.68959L1.55759 1.60413L1.8689 1.72449C1.87782 1.71583 1.89883 1.7189 1.93193 1.73372L2.23936 1.92826C2.39595 2.011 2.51052 2.08758 2.58306 2.15801C2.67979 2.25191 2.7447 2.30627 2.7778 2.32109L2.92289 2.46194C3.08583 2.58548 3.25193 2.72941 3.4212 2.89374L3.72476 3.16246C3.74894 3.18594 3.80176 3.22856 3.88323 3.29033C3.9647 3.3521 4.02961 3.40646 4.07797 3.45341L6.36314 5.67189C6.48405 5.78927 6.65332 5.9536 6.87095 6.16488C7.12169 6.39098 7.29542 6.55099 7.39215 6.64489L8.04505 7.27874L8.20353 7.40661L9.14661 8.32217C9.26752 8.43955 9.46097 8.62736 9.72697 8.88559C10.0019 9.13517 10.1998 9.31865 10.3207 9.43602L13.2225 12.2531C13.2047 12.2705 13.3167 12.3965 13.5585 12.6313L13.6902 12.7851C13.8595 12.9494 13.9307 13.0446 13.9039 13.0706L14.0223 13.2374C14.0617 13.293 14.1133 13.3604 14.1769 13.4395C14.2011 13.4629 14.2208 13.4907 14.236 13.5229C14.2602 13.5464 14.2679 13.5624 14.2589 13.5711L14.3047 13.6675L14.3505 13.7639L14.3734 13.8121C14.3887 13.8442 14.4084 13.872 14.4326 13.8955L14.5203 14.1625L14.5393 14.2849L14.3787 14.4408C14.2564 14.5126 14.2226 14.5923 14.2773 14.6801L14.2143 14.6709L14.0213 14.7173L13.9583 14.7081L13.8952 14.6989L13.8188 14.7026L13.4445 14.573C13.4356 14.5817 13.3815 14.5638 13.2821 14.5194C13.1918 14.4663 13.0848 14.4057 12.9613 14.3378C12.8709 14.2847 12.8092 14.2508 12.7761 14.2359L12.6405 14.1563L12.4687 14.0414C12.3694 13.997 12.2955 13.9513 12.2472 13.9043L12.1116 13.8246C12.0454 13.795 11.9881 13.7567 11.9397 13.7098L11.6457 13.5022C11.498 13.4108 11.3879 13.3299 11.3154 13.2595L10.7311 12.7703L10.672 12.6868C10.6567 12.6547 10.6249 12.6152 10.5765 12.5682L9.99617 12.0048C9.92363 11.9344 9.83453 11.8565 9.72889 11.7713C9.64742 11.7095 9.58251 11.6551 9.53414 11.6082L9.02633 11.1152C9.00215 11.0917 8.91751 11.0096 8.77242 10.8687C8.63625 10.7192 8.55608 10.6327 8.5319 10.6092L8.1329 10.2219L7.90188 10.0236C7.75679 9.88271 7.67216 9.80055 7.64797 9.77707L5.14517 7.34731L4.85499 7.0656L4.55143 6.79687L4.44261 6.69123C4.41843 6.66776 4.32934 6.58992 4.17533 6.45773C4.03024 6.31687 3.93351 6.22297 3.88515 6.17601L3.8126 6.10559C3.76424 6.05863 3.6796 5.97647 3.55869 5.85909L3.36395 5.69601L3.06039 5.42729C3.01203 5.38033 2.92739 5.29817 2.80648 5.18079L2.61174 5.01771L1.0883 3.53872C1.06411 3.51525 1.04439 3.48744 1.02913 3.45531L0.884041 3.31445C0.811496 3.24402 0.72815 3.13713 0.634003 2.99377C0.539856 2.85041 0.44442 2.73178 0.347693 2.63787L0.31529 2.52847L0.265637 2.50625L0.273376 2.35788L0.250484 2.30968C0.244143 2.26888 0.257524 2.25589 0.290626 2.27071L0.281115 2.20951C0.340978 2.19835 0.35882 2.18103 0.334638 2.15755L0.411052 2.15379C0.428893 2.13647 0.430183 2.11175 0.414922 2.07961Z" fill="#110042"/>
</svg>
