<svg width="256" height="56" viewBox="0 0 256 56" fill="#1B3C87" xmlns="http://www.w3.org/2000/svg">
<path fill-rule="evenodd" clip-rule="evenodd" d="M66.9492 16.8821H86.3392V25.1151H82.4492L81.5192 21.2737H77.5292V24.5649H81.4792V29.2512H77.5292V32.5326H81.4992L82.4292 28.701H86.6392V36.934H66.9492V32.5326H69.3792V21.2737H66.9492V16.8821Z" fill="#C9BEE6"/>
<path fill-rule="evenodd" clip-rule="evenodd" d="M101.48 36.934H87.8496V32.5326H90.28V21.2737H87.8496V16.8821H107.25V25.1151H103.36L102.43 21.2737H98.44V24.8596H102.39V29.546H98.44V32.5326H101.5L101.48 36.934Z" fill="#C9BEE6"/>
<path fill-rule="evenodd" clip-rule="evenodd" d="M179.85 16.8821L176.82 24.5649L173.6 16.8821H161.65V21.2737H164.08V31.9235C164.08 32.3165 163.98 32.5326 163.43 32.5326H161.65V36.9242H171.33V32.5326H169.53C169.23 32.5326 168.9 32.2379 168.9 31.9235L168.92 24.4077L174.08 36.9242H176.21L181.41 23.7789V31.9235C181.41 32.3165 181.19 32.5326 180.78 32.5326H179.28V36.9242H190.93V32.5326C190.93 32.5326 189.43 32.5326 189.13 32.5326C188.83 32.5326 188.5 32.2182 188.5 31.9235C188.5 31.6975 188.5 25.3705 188.5 21.2639H188.42H190.92V16.8723L179.85 16.8821Z" fill="#C9BEE6"/>
<path fill-rule="evenodd" clip-rule="evenodd" d="M202.47 21.1263H202.69L204.05 27.3747H201.35L200.7 30.9509H204.72L205.01 32.5326H203.34V36.934H215.75V32.5326H213.62L210.44 21.2737H212.56V16.8821H194.88V21.2737H197L194.57 32.5326H192.15V36.934H201.97V32.5326H200.46L202.47 21.1263Z" fill="#C9BEE6"/>
<path fill-rule="evenodd" clip-rule="evenodd" d="M121.459 15.9979C113.239 15.9979 108.119 20.4484 108.119 26.5593C108.119 32.7979 113.299 37.2484 121.459 37.2484C129.639 37.2484 134.799 32.7979 134.799 26.6182C134.799 20.4484 129.689 15.9979 121.459 15.9979Z" fill="#C9BEE6"/>
<path fill-rule="evenodd" clip-rule="evenodd" d="M145.11 21.2736C145.11 21.2736 148.77 21.2736 149.38 21.2736C149.98 21.2736 151.26 21.4308 151.26 22.9339C151.26 24.3389 150.01 24.781 149 24.781C148.7 24.781 145.09 24.781 145.09 24.781V29.2511H146.87C146.87 29.2511 152.6 35.7648 152.81 36.0104C153.02 36.2462 153.69 36.9339 154.69 36.9339H160.55V32.5424C160.55 32.5424 160 32.5424 159.7 32.5424C159.4 32.5424 158.91 32.3459 158.79 32.2476C158.4 31.9234 154.71 28.5438 154.73 28.5339C157.76 27.9641 159.38 26.0385 159.38 22.7767C159.38 17.7957 154.8 16.8918 152.17 16.8918C150.03 16.8918 134.52 16.8918 134.52 16.8918V21.2834H136.95V32.5424H134.52V36.9339H147.54V32.5424H145.11V21.2736Z" fill="#C9BEE6"/>
<path fill-rule="evenodd" clip-rule="evenodd" d="M50.59 21.2736C50.59 21.2736 54.25 21.2736 54.86 21.2736C55.46 21.2736 56.74 21.4308 56.74 22.9339C56.74 24.3389 55.48 24.781 54.48 24.781C54.18 24.781 50.57 24.781 50.57 24.781V29.2511H52.35C52.35 29.2511 58.08 35.7648 58.29 36.0104C58.5 36.2462 59.17 36.9339 60.17 36.9339H65.73V32.5424C65.73 32.5424 65.49 32.5424 65.18 32.5424C64.88 32.5424 64.39 32.3459 64.27 32.2476C63.88 31.9234 60.19 28.5438 60.21 28.5339C63.24 27.9641 64.86 26.0385 64.86 22.7767C64.86 17.7957 60.28 16.8918 57.65 16.8918C55.51 16.8918 40 16.8918 40 16.8918V21.2834H42.43V32.5424H40V36.9339H53.02V32.5424H50.59V21.2736Z" fill="#C9BEE6"/>
<path fill-rule="evenodd" clip-rule="evenodd" d="M82.4896 43.1628C82.4196 43.3495 82.3196 43.5067 82.1696 43.6344C82.0296 43.7523 81.7896 43.8112 81.4596 43.8112C80.9696 43.8112 80.6196 43.6639 80.4096 43.3789C80.1996 43.094 80.0996 42.6225 80.0996 41.9446C80.0996 41.1979 80.1996 40.6674 80.3996 40.3235C80.5996 39.9895 80.8696 39.8323 81.2296 39.8323C81.3896 39.8323 81.5196 39.8618 81.5996 39.9403C81.7096 40.0484 81.7796 40.2646 81.8096 40.3432L81.8696 39.8814L82.5196 39.8912L82.4696 41.414L81.7096 41.3944C81.7096 41.1881 81.6996 41.0112 81.6796 40.854C81.6596 40.6968 81.5996 40.6182 81.4796 40.6182C81.3596 40.6182 81.2796 40.7263 81.2096 40.9326C81.1496 41.1389 81.1196 41.4533 81.1196 41.8758C81.1196 42.3375 81.1396 42.6618 81.1896 42.8582C81.2296 43.0351 81.3396 43.1333 81.5196 43.1333C81.6696 43.1333 81.7696 43.0547 81.8296 42.8877C81.8796 42.7305 81.8796 42.4849 81.8296 42.1705L82.4896 42.1116C82.5296 42.2393 82.5596 42.3965 82.5696 42.6028C82.5796 42.7895 82.5596 42.9761 82.4896 43.1628Z" fill="#8088DC"/>
<path fill-rule="evenodd" clip-rule="evenodd" d="M87.4706 43.3396C87.2806 43.654 86.9406 43.8112 86.4506 43.8112C85.9906 43.8112 85.6506 43.6442 85.4406 43.32C85.2406 42.986 85.1506 42.5046 85.1406 41.866C85.1406 41.1586 85.2306 40.6281 85.4306 40.294C85.6306 39.96 85.9706 39.8028 86.4506 39.8028C86.9406 39.8028 87.2806 39.9698 87.4706 40.3137C87.6606 40.6477 87.7506 41.1684 87.7606 41.866C87.7606 42.534 87.6706 43.0253 87.4706 43.3396ZM86.6906 40.746C86.6506 40.5593 86.5606 40.4709 86.4406 40.461C86.3106 40.461 86.2306 40.5396 86.1906 40.7067C86.1506 40.8639 86.1406 41.247 86.1306 41.8561C86.1306 42.4751 86.1506 42.8386 86.2106 42.9663C86.2606 43.0842 86.3406 43.1432 86.4406 43.1432C86.5206 43.1432 86.5706 43.1333 86.6106 43.1039C86.6506 43.0744 86.6806 43.0154 86.7006 42.9074C86.7206 42.7993 86.7306 42.6814 86.7406 42.5439C86.7506 42.4063 86.7506 42.1803 86.7506 41.866C86.7606 41.3158 86.7406 40.9425 86.6906 40.746Z" fill="#8088DC"/>
<path fill-rule="evenodd" clip-rule="evenodd" d="M93.09 43.5066C93 43.6834 92.75 43.7817 92.46 43.7817C92.19 43.7817 92.06 43.7031 91.95 43.5557C91.84 43.3985 91.78 43.1136 91.76 42.6715C91.75 42.475 91.74 42.3276 91.72 42.2392C91.7 42.1508 91.61 42.1115 91.54 42.1115H91.35V43.1136H91.61C91.61 43.1136 91.61 43.1332 91.62 43.1627C91.63 43.1922 91.61 43.261 91.61 43.369C91.61 43.428 91.61 43.5164 91.61 43.6146C91.61 43.7129 91.61 43.762 91.61 43.762H90.24V43.1136H90.5V40.5199H90.24V39.8715H91.67C92.04 39.8715 92.33 39.9697 92.52 40.1564C92.72 40.3431 92.81 40.5985 92.82 40.9522C92.82 41.2371 92.77 41.4532 92.63 41.5711C92.36 41.7971 92.15 41.7873 91.99 41.8069C92.14 41.8364 92.48 41.8659 92.62 42.1999C92.69 42.3669 92.69 42.5438 92.71 42.9466C92.71 43.0153 92.72 43.0546 92.74 43.0939C92.76 43.1136 92.79 43.1234 92.83 43.1332C92.91 43.1332 92.95 43.0743 92.96 42.9564C92.97 42.8385 92.97 42.7304 92.96 42.6125C92.96 42.6125 92.99 42.6027 93.06 42.5929C93.13 42.5831 93.17 42.5732 93.2 42.5732C93.21 42.6027 93.21 42.6617 93.22 42.7304C93.23 42.7992 93.24 42.868 93.24 42.9367C93.23 43.1332 93.18 43.3199 93.09 43.5066ZM91.79 40.6771C91.75 40.5887 91.69 40.5396 91.62 40.5396H91.35V41.4827H91.62C91.69 41.4827 91.74 41.4631 91.79 41.4238C91.84 41.3845 91.86 41.2764 91.87 41.0897C91.86 40.9129 91.84 40.7753 91.79 40.6771Z" fill="#8088DC"/>
<path fill-rule="evenodd" clip-rule="evenodd" d="M97.1401 43.7523V43.1039H97.3901L97.3001 42.593H96.6001L96.5201 43.1039H96.7601V43.7523H95.5901V43.1039H95.7601L96.5601 39.8519H97.5901L98.4001 43.1039H98.6101V43.7523H97.1401ZM96.9501 40.8049L96.7101 41.9937H97.1801L96.9501 40.8049Z" fill="#8088DC"/>
<path fill-rule="evenodd" clip-rule="evenodd" d="M102.03 43.0939H102.83V42.475H103.51V43.7522H101.09V43.0743L102.65 40.5003H101.93V41.1388H101.2C101.2 41.1388 101.2 41.1487 101.2 40.9031C101.2 40.6574 101.2 40.4315 101.2 40.2055C101.2 40.1466 101.2 40.0778 101.21 39.9992C101.22 39.9206 101.22 39.8911 101.22 39.8813C101.22 39.8813 101.28 39.8813 101.4 39.8715C101.52 39.8617 101.62 39.8617 101.71 39.8617C102.02 39.8617 102.4 39.8617 102.86 39.8617C103.31 39.8617 103.53 39.8617 103.54 39.8617V40.6771L102.03 43.0939Z" fill="#8088DC"/>
<path fill-rule="evenodd" clip-rule="evenodd" d="M108.439 43.3396C108.249 43.654 107.909 43.8112 107.419 43.8112C106.959 43.8112 106.619 43.6442 106.409 43.32C106.209 42.986 106.119 42.5046 106.109 41.866C106.109 41.1586 106.199 40.6281 106.399 40.294C106.599 39.96 106.939 39.8028 107.419 39.8028C107.909 39.8028 108.249 39.9698 108.439 40.3137C108.629 40.6477 108.719 41.1684 108.729 41.866C108.729 42.534 108.639 43.0253 108.439 43.3396ZM107.659 40.746C107.619 40.5593 107.529 40.4709 107.409 40.461C107.279 40.461 107.199 40.5396 107.159 40.7067C107.119 40.8639 107.099 41.247 107.099 41.8561C107.099 42.4751 107.119 42.8386 107.179 42.9663C107.229 43.0842 107.309 43.1432 107.409 43.1432C107.489 43.1432 107.539 43.1333 107.589 43.1039C107.629 43.0744 107.659 43.0154 107.679 42.9074C107.699 42.7993 107.709 42.6814 107.719 42.5439C107.729 42.4063 107.729 42.1803 107.729 41.866C107.729 41.3158 107.709 40.9425 107.659 40.746Z" fill="#8088DC"/>
<path fill-rule="evenodd" clip-rule="evenodd" d="M113.95 40.5101V43.7522H113.17L112.24 41.6301V43.1038H112.53V43.7522H111.26V43.1038H111.52V40.5101H111.26V39.8617H112.35L113.25 41.9346V40.5101H112.96V39.8617H114.2V40.5101H113.95Z" fill="#8088DC"/>
<path fill-rule="evenodd" clip-rule="evenodd" d="M131.291 43.3002C131.061 43.595 130.701 43.7424 130.211 43.7522H128.891V43.1038H129.191V40.5101H128.891V39.8617H130.141C130.361 39.8617 130.561 39.8911 130.741 39.9403C130.911 39.9894 131.071 40.0974 131.211 40.2448C131.351 40.402 131.461 40.5985 131.541 40.8441C131.621 41.0799 131.651 41.4139 131.651 41.856C131.641 42.5241 131.531 42.9957 131.291 43.3002ZM130.551 40.9424C130.481 40.6869 130.361 40.5592 130.181 40.5494H130.101V43.1038H130.181C130.341 43.1038 130.461 43.0055 130.541 42.809C130.621 42.6125 130.651 42.308 130.661 41.856C130.661 41.5122 130.631 41.2076 130.551 40.9424Z" fill="#8088DC"/>
<path fill-rule="evenodd" clip-rule="evenodd" d="M145.941 43.7522V43.1038H146.241V41.2076L145.621 43.7522H145.091L144.451 41.1192V43.1038H144.691V43.7522H143.391V43.1038H143.671V40.5101H143.391V39.8617C143.391 39.8617 143.531 39.8617 143.811 39.8617C144.091 39.8617 144.291 39.8617 144.611 39.8617C144.691 39.8617 144.771 39.8617 144.881 39.8715C144.991 39.8715 145.041 39.8715 145.041 39.8813L145.431 41.6792L145.811 39.8813C145.811 39.8813 145.851 39.8813 145.921 39.8715C145.991 39.8715 146.061 39.8715 146.121 39.8617C146.411 39.8617 146.691 39.8617 147.001 39.8617C147.301 39.8617 147.451 39.8617 147.451 39.8617V40.5101H147.171V43.1038H147.451V43.7522H145.941Z" fill="#8088DC"/>
<path fill-rule="evenodd" clip-rule="evenodd" d="M156.129 43.7522V43.1038H156.319L155.969 42.3964L155.629 43.1038H155.869V43.7522H154.699V43.1038H154.989L155.679 41.8167L155.019 40.5101H154.749V39.8617H156.229V40.5101H156.069L156.379 41.1094L156.699 40.5101H156.459V39.8617H157.579V40.5101H157.329L156.659 41.6497L157.419 43.1038H157.689V43.7522H156.129Z" fill="#8088DC"/>
<path fill-rule="evenodd" clip-rule="evenodd" d="M160.051 43.7522V43.1038H160.371V40.5101H160.051V39.8617H161.591V40.5101H161.261V43.1038H161.591V43.7522H160.051Z" fill="#8088DC"/>
<path fill-rule="evenodd" clip-rule="evenodd" d="M171.49 43.3396C171.3 43.654 170.96 43.8112 170.47 43.8112C170.01 43.8112 169.67 43.6442 169.46 43.32C169.26 42.986 169.16 42.5046 169.16 41.866C169.16 41.1586 169.25 40.6281 169.45 40.294C169.65 39.96 169.99 39.8028 170.47 39.8028C170.96 39.8028 171.3 39.9698 171.49 40.3137C171.68 40.6477 171.77 41.1684 171.78 41.866C171.77 42.534 171.68 43.0253 171.49 43.3396ZM170.71 40.746C170.67 40.5593 170.59 40.4709 170.46 40.461C170.33 40.461 170.25 40.5396 170.21 40.7067C170.17 40.8639 170.15 41.247 170.15 41.8561C170.15 42.4751 170.17 42.8386 170.23 42.9663C170.28 43.0842 170.36 43.1432 170.46 43.1432C170.54 43.1432 170.59 43.1333 170.63 43.1039C170.67 43.0744 170.7 43.0154 170.72 42.9074C170.74 42.7993 170.75 42.6814 170.76 42.5439C170.77 42.4063 170.77 42.1803 170.77 41.866C170.78 41.3158 170.76 40.9425 170.71 40.746Z" fill="#8088DC"/>
<path fill-rule="evenodd" clip-rule="evenodd" d="M134.119 43.7522V43.1038H134.439V40.5101H134.119V39.8617H136.709L136.699 41.1781H135.929V40.5592H135.369V41.4532H135.909V42.1115H135.369V43.0645H135.909V42.3669H136.719V43.7522H134.119Z" fill="#8088DC"/>
<path fill-rule="evenodd" clip-rule="evenodd" d="M149.59 43.7522V43.1038H149.91V40.5101H149.59V39.8617H152.18L152.17 41.1781H151.4V40.5592H150.84V41.4532H151.38V42.1115H150.84V43.0645H151.38V42.3669H152.19V43.7522H149.59Z" fill="#8088DC"/>
<path fill-rule="evenodd" clip-rule="evenodd" d="M166.509 43.1628C166.439 43.3495 166.339 43.5067 166.189 43.6344C166.049 43.7523 165.809 43.8112 165.479 43.8112C164.989 43.8112 164.639 43.6639 164.419 43.3789C164.209 43.094 164.109 42.6225 164.109 41.9446C164.109 41.1979 164.209 40.6674 164.399 40.3235C164.599 39.9895 164.869 39.8323 165.229 39.8323C165.389 39.8323 165.519 39.8618 165.599 39.9403C165.699 40.0288 165.779 40.2646 165.809 40.3432L165.869 39.8814L166.519 39.8912L166.489 41.414L165.729 41.3944C165.729 41.1881 165.729 41.0112 165.699 40.854C165.679 40.6968 165.619 40.6182 165.499 40.6182C165.379 40.6182 165.299 40.7263 165.229 40.9326C165.169 41.1389 165.139 41.4533 165.139 41.8758C165.139 42.3375 165.159 42.6618 165.209 42.8582C165.249 43.0351 165.359 43.1333 165.539 43.1333C165.689 43.1333 165.789 43.0547 165.849 42.8877C165.899 42.7305 165.899 42.4849 165.849 42.1705L166.509 42.1116C166.549 42.2393 166.569 42.3965 166.589 42.6028C166.599 42.7895 166.569 42.9761 166.509 43.1628Z" fill="#8088DC"/>
<path fill-rule="evenodd" clip-rule="evenodd" d="M67.4102 15.9881H86.8002V24.2211H82.9102L81.9802 20.3796H77.9902V23.6611H81.9402V28.3572H77.9902V31.6386H81.9602L82.8902 27.7972H87.1002V36.0302H67.4102V31.6386H69.8402V20.3796H67.4102V15.9881Z" fill="#8088DC"/>
<path fill-rule="evenodd" clip-rule="evenodd" d="M101.63 36.0302H88.0098V31.6386H90.44V20.3796H88.0098V15.9881H107.4V24.2211H103.51L102.58 20.3796H98.6V23.9656H102.54V28.6519H98.6V31.6386H101.65L101.63 36.0302Z" fill="#8088DC"/>
<path fill-rule="evenodd" clip-rule="evenodd" d="M179.39 15.9881L176.35 23.6709L173.13 15.9881H161.18V20.3796H163.61V31.0295C163.61 31.4225 163.51 31.6386 162.97 31.6386H161.19V36.0302H170.87V31.6386H169.07C168.77 31.6386 168.44 31.3439 168.44 31.0295L168.46 23.5137L173.62 36.0302H175.75L180.95 22.8849V31.0295C180.95 31.4225 180.73 31.6386 180.32 31.6386H178.82V36.0302H190.47V31.6386C190.47 31.6386 188.97 31.6386 188.67 31.6386C188.37 31.6386 188.04 31.3242 188.04 31.0295C188.04 30.8035 188.04 24.4765 188.04 20.3698H187.96H190.46V15.9782L179.39 15.9881Z" fill="#8088DC"/>
<path fill-rule="evenodd" clip-rule="evenodd" d="M201.55 20.2323H201.77L203.13 26.4709L200.43 26.4807L199.77 30.0568H203.8L204.09 31.6386H202.42V36.0302H214.83V31.6386H212.7L209.52 20.3796H211.64V15.9881H193.96V20.3796H196.08L193.65 31.6386H191.23V36.0302H201.05V31.6386H199.53L201.55 20.2323Z" fill="#8088DC"/>
<path fill-rule="evenodd" clip-rule="evenodd" d="M121.459 15.1039C113.239 15.1039 108.119 19.5544 108.119 25.6653C108.119 31.9039 113.299 36.3544 121.459 36.3544C129.639 36.3544 134.799 31.9039 134.799 25.7242C134.799 19.5446 129.689 15.1039 121.459 15.1039Z" fill="#8088DC"/>
<path fill-rule="evenodd" clip-rule="evenodd" d="M144.949 20.3796C144.949 20.3796 148.609 20.3796 149.219 20.3796C149.819 20.3796 151.099 20.5368 151.099 22.04C151.099 23.4449 149.839 23.887 148.839 23.887C148.539 23.887 144.929 23.887 144.929 23.887V28.3572H146.709C146.709 28.3572 152.439 34.8709 152.649 35.1165C152.859 35.3523 153.529 36.04 154.529 36.04H160.389V31.6484C160.389 31.6484 159.839 31.6484 159.539 31.6484C159.239 31.6484 158.749 31.4519 158.629 31.3537C158.239 31.0295 154.549 27.6498 154.569 27.64C157.599 27.0702 159.219 25.1446 159.219 21.8828C159.219 16.9018 154.639 15.9979 152.009 15.9979C149.869 15.9979 134.359 15.9979 134.359 15.9979V20.3895H136.789V31.6484H134.359V36.04H147.379V31.6484H144.949V20.3796Z" fill="#8088DC"/>
<path fill-rule="evenodd" clip-rule="evenodd" d="M51.5099 20.3796C51.5099 20.3796 55.1699 20.3796 55.7799 20.3796C56.3799 20.3796 57.6599 20.5368 57.6599 22.04C57.6599 23.4449 56.3999 23.887 55.3999 23.887C55.0999 23.887 51.4899 23.887 51.4899 23.887V28.3572H53.2699C53.2699 28.3572 58.9999 34.8709 59.2099 35.1165C59.4199 35.3523 60.0899 36.04 61.0899 36.04H66.6499V31.6484C66.6499 31.6484 66.4099 31.6484 66.0999 31.6484C65.7999 31.6484 65.3099 31.4519 65.1899 31.3537C64.7999 31.0295 61.1099 27.6498 61.1299 27.64C64.1599 27.0702 65.7799 25.1446 65.7799 21.8828C65.7799 16.9018 61.1999 15.9979 58.5699 15.9979C56.4299 15.9979 40.9199 15.9979 40.9199 15.9979V20.3895H43.3499V31.6484H40.9199V36.04H53.9399V31.6484H51.5099V20.3796Z" fill="#8088DC"/>
<path fill-rule="evenodd" clip-rule="evenodd" d="M120.619 21.2737L121.409 17.9628L122.199 21.2737H122.209L124.109 18.4344L123.689 21.8042L126.469 19.7607L124.899 22.7867L128.239 21.7944L125.689 24.1228L129.179 24.2898L125.969 25.626V25.6358L129.189 26.9523L125.699 27.1488L128.269 29.4575L124.919 28.4849L126.509 31.5109L123.709 29.4772L124.159 32.847L122.229 30.0077V30.0175L121.459 33.3284L120.649 30.0274L118.769 32.8863L119.169 29.5067H119.159L116.389 31.5698L117.939 28.534L114.609 29.5558L117.139 27.2077L113.649 27.0505L116.849 25.6947L113.619 24.3979L117.109 24.1818V24.1719L114.529 21.8828L117.879 22.8358L116.339 19.7607L119.129 21.8042L118.709 18.4344L120.619 21.2737Z" fill="#EDE9F7"/>
<path fill-rule="evenodd" clip-rule="evenodd" d="M126.44 45.7176C126.44 45.7176 125.08 45.6685 124.58 44.7057C124.08 43.7429 123.29 43.6348 123.29 43.6348C123.29 43.6348 123.36 43.4187 122.92 43.1239C122.92 43.1239 122.9 42.6327 122.55 42.0138C122.55 42.0138 122.57 41.4145 122.44 41.051C122.31 40.6874 122.46 39.646 122.68 39.2334H122.77C122.77 39.2334 122.84 39.5576 122.9 39.7246C122.9 39.7246 123.01 40.0882 122.86 40.6187C122.77 40.9331 122.79 41.6797 122.98 41.8467C123.04 41.8959 123.2 41.8959 123.25 41.8664C123.28 41.8467 123.32 41.719 123.32 41.719L123.55 41.6896C123.55 41.6896 123.89 41.326 123.96 41.0313C124.03 40.7366 123.78 40.0783 123.94 39.5969C124.05 39.2629 124.6 38.2706 124.6 38.2706C124.6 38.2706 124.91 38.3983 125.21 38.3983C125.52 38.3983 127.13 38.3296 127.07 36.8952C127.01 35.9029 126 35.0187 126 35.0187C126 35.0187 126.57 33.0145 125.39 31.1969L125.41 31.0299C125.41 31.0299 125.89 30.7057 125.96 30.5583C126.02 30.4306 126.1 30.0081 126.03 29.8313C125.96 29.6839 125.35 28.9962 125.33 28.8488C125.31 28.7015 125.31 28.4853 125.18 28.3969L125.2 28.2496L125.42 28.4657C125.42 28.4657 126.03 28.7408 127.02 28.6818C128.01 28.6229 128.23 28.3871 128.23 28.3871L128.47 28.3478C128.47 28.3478 128.78 28.4067 128.97 28.2889C129.14 28.1808 129.46 28.2594 129.46 28.2594C129.51 28.2103 129.65 28.0432 129.72 27.8762C129.79 27.7092 129.79 27.5324 129.85 27.4439L129.78 27.2769C129.78 27.2769 129.34 27.1688 129.16 27.4046C129.16 27.4046 129.05 27.5127 128.94 27.5815L129.14 27.4341L129.05 27.2376C129.05 27.2376 128.7 27.4931 128.55 27.6011C128.4 27.7092 128.22 27.8369 128.05 27.8566C127.87 27.8762 126.71 27.4734 126.45 27.4538C126.19 27.4341 125.97 27.4538 125.97 27.4538L125.8 27.3064C125.8 27.3064 125.6 26.5204 125.3 25.9801C125.3 25.9801 125.67 25.5969 125.76 25.0369L125.83 24.9092C125.83 24.9092 125.52 24.418 125.17 24.2903L124.16 23.2096C124.16 23.2096 125.18 23.2194 125.31 22.8559L125.21 22.4432C125.21 22.4432 126.2 22.6004 126.66 22.0896C126.94 21.7752 126.57 21.5394 126.57 21.5394C126.57 21.5394 127.13 21.4804 127.13 20.6846C127.13 20.5078 126.96 20.5176 126.96 20.5176C126.96 20.5176 127.71 19.8299 127.74 19.3878C127.76 19.1815 127.69 19.0046 127.69 19.0046C127.69 19.0046 128.71 18.7099 128.85 17.5015C128.89 17.1576 128.61 17.305 128.61 17.305L128.57 17.1969C128.57 17.1969 129.49 15.6938 129.27 14.6032C129.16 14.0629 128.88 14.2004 128.88 14.2004L128.8 14.4067C128.8 14.4067 128.39 15.1436 127.46 16.1555C126.54 17.1773 125.99 16.9415 125.28 17.9436C125.28 17.9436 124.99 18.8867 124.78 19.1422C124.78 19.1422 124.56 18.8475 124.32 18.7983C124.32 18.7983 124.17 18.2481 123.42 18.2481C122.15 18.2481 121.95 18.9948 121.95 18.9948C121.95 18.9948 121.45 19.2699 121.45 19.6531C121.45 20.0362 121.56 20.1836 121.56 20.1836C121.56 20.1836 121.47 20.4194 121.67 20.5864L121.69 20.7141C121.69 20.7141 121.27 21.0383 121.98 21.5296L122 21.6966L121.87 22.0797C121.87 22.0797 121.45 21.166 121.23 20.8418L121.21 20.5864C121.21 20.5864 121.41 19.9281 121.5 19.0931C121.5 19.0931 121.69 17.4622 121.8 17.2952C121.91 17.1281 122.26 17.079 122.41 16.9317C122.56 16.7843 122.64 16.6664 122.73 16.5387C122.82 16.411 122.85 16.2734 122.87 16.0769L122.76 15.9492C122.76 15.9492 122.7 15.9983 122.56 15.9983C122.51 15.9983 122.43 15.9885 122.43 15.9885C122.43 15.9885 122.28 16.1162 122.26 15.9099L121.67 15.7724C121.67 15.7724 121.34 15.8608 121.32 16.4601C121.32 16.4601 121.19 16.5878 121.1 16.6959C121.01 16.8039 121.1 16.9317 121.06 17.0397C121.02 17.1478 120.19 19.3288 120.11 19.5155C120.02 19.712 119.98 19.938 119.93 20.046C119.89 20.1541 119.9 20.5274 119.9 20.5274C119.9 20.5274 119.93 20.6748 119.98 21.0973C120.01 21.3822 119.94 22.0503 119.97 22.1583C119.97 22.1583 119.31 21.9913 118.93 21.2938C118.56 20.5864 118.04 17.8257 117.16 16.7646C116.66 16.1555 110.92 11.1155 109.73 10.2018C109.59 10.0938 109.25 9.9071 109.14 10.0545C109.03 10.192 108.54 10.6046 109.38 11.7639L109.3 11.8425C109.3 11.8425 108.82 11.6264 108.77 11.8622C108.73 12.098 108.74 12.8348 109.23 13.5618L109.21 13.6896L108.88 13.8566C108.88 13.8566 108.89 15.1043 110.3 16.1064V16.2341L110.04 16.4011C110.04 16.4011 108.91 16.5878 111.55 18.0418C111.55 18.0418 111.37 18.2383 111.44 18.4053C111.56 18.7001 111.98 19.1324 112.68 19.4959C112.68 19.4959 112.46 19.712 112.51 19.9085C112.56 20.105 112.63 20.3703 113.56 20.7731V21.2839C113.56 21.2839 113.65 21.9815 114.99 22.4334L114.61 23.0229C114.61 23.0229 114.55 24.0741 115.69 24.0938L115.43 24.585C115.43 24.585 115.5 25.1646 116.42 24.9878L116.49 25.0762L116.34 25.5478C116.34 25.5478 116.47 26.098 117.22 25.8917L117.33 25.9604L117.22 26.432C117.22 26.432 117.46 27.0706 118.36 27.0313L118.51 27.0903L118.42 27.385C118.42 27.385 119.12 27.8566 119.65 27.552L119.85 27.5913C119.85 27.5913 120.16 27.7976 120.29 27.9352C120.29 27.9352 120.93 27.8566 121.21 27.6601L121.32 27.719C121.32 27.719 121.28 27.7681 121.2 27.8369C121.01 28.0236 120.84 28.3576 120.76 28.5541C120.65 28.8292 120.46 29.3794 120.46 29.3794C120.46 29.3794 119.08 29.959 119.08 30.5288C119.08 31.0004 119.34 31.1871 119.34 31.1871C119.34 31.1871 119.16 31.8453 118.88 32.0615C117.98 32.7296 117.37 32.425 117.67 33.211C117.67 33.211 114.9 33.7218 114.87 34.4685C114.82 35.9422 115.85 36.6299 115.85 36.6299L115.92 36.738C115.92 36.738 115.75 37.1604 115.9 37.3176C116.25 37.7106 117.04 37.9071 117.04 37.9071L117.06 38.0348C117.06 38.0348 116.64 38.6145 116.84 39.0173C117.2 39.7541 118.15 40.1176 118.15 40.1176C118.15 40.1176 117.7 40.5597 118.79 41.611C118.79 41.611 118.7 41.7387 118.76 41.9646C118.76 41.9646 117.76 42.5246 118.03 43.1043C118.56 44.2538 119.43 44.6762 121.29 42.6032L121.4 42.6229C121.4 42.6229 121.47 42.8783 121.51 42.9471C121.55 43.006 121.4 43.1632 121.47 43.566C121.47 43.566 120.76 43.6741 120.24 44.7155C119.74 45.7274 118.18 45.6881 118.18 45.6881L126.44 45.7176Z" fill="#8088DC"/>
<path fill-rule="evenodd" clip-rule="evenodd" d="M117.81 33.407C117.81 33.407 115.48 34.0358 115.42 34.3993C115.38 34.6253 116.1 34.6253 116.1 34.6253C116.1 34.6253 116.75 34.4877 118.02 33.5151L117.81 33.407Z" fill="#C9BEE6"/>
<path fill-rule="evenodd" clip-rule="evenodd" d="M124.71 22.5116C124.78 22.2561 124.43 22.2561 124.43 22.2561V22.1284C124.43 22.1284 124.82 22.0596 125.35 21.5488C125.88 21.0379 125.42 20.8905 125.42 20.8905L125.39 20.7825C126.16 20.4189 126.41 19.8884 126.41 19.8884L126.51 19.2302C126.05 19.5544 125.41 19.7214 125.41 19.7214L125.37 19.6133C125.93 18.9158 125.57 18.2084 125.57 18.2084C125.46 18.7193 124.89 19.4267 124.89 19.4267C125.08 19.6919 124.89 20.026 124.89 20.026C125 20.5761 124.52 20.753 124.52 20.753C124.43 21.2246 124.24 21.2835 124.15 21.48C124.01 21.7649 123.82 21.814 123.76 21.814C123.76 21.814 123.61 22.1481 123.67 22.374C123.74 22.6 124.02 22.8751 124.02 22.8751C124.46 22.7572 124.64 22.767 124.71 22.5116Z" fill="#C9BEE6"/>
<path fill-rule="evenodd" clip-rule="evenodd" d="M123.921 18.9747C123.921 18.9747 123.651 19.1811 123.371 19.1418C123.131 19.1123 122.821 19.1811 122.821 19.1811C122.551 19.0632 122.241 19.1712 122.241 19.1712C122.241 19.1712 122.691 19.1614 122.781 19.3284C122.791 19.3481 122.561 19.3579 122.371 19.4856C122.301 19.5347 122.241 19.6428 122.181 19.6723C122.111 19.7116 122.071 19.7411 122.071 19.7411L121.891 19.8098C121.891 19.8098 122.171 19.8589 122.411 19.7509C122.651 19.6428 122.211 19.5249 122.751 19.4168C123.131 19.3382 123.681 19.4856 123.981 19.0632L123.921 18.9747Z" fill="#C9BEE6"/>
<path fill-rule="evenodd" clip-rule="evenodd" d="M124.25 18.9551C124.25 18.9551 124.05 19.2989 124.43 19.7018L124.54 19.7214C124.54 19.7214 124.65 19.4463 124.54 19.2498C124.42 19.0632 124.25 18.9551 124.25 18.9551Z" fill="#C9BEE6"/>
<path fill-rule="evenodd" clip-rule="evenodd" d="M123.12 22.8751C123.12 22.8751 122.84 22.5803 122.59 22.2856C122.34 21.9909 122.43 21.6372 122.39 21.5095C122.39 21.5095 122.29 21.7649 122.17 22.3053C122.17 22.3053 122.57 22.5902 122.76 22.8849L123.12 22.8751Z" fill="#C9BEE6"/>
<path fill-rule="evenodd" clip-rule="evenodd" d="M109.89 14.6911C109.89 14.6911 109.7 14.7501 109.76 14.8876C109.81 15.0252 110.32 15.821 110.85 16.2238C110.85 16.2238 110.47 16.4497 110.48 16.5381C110.49 16.6266 110.04 17.1374 113.14 18.3262C113.14 18.3262 113.18 18.4245 113.05 18.4441C112.93 18.4638 112.41 18.2967 112.27 18.336C112.13 18.3753 112.1 18.4539 112.16 18.6799C112.21 18.8567 112.76 19.2988 113.57 19.7017L113.46 19.7999L113.17 19.7017C113.17 19.7017 112.97 19.849 113.1 20.1045C113.22 20.3402 113.54 20.5269 114.12 20.6939L114.01 20.9494C114.01 20.9494 113.92 21.2539 114.03 21.4504C114.14 21.6469 114.7 22.0399 115.45 22.4034L115.41 22.5017C115.41 22.5017 114.14 23.5136 116.85 24.0932C116.85 24.0932 115.69 23.3662 115.65 23.0518C115.59 22.5802 116.11 22.4427 116.11 22.4427C116.11 22.4427 114.69 21.8139 115.13 21.3129C115.13 21.3129 113.89 20.635 114.29 20.2322L114.27 20.0652C114.27 20.0652 113.44 19.4462 113.66 18.7683C113.75 18.4932 113.97 18.4932 113.97 18.4932L113.93 18.3262C113.93 18.3262 113.29 17.9234 113.56 17.1276L113.52 16.9606C113.52 16.9606 113.26 16.2925 113.84 16.4006L114.07 16.2336C114.07 16.2336 113.24 14.8188 114.18 14.7894C114.18 14.7894 110.63 11.3999 109.81 10.7711C109.81 10.7711 109.42 10.4764 109.32 10.5353C109.22 10.5845 109.26 10.7711 109.26 10.7711C109.26 10.7711 109.28 11.6553 110.57 12.8343L110.55 12.962C110.55 12.962 109.7 12.1171 109.16 12.1466L109.1 12.2939C109.1 12.2939 109.18 13.4434 110.64 14.642L110.58 14.7304C110.58 14.7304 110.24 14.6224 109.89 14.6911Z" fill="#C9BEE6"/>
<path fill-rule="evenodd" clip-rule="evenodd" d="M124.969 25.0168C125.169 25.2723 125.169 25.6456 125.169 25.6456C125.389 25.6063 125.549 25.0758 125.549 25.0758L125.609 24.84C125.169 25.0856 124.789 24.7418 124.789 24.7418L124.969 25.0168Z" fill="#C9BEE6"/>
<path fill-rule="evenodd" clip-rule="evenodd" d="M121.4 42.3572C121.4 42.3572 121.51 42.5635 121.64 42.8189C121.77 43.0744 121.49 43.5263 121.71 43.6737C121.93 43.8211 122.22 43.9095 122.44 43.7425L122.59 43.6737C122.59 43.6737 122.66 43.7916 122.88 43.7719C123.1 43.7523 123.15 43.6639 122.96 43.3986C122.86 43.261 122.72 43.2512 122.72 43.2512C122.72 43.2512 122.68 42.8091 122.28 42.8091L122.21 42.6421C122.21 42.6421 122.61 42.1902 122.17 41.6793C122.17 41.6793 121.8 39.9698 122.08 38.781C122.08 38.781 121.88 38.4274 121.67 38.4175C121.46 38.4077 121.31 38.6337 121.2 39.3509C121.2 39.3509 121.01 39.4098 121.55 41.2372C121.55 41.2372 121.31 41.2372 121.59 41.7874L121.4 42.3572Z" fill="#C9BEE6"/>
<path fill-rule="evenodd" clip-rule="evenodd" d="M120.79 45.7172C120.99 45.501 121.1 45.1867 121.22 44.7937C121.42 44.1354 121.79 43.8996 121.79 43.8996C121.59 43.8407 121.48 43.713 121.48 43.713C121.12 43.8505 120.63 44.2239 120.33 44.8625C120.13 45.2947 119.76 45.5698 119.41 45.727L120.79 45.7172Z" fill="#C9BEE6"/>
<path fill-rule="evenodd" clip-rule="evenodd" d="M122.519 19.2891C122.519 19.2891 122.229 19.2105 122.009 19.3677C121.839 19.4954 121.949 19.5937 122.069 19.5347C122.229 19.466 122.259 19.3677 122.519 19.2891Z" fill="#C9BEE6"/>
<path fill-rule="evenodd" clip-rule="evenodd" d="M123.971 20.3207C123.971 20.3207 123.991 20.5172 124.091 20.4975C124.201 20.4779 124.141 20.4288 124.141 20.4288C124.141 20.4288 124.051 20.3698 123.971 20.3207Z" fill="#C9BEE6"/>
<path fill-rule="evenodd" clip-rule="evenodd" d="M125.199 28.0035C125.199 28.0035 125.169 27.64 125.109 27.4533C125.109 27.4533 125.209 26.5789 125.189 26.2646C125.189 26.2646 125.449 26.9032 125.479 27.1488C125.509 27.3944 125.339 27.9937 125.369 28.0232C125.399 28.0526 125.749 27.8365 125.879 27.9249C126.119 28.0723 126.839 27.9642 127.129 28.0723C127.419 28.1803 127.969 28.0526 128.079 28.0232C128.179 27.9937 128.459 27.7972 128.519 27.7874C128.579 27.7775 128.779 27.9249 128.779 27.9249C128.779 27.9249 128.689 28.0919 128.419 27.9937C128.389 27.9839 128.479 28.1214 128.349 28.1607C128.229 28.2 128.219 28.2098 128.219 28.2098C128.219 28.2098 127.749 28.426 127.569 28.4456C127.329 28.4849 126.539 28.5832 126.209 28.5046C125.869 28.4161 125.449 28.3179 125.199 28.0035Z" fill="#C9BEE6"/>
<path fill-rule="evenodd" clip-rule="evenodd" d="M123.869 31.0884C123.869 31.0884 123.919 30.9902 123.859 30.6856C123.859 30.6856 123.769 30.1944 123.309 29.9684C122.569 29.5951 122.169 29.8702 122.089 29.9881C121.879 30.2926 123.069 29.8898 123.119 30.1354C123.159 30.3025 122.649 30.3811 121.679 30.273C120.259 30.1158 119.439 31.0393 119.439 31.0393C119.439 31.0393 119.109 30.9116 119.239 30.5284C119.429 29.9782 120.559 29.7425 121.429 29.654C122.309 29.5656 123.649 28.9663 123.649 28.9663L123.739 29.0547C123.739 29.0547 123.379 29.5263 123.729 29.9881C124.079 30.4498 124.479 31.1572 123.869 31.0884Z" fill="#C9BEE6"/>
<path fill-rule="evenodd" clip-rule="evenodd" d="M123.18 28.4357C123.45 28.3276 124.12 27.9346 124.12 27.9346C124.05 27.6006 123.68 27.6399 123.68 27.6399L123.66 27.4238C123.66 27.4238 123.58 26.7557 124.3 26.402C124.63 26.235 124.15 25.6553 123.49 25.7438C122.83 25.8322 122.66 25.6357 122.66 25.6357L122.74 25.4785C122.74 25.4785 122.74 25.5866 123.18 25.5374C123.62 25.4981 124.23 25.1838 124.04 24.781C123.93 24.5452 123.78 24.4469 123.64 24.4076C123.59 24.3978 123.52 24.2996 123.48 24.329C123.3 24.4567 123.19 24.4076 123.1 24.3781C122.91 24.3094 122.89 24.2995 122.73 24.1031C122.57 23.9066 122.42 23.5725 122.19 23.3367C121.57 22.6883 122.1 24.1227 122.08 24.2308C122.06 24.3389 121.73 24.2996 121.73 24.2996C121.73 24.2996 121.22 24.1227 121.2 24.0146C121.18 23.9066 120.94 22.8946 120.94 22.8946C120.94 22.8946 121.18 22.3543 121.16 22.1873C121.05 21.1655 120.88 20.7234 120.88 20.7234L120.86 20.4287C120.86 20.4287 121.34 18.6603 121.39 18.2869C121.42 18.0806 121.35 18.1002 121.31 18.1002C121.26 18.1002 120.94 18.8076 120.91 18.8862C120.58 19.5052 120.37 19.9473 120.37 19.9473L120.23 20.576C120.54 21.195 120.29 21.8434 120.28 22.6097C120.27 23.209 120.95 23.4448 120.95 24.2111C120.95 24.8301 121.78 26.2252 122.12 26.6378C122.24 26.7852 122.12 27.1978 121.93 27.3746C121.74 27.5417 121.53 27.7676 121.4 27.915C121.27 28.0624 121.13 28.308 121.03 28.5438C120.92 28.7992 120.74 29.3297 120.74 29.3297C120.74 29.3297 122.91 28.5438 123.18 28.4357Z" fill="#C9BEE6"/>
<path fill-rule="evenodd" clip-rule="evenodd" d="M123.711 20.7529C123.711 20.7529 123.621 20.7529 123.561 20.7824C123.501 20.802 123.491 20.861 123.351 20.8904C123.261 20.9101 123.691 20.969 123.691 20.969C123.691 20.969 123.841 21.0378 123.681 21.0476C123.651 21.0476 123.631 21.0476 123.601 21.0574C123.211 21.0869 123.321 21.1753 123.321 21.1753C123.321 21.1753 123.741 21.195 123.641 21.421C123.541 21.6469 122.931 21.4995 122.791 21.362C122.661 21.2343 122.261 20.8904 122.541 20.6153C122.661 20.4974 122.611 20.3894 122.561 20.3108C122.391 20.075 122.761 19.5936 122.821 19.5543C122.981 19.456 123.391 19.6427 123.581 19.5838C123.771 19.5248 124.061 19.2399 124.061 19.2399C124.011 19.7017 124.191 20.016 124.191 20.016C124.191 20.016 123.981 19.9178 123.861 19.8981C123.811 19.8883 123.661 20.2322 123.781 20.4581C123.771 20.4385 123.641 20.4287 123.561 20.4974C123.451 20.5859 123.391 20.6546 123.391 20.6546C123.391 20.6546 123.591 20.635 123.631 20.635L123.711 20.7529Z" fill="#C9BEE6"/>
<path fill-rule="evenodd" clip-rule="evenodd" d="M123.099 33.8589C122.679 32.8372 122.029 33.0042 122.319 33.1516C122.599 33.2989 122.779 33.7214 122.829 34.2028C122.889 34.6842 122.319 34.2028 122.239 34.2912C122.159 34.3796 122.429 34.586 122.559 34.7923C122.689 34.9986 122.539 35.2835 122.539 35.2835C122.109 35.706 121.649 36.0105 121.469 36.4133C121.189 37.0225 120.689 37.3172 120.689 37.3172C120.959 37.4449 121.269 37.0028 121.809 36.9832C122.169 36.9635 122.439 37.3761 122.779 37.3761C122.789 37.3761 123.239 37.8575 123.229 38.1228C123.169 39.4884 122.769 39.0365 122.769 39.0365L122.679 38.9775C122.919 38.054 122.199 37.5923 121.409 37.8674C120.619 38.1424 119.529 39.5081 119.019 39.3017C118.509 39.0856 118.289 38.3684 118.289 38.3684C118.289 38.3684 118.639 38.2996 118.849 38.1719C119.619 37.7003 119.819 36.3839 120.139 35.1853C120.469 33.9867 121.519 32.3067 122.599 32.9256C122.939 33.1025 123.069 33.4463 123.099 33.8589Z" fill="#C9BEE6"/>
<path fill-rule="evenodd" clip-rule="evenodd" d="M122.531 32.2869C122.531 32.2869 123.231 32.6308 123.411 33.2104C123.411 33.2104 123.031 32.6701 122.461 32.4932C121.091 32.0708 120.321 33.6525 119.601 35.5094C118.881 37.3662 118.421 37.2778 118.021 37.6806C118.021 37.6806 117.821 37.0715 117.631 36.9438C117.631 36.9438 117.221 37.0518 116.841 36.9929C116.251 36.9045 116.241 36.9438 116.331 36.3445C116.381 36.0203 116.811 36.5115 117.331 36.541C117.971 36.5803 118.411 35.8827 118.731 35.2146C119.001 34.6546 119.221 33.5346 119.961 32.6308C120.711 31.7171 121.261 31.4911 121.531 31.4813C121.871 31.4715 122.061 31.7171 122.501 31.8546C122.491 31.8546 122.781 32.2181 122.531 32.2869Z" fill="#C9BEE6"/>
<path fill-rule="evenodd" clip-rule="evenodd" d="M122.201 31.4814C122.011 31.4421 121.761 31.3242 121.481 31.3537C120.881 31.4126 120.131 32.0414 119.451 32.6407C118.771 33.24 117.971 33.3775 117.971 32.9944C117.971 32.6014 118.631 32.7586 119.421 32.0316C120.321 31.1965 121.121 30.8821 121.781 31.0196C122.081 31.0786 122.431 31.2849 122.431 31.2849C122.431 31.2849 122.681 31.4912 122.601 31.5895C122.521 31.6779 122.331 31.5109 122.201 31.4814Z" fill="#C9BEE6"/>
<path fill-rule="evenodd" clip-rule="evenodd" d="M124.02 34.0357L124.07 33.9767C124.49 36.0595 124.93 36.5606 125.81 35.5487C125.81 35.5487 125.45 36.4918 125.47 36.7866C125.53 37.5529 125.08 37.8476 124.95 37.8476C124.82 37.8476 124.63 38.1129 124.63 38.1129C124.63 38.1129 124.25 38.162 124.37 37.9262C124.67 37.376 124.49 36.3936 124.02 34.0357Z" fill="#C9BEE6"/>
<path fill-rule="evenodd" clip-rule="evenodd" d="M115.32 35.1951C115.32 35.1951 115.3 35.7256 115.74 35.8239C116.18 35.9123 116.56 35.4702 116.71 35.2344C116.85 34.9986 115.75 35.6568 115.32 35.1951Z" fill="#C9BEE6"/>
<path fill-rule="evenodd" clip-rule="evenodd" d="M121.14 38.5649C121.14 38.5649 120.57 39.233 120.04 40.0681C119.73 40.5593 119.07 40.5298 119.07 40.5298C119.07 40.5298 119.48 40.7754 119.94 40.6084C120.94 40.2253 120.88 38.9186 121.14 38.5649Z" fill="#C9BEE6"/>
<path fill-rule="evenodd" clip-rule="evenodd" d="M114.431 16.7936C114.621 17.8743 116.141 18.6308 116.141 18.6308C115.771 18.8666 115.991 19.3971 115.991 19.3971L115.951 19.5248C115.531 19.5838 116.241 20.4778 116.241 20.4778L116.121 20.6841C116.121 20.6841 115.881 20.6153 115.821 20.8315C115.651 21.362 116.861 22.3248 116.861 22.3248L116.751 22.3543C115.281 21.9417 115.651 21.362 115.651 21.362V21.2539C115.651 21.2539 114.851 20.8315 114.701 20.4581C114.551 20.0848 114.931 20.0848 114.931 20.0848V19.9767C114.201 19.515 114.251 19.1908 114.251 19.1908C114.251 18.6111 114.931 18.9353 114.931 18.9353L114.961 18.7487C113.751 17.7367 114.231 16.882 114.231 16.882L114.431 16.7936Z" fill="#C9BEE6"/>
<path fill-rule="evenodd" clip-rule="evenodd" d="M121.86 16.1944C121.86 16.1944 121.13 15.8014 121.28 15.4772L121.52 15.0253C121.52 15.0253 121.73 15.1726 121.72 15.2217C121.71 15.2709 121.69 15.4084 121.69 15.4084C121.69 15.4084 121.8 14.8779 121.91 14.7895C122.02 14.7011 122.56 14.4456 122.59 14.3867C122.62 14.3277 122.66 14.2884 122.66 14.2884C122.66 14.2884 122.62 14.6421 122.54 14.6912C122.46 14.7404 122.44 14.7895 122.44 14.7895C122.44 14.7895 122.84 14.6421 122.99 14.593C123.13 14.5439 123.21 14.4358 123.21 14.4358L123.1 14.8189C123.1 14.8189 123.44 14.367 123.67 14.3768C123.9 14.3867 124.24 14.3179 124.24 14.3179C124.24 14.3179 124.03 14.6716 123.9 14.7502C123.77 14.8288 123.31 14.8975 123.31 14.8975C123.31 14.8975 123.61 14.9368 123.67 14.986C123.74 15.0449 124.07 15.1333 124.07 15.1333C124.07 15.1333 123.66 15.4084 123.55 15.3789C123.44 15.3396 123.06 15.3298 122.91 15.261C122.86 15.2316 122.74 15.2905 122.74 15.2905C122.74 15.2905 122.59 15.4968 122.72 15.546C122.85 15.5951 122.94 15.6344 122.94 15.6344C122.94 15.6344 122.49 15.6147 122.4 15.6442C122.31 15.6737 122.05 15.9291 122.05 15.9291L122.54 16.4105C122.54 16.4105 122.8 16.4989 122.9 16.4695C123 16.44 123.19 16.1453 123.42 16.1256C123.58 16.1158 123.89 15.9881 123.89 15.9881L123.7 16.3712C123.7 16.3712 123.94 16.2828 124.04 16.2337C124.15 16.1747 124.47 15.9586 124.6 15.8603C124.6 15.8603 124.74 16.2435 124.53 16.3712C124.53 16.3712 124.92 15.9881 125.33 16.1354C125.33 16.1354 125.19 16.6758 124.85 16.6856C124.51 16.6954 124.35 16.5972 124.35 16.5972L124.24 16.6561C124.24 16.6561 124.6 16.8821 124.64 16.9214C124.68 16.9607 124.31 17.0688 124.1 17.0295C123.89 16.9902 123.51 16.7839 123.51 16.7839L123.63 17.0098L123.85 17.1768C123.85 17.1768 123.51 17.334 123.3 17.2358C123.1 17.1375 122.83 16.7151 122.83 16.7151L122.77 16.7249L122.89 17.226C122.89 17.226 122.5 17.1277 122.42 17.0884C122.38 17.0589 121.94 16.5579 121.96 16.4498C121.98 16.3417 121.86 16.1944 121.86 16.1944Z" fill="#8088DC"/>
<path fill-rule="evenodd" clip-rule="evenodd" d="M128.81 27.522C128.81 27.522 128.82 27.1683 129.01 27.1094C129.2 27.0504 129.51 27.2371 129.51 27.2371L129.58 27.3452C129.58 27.3452 130.08 27.2862 130.19 27.5318C130.3 27.7774 130.32 27.9739 130.32 27.9739L130.23 28.0722C130.23 28.0722 130.32 28.0722 130.34 28.1213C130.36 28.1704 130.53 28.5732 130.49 28.6715C130.45 28.7697 130.39 28.7697 130.39 28.7697C130.39 28.7697 130.46 28.6813 130.51 28.9269C130.57 29.1824 130.5 29.4574 130.5 29.4574L130.41 29.4378C130.41 29.4378 130.41 28.9662 130.37 28.9466C130.33 28.9269 130.27 28.9269 130.27 28.9269C130.27 28.9269 130.28 29.0153 130.21 29.0252C130.14 29.035 130.09 28.9859 130.09 28.9859C130.09 28.9859 130 29.0546 130.01 29.0841C130.02 29.1234 130.11 29.4083 130.11 29.4083H130.01C130.01 29.4083 129.87 28.9564 129.99 28.8876C130.11 28.809 130.12 28.7992 130.12 28.7992C130.12 28.7992 130.01 28.8188 129.99 28.7795C129.97 28.7402 129.85 28.3374 129.9 28.249C129.96 28.1508 130.01 28.1311 130.01 28.1311C130.01 28.1311 129.88 28.0722 129.86 27.9739C129.84 27.8757 129.72 27.7578 129.76 27.6595C129.8 27.5613 129.81 27.6006 129.81 27.6006C129.81 27.6006 129.49 27.6399 129.45 27.6202C129.4 27.6006 129.47 27.915 129.47 27.915L129.18 28.0525C129.18 28.0525 129.23 28.5732 128.96 28.6027L128.95 28.6911C128.95 28.6911 129.36 28.8581 129.4 29.2216L129.25 29.3494C129.25 29.3494 129.39 29.3494 129.42 29.3788C129.46 29.4083 129.66 29.7325 129.66 29.7325L129.52 29.7816C129.52 29.7816 129.41 29.4574 129.29 29.5066C129.29 29.5066 129.3 29.6245 129.25 29.6441C129.19 29.6638 129.14 29.595 129.14 29.595C129.14 29.595 129 29.6539 129.21 29.8799L129.07 29.9192C129.07 29.9192 128.96 29.7522 128.96 29.6834C128.96 29.6146 128.96 29.5262 129 29.5164L128.99 29.4771C128.99 29.4771 128.68 29.428 128.62 29.0841C128.56 28.7402 128.72 28.7108 128.72 28.7108L128.71 28.6322C128.71 28.6322 128.52 28.5241 128.61 28.2883C128.72 28.0722 128.81 27.522 128.81 27.522Z" fill="#8088DC"/>
<path fill-rule="evenodd" clip-rule="evenodd" d="M128.94 28.4849C128.94 28.4849 129.04 28.426 129.05 28.2688C129.06 28.1214 129.01 28.1607 129.01 28.1607L128.87 28.2393V28.3768C128.86 28.3768 128.94 28.3277 128.94 28.4849Z" fill="#8088DC"/>
<path fill-rule="evenodd" clip-rule="evenodd" d="M128.86 28.8975C128.86 28.8975 128.73 29.1039 128.98 29.3298L129.03 29.32C129.03 29.32 128.87 29.153 128.96 29.0744C129.05 28.9958 129.2 29.2217 129.2 29.2217L129.23 29.153C129.23 29.153 129.02 29.0154 128.98 28.9074L128.86 28.8975Z" fill="#8088DC"/>
<path fill-rule="evenodd" clip-rule="evenodd" d="M130.179 28.701C130.179 28.701 130.109 28.6912 130.079 28.6028C130.049 28.5144 130.039 28.3375 130.039 28.3375L130.069 28.2884C130.069 28.2884 130.109 28.3375 130.149 28.3375C130.209 28.3375 130.209 28.2688 130.209 28.2688C130.209 28.2688 130.279 28.2786 130.289 28.3179C130.299 28.3572 130.359 28.6225 130.359 28.6225L130.309 28.6912C130.309 28.6912 130.259 28.5733 130.229 28.5832C130.199 28.593 130.129 28.593 130.179 28.701Z" fill="#8088DC"/>
<path fill-rule="evenodd" clip-rule="evenodd" d="M124.461 37.16C124.461 37.16 125.001 36.8653 125.231 36.6393C125.231 36.6393 124.811 37.1011 124.501 37.2877L124.461 37.16Z" fill="#8088DC"/>
<path fill-rule="evenodd" clip-rule="evenodd" d="M124.4 37.4842C124.4 37.4842 124.94 37.1895 125.17 36.9635C125.17 36.9635 124.75 37.4253 124.44 37.6119L124.4 37.4842Z" fill="#8088DC"/>
<path fill-rule="evenodd" clip-rule="evenodd" d="M124.34 37.7985C124.34 37.7985 124.88 37.5038 125.11 37.2778C125.11 37.2778 124.69 37.7494 124.38 37.9262L124.34 37.7985Z" fill="#8088DC"/>
<path fill-rule="evenodd" clip-rule="evenodd" d="M124.289 38.113C124.289 38.113 124.829 37.8182 125.059 37.5923C125.059 37.5923 124.639 38.054 124.329 38.2407L124.289 38.113Z" fill="#8088DC"/>
<path fill-rule="evenodd" clip-rule="evenodd" d="M123.42 22.0695C123.42 22.0695 123.99 21.8337 124.24 21.6372C124.24 21.6372 123.77 22.0498 123.44 22.207L123.42 22.0695Z" fill="#8088DC"/>
<path fill-rule="evenodd" clip-rule="evenodd" d="M123.5 22.2462C123.5 22.2462 124.07 22.0104 124.32 21.8139C124.32 21.8139 123.85 22.2266 123.52 22.3838L123.5 22.2462Z" fill="#8088DC"/>
<path fill-rule="evenodd" clip-rule="evenodd" d="M123.57 22.4133C123.57 22.4133 124.14 22.1775 124.39 21.9811C124.39 21.9811 123.92 22.4035 123.59 22.5509L123.57 22.4133Z" fill="#8088DC"/>
<path fill-rule="evenodd" clip-rule="evenodd" d="M123.65 22.5804C123.65 22.5804 124.22 22.3446 124.47 22.1481C124.47 22.1481 124 22.5607 123.67 22.7179L123.65 22.5804Z" fill="#8088DC"/>
<path fill-rule="evenodd" clip-rule="evenodd" d="M123.73 22.7473C123.73 22.7473 124.3 22.5115 124.55 22.315C124.55 22.315 124.08 22.7374 123.75 22.8848L123.73 22.7473Z" fill="#8088DC"/>
<path fill-rule="evenodd" clip-rule="evenodd" d="M123.801 22.9144C123.801 22.9144 124.371 22.6786 124.621 22.4821C124.621 22.4821 124.151 22.8947 123.821 23.0519L123.801 22.9144Z" fill="#8088DC"/>
<path fill-rule="evenodd" clip-rule="evenodd" d="M123.6 19.8786C123.6 19.8786 123.36 19.7116 122.82 20.0456L122.86 20.0947C122.86 20.0947 123.24 20.026 123.31 20.2028L123.42 20.1832C123.42 20.1832 123.56 20.0358 123.6 19.8786Z" fill="#8088DC"/>
</svg>
