<?xml version="1.0" encoding="utf-8"?>
<!-- Generator: Adobe Illustrator 24.0.0, SVG Export Plug-In . SVG Version: 6.00 Build 0)  -->
<svg version="1.1" id="Capa_1" xmlns="http://www.w3.org/2000/svg" xmlns:xlink="http://www.w3.org/1999/xlink" x="0px" y="0px"
	 viewBox="0 0 360 226.8" style="enable-background:new 0 0 360 226.8;" xml:space="preserve">
<style type="text/css">
	.st0{fill:#FFFFFF;}
</style>
<g>
	<path class="st0" d="M359.1,139.9c-1.2-28.1-0.6-56.2-0.1-84.4c0.3-19.9-9.3-34-24.1-45.7c-8-6.2-17.3-8-26.9-9
		c-86,0-171.9,0-257.9,0c-5.7,1.4-12,0.7-17.3,3.6C15.1,14.1,2,27,0.6,48.5c-0.1,0.8,0.1,1.7-0.5,2.3c0,49,0,97.9,0,146.9
		c0.8,0.8,0.4,1.9,0.5,2.8c0.5,6.9,3.1,12.5,8,17.7c5.5,5.8,12.3,7.3,19.5,8.5c4,0,8,0,12,0c6.5-1.2,13-1.8,18.6-6.2
		c7.3-5.8,15.3-10.6,22.7-16.2c5.2-4,10.7-5.2,17.2-5.2c65.4,0.1,130.8,0.1,196.2,0.1c5,0,9.9-0.4,14.9-1.1
		C334.1,194.3,360.5,170.9,359.1,139.9z M92.8,81.8c-0.6,0.2-1.3,0-2,0.1c-11.6,0.5-18.5,7.5-18.6,19.1c-0.1,9-0.1,18,0,26.9
		c0.1,3.6-1.1,5-4.9,4.9c-11.7-0.2-10.2,1-10.3-10c-0.1-7.6,0-15.3,0-22.9c0-9.3,0.1-18.6-0.1-27.9c-0.1-3.4,1.3-5.3,4.6-4.6
		c3.7,0.8,8.9-3,11,3.4c0.4,1.2,2-0.1,3-0.6c4.9-2.2,10-3.5,15.5-3.4c0.5,0,1,0,1.5,0c3.9-0.3,3.7,2.7,3.1,4.6
		C94.6,74.8,99.2,79.9,92.8,81.8z M163,76.8c0.1,4,0,8,0,12c0,5.2,0.1,10.3,0,15.5c-0.3,16.3-12.5,28.7-28.4,28.8
		c-16,0.1-28.3-11.9-28.7-28.3c-0.2-11,0-22-0.1-33c-0.1-3.5,1.3-4.7,4.7-4.7c12.5,0,10.4-0.4,10.5,9.9c0.1,8.8-0.1,17.6,0,26.5
		c0.1,8.6,5.4,14.4,13.2,14.5c8,0.1,13.6-5.7,13.7-14.5c0.2-10.3,0.2-20.6,0-31c-0.1-3.8,1.1-5.4,5-5.3
		C165.1,67.2,162.8,66.8,163,76.8z M230.5,108.8c0,7.6-0.1,13.6,0,19.6c0,3.1-1.1,4.5-4.4,4.4c-12.3-0.2-10.8,1.3-10.9-10.5
		c-0.1-8.8,0.1-17.6,0-26.5c-0.1-9.1-5.2-15-13.1-15.1c-8.1-0.1-13.7,5.7-13.8,15c-0.2,10.7-0.2,21.3,0,32c0.1,4-1.4,5.2-5.2,5.1
		c-11.1-0.3-9.9,1.1-9.9-9.9c0-9.7-0.2-19.3,0.1-29c0.5-14.9,11.2-26.7,24.9-28.1c15.2-1.5,28.1,7.3,31.5,21.7
		C231.3,95,230.3,102.7,230.5,108.8z M307.3,110.5c0,6.8-0.1,12.3,0,17.8c0.1,3.1-1,4.7-4.4,4.5c-2.2-0.2-4.3,0-6.5-0.1
		c-1,0-2.6-0.2-2.8-0.6c-1.7-6.1-5.1-2.1-7.6-1.2c-17.3,6.6-36.9-1.9-43.7-19.1c-6.9-17.4,1.9-37.3,19.4-44c17.4-6.6,37,2,43.6,19.3
		c0.6,1.5,1.2,3.1,1.4,4.8C307.7,98.5,307.2,105.1,307.3,110.5z"/>
	<path class="st0" d="M273.9,80.7c-10.3,0-18.8,8.5-18.8,18.7c0.1,10.3,8.5,18.6,19,18.5c10.3-0.1,18.8-8.7,18.5-18.9
		C292.3,88.8,284,80.7,273.9,80.7z"/>
</g>
</svg>
