<svg width="239" height="56" viewBox="0 0 239 56" fill="none" xmlns="http://www.w3.org/2000/svg">
<g clip-path="url(#clip0)">
<path d="M77.9993 14H60.333V23.0103H77.9993V14Z" fill="#8066C4"/>
<path d="M25 14V23.0103H33.8331V41.0244H42.6663V23.0103H51.4994V14H25Z" fill="#8066C4"/>
<path d="M51.499 41.0244H60.3321H78.005V32.0141H60.3321V23.0103H51.499V41.0244Z" fill="#8066C4"/>
<path d="M100.522 20.8119H87.541V24.5525H91.8854V36.3125H96.1773V24.5525H100.522V20.8119Z" fill="#8066C4"/>
<path d="M105.417 24.4409C102.359 24.4409 100.102 26.5016 100.102 30.5112C100.102 34.0747 102.031 36.5553 105.529 36.5553C107.347 36.5553 108.83 36.0697 110.267 35.2231L108.738 32.6769C107.583 33.2741 106.743 33.4972 105.726 33.4972C104.643 33.4972 103.888 32.9197 103.757 31.6334H110.575C110.595 31.4366 110.595 31.1872 110.595 30.8591C110.595 26.5475 108.6 24.4409 105.417 24.4409ZM103.75 29.1594C103.882 28.0109 104.393 27.3875 105.299 27.3875C106.474 27.3875 106.874 27.9847 107.071 29.1594H103.75Z" fill="#8066C4"/>
<path d="M118.148 33.3266C117.065 33.3266 116.507 32.375 116.507 30.5375C116.507 28.7 117.019 27.6828 118.036 27.6828C118.903 27.6828 119.277 28.1684 119.828 29.1856L122.571 27.1053C121.554 25.4647 120.287 24.4475 118.095 24.4475C114.374 24.4475 112.557 26.9084 112.557 30.4719C112.557 34.3897 114.591 36.5619 118.004 36.5619C120.064 36.5619 121.324 35.7875 122.676 33.7925L120.149 31.8237C119.434 32.9066 118.903 33.3266 118.148 33.3266Z" fill="#8066C4"/>
<path d="M131.877 24.4409C130.506 24.4409 129.685 24.9069 128.95 25.4581V20.1687L124.967 21.7634V36.3125H128.95V29.6712C128.95 28.2078 129.462 27.8141 130.302 27.8141C131.122 27.8141 131.634 28.2144 131.634 29.7172V36.3125H135.644V29.2053C135.644 26.1472 134.423 24.4409 131.877 24.4409Z" fill="#8066C4"/>
<path d="M145.258 32.8147C143.394 32.8147 142.646 30.9312 142.646 28.5622C142.646 26.1012 143.42 24.3097 145.218 24.3097C146.636 24.3097 147.167 25.2153 147.719 26.659L151.617 25.13C150.554 22.2031 149.044 20.569 145.238 20.569C141.077 20.569 138.15 23.5812 138.15 28.5622C138.15 33.1494 140.611 36.5553 145.218 36.5553C148.893 36.5553 150.619 34.5865 151.663 32.5456L148.027 30.6162C147.18 32.0862 146.609 32.8147 145.258 32.8147Z" fill="#8066C4"/>
<path d="M158.054 25.5303V24.6903H154.064V36.3125H158.054V29.9797C158.054 28.5622 158.652 28.0963 159.629 28.0963C160.404 28.0963 160.981 28.5163 161.493 29.0741L162.425 24.9331C161.959 24.6444 161.382 24.4475 160.542 24.4475C159.518 24.4409 158.744 24.8675 158.054 25.5303Z" fill="#8066C4"/>
<path d="M170.988 31.3316C170.988 32.795 170.476 33.1887 169.662 33.1887C168.842 33.1887 168.337 32.7884 168.337 31.2856V24.6903H164.327V31.7975C164.327 34.8556 165.548 36.5619 168.094 36.5619C169.446 36.5619 170.286 36.0959 170.995 35.5447V36.3125H175.004V24.6903H170.995V31.3316H170.988Z" fill="#8066C4"/>
<path d="M184.81 24.4409C183.438 24.4409 182.618 24.9069 181.889 25.4581V24.6837H177.899V36.3125H181.889V29.6712C181.889 28.2078 182.401 27.8141 183.241 27.8141C184.062 27.8141 184.567 28.2144 184.567 29.7172V36.3125H188.577V29.2053C188.577 26.1472 187.356 24.4409 184.81 24.4409Z" fill="#8066C4"/>
<path d="M196.504 33.3266C195.422 33.3266 194.864 32.375 194.864 30.5375C194.864 28.7 195.376 27.6828 196.393 27.6828C197.259 27.6828 197.633 28.1684 198.184 29.1856L200.927 27.1053C199.91 25.4647 198.644 24.4475 196.452 24.4475C192.731 24.4475 190.913 26.9084 190.913 30.4719C190.913 34.3897 192.954 36.5619 196.36 36.5619C198.421 36.5619 199.681 35.7875 201.032 33.7925L198.506 31.8237C197.791 32.9066 197.259 33.3266 196.504 33.3266Z" fill="#8066C4"/>
<path d="M210.234 24.4409C208.862 24.4409 208.042 24.9069 207.313 25.4581V20.1687L203.323 21.7634V36.3125H207.313V29.6712C207.313 28.2078 207.825 27.8141 208.665 27.8141C209.485 27.8141 209.991 28.2144 209.991 29.7172V36.3125H214V29.2053C214 26.1472 212.78 24.4409 210.234 24.4409Z" fill="#8066C4"/>
</g>
<defs>
<clipPath id="clip0">
<rect width="189" height="27.0244" fill="white" transform="translate(25 14)"/>
</clipPath>
</defs>
</svg>
